<svg xmlns="http://www.w3.org/2000/svg" viewBox="300 57.60000192 407 501.6000167199999" version="1.1" style="max-height: 500px" width="407" height="501.6000167199999">
 <g transform="translate(0,-522.51965)">
  <path style="paint-order:fill markers stroke" stroke-width="18.7396" stroke-linejoin="round" stroke-linecap="round" fill="#fff" d="M 0,522.51965 H 999.99997 V 1122.5197 H 0 Z"/>
  <g transform="matrix(2.2816548,0,0,2.2816548,17754.726,-345.35179)">
   <path style="font-variation-settings:normal" stroke-width=".2" stroke-linejoin="round" stroke-linecap="round" stroke="#000" stop-color="#000000" fill="#045ea2" d="m-7630.0284 523.4808-3.4384 3.50721c-1.4734 3.56024-1.2785 7.42381-0.7565 11.34686l8.3898-2.88829c-0.795-4.79836 2.0143-8.51998 4.4357-10.65917"/>
   <path style="font-variation-settings:normal" stroke-width=".2" stroke-linejoin="round" stroke-linecap="round" stroke="#000" stop-color="#000000" fill="#045ea2" d="m-7615.5869 458.56305c-7.3943 5.20322-12.5478 5.81237-16.0079 6.19263-2.9855 0.3281-5.2773 0.6805-6.1357 4.39777 1.827 0.12375 4.1417 0.11142 4.6778 0.78842-3.0588 4.3529-8.3857 1.86735-9.9928 1.21567-0.4872 6.11331 4.0609 6.43019 6.8564 6.85639 2.571-0.23959 3.8361-1.05738 5.3003-1.72625l0.6322 4.01171c-6.926 3.22972-7.4942 9.09645-13.7615 8.89873 1.1463 1.73038 2.3134 2.67865 3.331 3.37956 0.1285 0.31172 0.5191 0.6037 0.4018 0.90508-5.7267 14.71086 5.8637 20.21482 11.4874 12.05399-0.033-2.05513-0.651-3.67567 1.4345-6.88071 1.7658 0.58327 3.5606 1.05778 5.8353-0.26744-1.6933-2.32386-1.6729-6.17636 0.8023-10.52772 1.2631 3.53574 3.4955 3.08828 4.5467 3.30662-0.9145-7.64922 5.94-12.45954 9.2147-12.91043"/>
   <g stroke-width=".2" stroke-linejoin="round" stroke-linecap="round" stroke="#000" fill="none">
    <path style="font-variation-settings:normal" stop-color="#000000" d="m-7630.2566 480.29939c0.7923 1.28716 1.3206 1.25381 1.9475 1.71382 0.9405-3.04094 2.135-6.65103 4.9169-7.08318-0.6716 2.20279 1.9033 4.89653 2.407 4.4012 0.1862-0.18315 0.041-0.84509 0.1641-1.89721 0.2368-2.03107 1.1896-5.2349 5.4749-7.28343"/>
    <path style="font-variation-settings:normal" stop-color="#000000" d="m-7627.1057 470.32252c2.6158-0.70954 5.6985-3.2866 8.9056-6.36112l-1.341 3.40406-5.1404 4.09174"/>
    <path style="font-variation-settings:normal" stop-color="#000000" d="m-7618.1314 478.33408 5.2609-4.50436 1.0659 1.89115c-2.1662 0.87411-4.2637 2.65602-6.4299 5.36396"/>
   </g>
   <path style="font-variation-settings:normal" stroke-width=".2" stroke-linejoin="round" stroke-linecap="round" stroke="#000" stop-color="#000000" fill="#f6b801" d="m-7636.1891 478.01393c-4.9817-1.22818-6.5223-4.79246-5.2274-8.97166 0.2783-0.89815 0.2467-2.96982-2.2855-1.65331-5.757 2.99306-3.3961 12.1527 7.5129 10.62497"/>
   <path style="font-variation-settings:normal" stroke-width=".2" stroke-linejoin="round" stroke-linecap="round" stroke="#000" stop-color="#000000" fill="#045ea2" d="m-7509.1601 458.56305c7.3943 5.20322 12.5478 5.81237 16.0079 6.19263 2.9855 0.3281 5.2773 0.6805 6.1357 4.39777-1.827 0.12375-4.1417 0.11142-4.6778 0.78842 3.0588 4.3529 8.3857 1.86735 9.9928 1.21567 0.4872 6.11331-4.0609 6.43019-6.8564 6.85639-2.571-0.23959-3.8361-1.05738-5.3003-1.72625l-0.6322 4.01171c6.926 3.22972 7.4942 9.09645 13.7615 8.89873-1.1463 1.73038-2.3134 2.67865-3.331 3.37956-0.1285 0.31172-0.5191 0.6037-0.4018 0.90508 5.7267 14.71086-5.8637 20.21482-11.4874 12.05399 0.033-2.05513 0.651-3.67567-1.4345-6.88071-1.7658 0.58327-3.5606 1.05778-5.8353-0.26744 1.6933-2.32386 1.6729-6.17636-0.8023-10.52772-1.2631 3.53574-3.4955 3.08828-4.5467 3.30662 0.9145-7.64922-5.94-12.45954-9.2147-12.91043"/>
   <g stroke-width=".2" stroke-linejoin="round" stroke-linecap="round" stroke="#000" fill="none">
    <path style="font-variation-settings:normal" stop-color="#000000" d="m-7494.4904 480.29939c-0.7923 1.28716-1.3206 1.25381-1.9475 1.71382-0.9405-3.04094-2.135-6.65103-4.9169-7.08318 0.6716 2.20279-1.9033 4.89653-2.407 4.4012-0.1862-0.18315-0.041-0.84509-0.1641-1.89721-0.2368-2.03107-1.1896-5.2349-5.4749-7.28343"/>
    <path style="font-variation-settings:normal" stop-color="#000000" d="m-7497.6413 470.32252c-2.6158-0.70954-5.6985-3.2866-8.9056-6.36112l1.341 3.40406 5.1404 4.09174"/>
    <path style="font-variation-settings:normal" stop-color="#000000" d="m-7506.6156 478.33408-5.2609-4.50436-1.0659 1.89115c2.1662 0.87411 4.2637 2.65602 6.4299 5.36396"/>
   </g>
   <path style="font-variation-settings:normal" stroke-width=".2" stroke-linejoin="round" stroke-linecap="round" stroke="#000" stop-color="#000000" fill="#f6b801" d="m-7488.5579 478.01393c4.9817-1.22818 6.5223-4.79246 5.2274-8.97166-0.2783-0.89815-0.2467-2.96982 2.2855-1.65331 5.757 2.99306 3.3961 12.1527-7.5129 10.62497"/>
   <g stroke-width=".2" stroke-linejoin="round" stroke-linecap="round" stroke="#000" fill="#045ea2">
    <path style="font-variation-settings:normal" stop-color="#000000" d="m-7581.4088 456.08737c-10.3241 15.15174-18.7143 13.67102-22.7281 8.11472-11.4881 2.78602-4.2267 8.76765 1.5473 14.57899 7.163-0.3631 12.34-3.49452 17.536-6.36112l8.5961-11.2437"/>
    <path style="font-variation-settings:normal" stop-color="#000000" d="m-7543.3382 456.08737c10.3241 15.15174 18.7143 13.67102 22.7281 8.11472 11.4881 2.78602 4.2267 8.76765-1.5473 14.57899-7.163-0.3631-12.34-3.49452-17.536-6.36112l-8.5961-11.2437"/>
    <path style="font-variation-settings:normal" stop-color="#000000" d="m-7581.2713 452.7177c-4.2371-2.40378-9.5879-2.49128-14.854 0l-8.6649 0.82523-2.7164-9.66202 3.831-2.33814c-0.5775-0.81553-1.4123-1.50512-1.422-3.50721v-1.33092c0-0.92103 0.6198-0.56589 0.8416-0.23479 1.8858 2.81431 3.9217 2.88924 5.6592 3.00986 1.1116 0.0772 1.6118-0.69537 1.3947-1.27314-0.1845-0.49118-0.8235-0.88205-2.7277-0.0599-0.9324 0.40257-1.4195 0.0347-0.7502-0.62482 1.5796-1.55627 2.499-1.75145 3.5961-2.27146l15.2667 4.91697"/>
    <path style="font-variation-settings:normal" stop-color="#000000" d="m-7543.4757 452.7177c4.2371-2.40378 9.5879-2.49128 14.854 0l8.6649 0.82523 2.7164-9.66202-3.831-2.33814c0.5775-0.81553 1.4123-1.50512 1.422-3.50721v-1.33092c0-0.92103-0.6198-0.56589-0.8416-0.23479-1.8858 2.81431-3.9217 2.88924-5.6592 3.00986-1.1116 0.0772-1.6118-0.69537-1.3947-1.27314 0.1845-0.49118 0.8235-0.88205 2.7277-0.0599 0.9324 0.40257 1.4195 0.0347 0.7502-0.62482-1.5796-1.55627-2.499-1.75145-3.5961-2.27146l-15.2667 4.91697"/>
   </g>
   <g stroke-width=".2" stroke="#000" transform="translate(-127.00002)">
    <path style="font-variation-settings:normal" stroke-linejoin="round" stroke-linecap="round" stop-color="#000000" fill="#d7d7d7" d="m-7459.772 494.11652c-3.4118-7.09783-4.2621-13.40016-2.6049-16.05228 0.7385-1.18182 3.6667-1.8074 5.2181-1.69007 3.2017 0.24215 4.7524-0.26082 5.6734-1.03153 0.134-3.09369 0.5502-5.34095 0.2751-9.66202-0.6458-2.73438-3.1035-6.18373-5.2264-9.35255l1.7536-10.21217-2.7507-5.91412 22.0611-6.87688 22.0611 6.87688-2.7507 5.91412 1.7536 10.21217c-2.1229 3.16882-4.5806 6.61817-5.2264 9.35255-0.2751 4.32107 0.1411 6.56833 0.2751 9.66202 0.921 0.77071 2.4717 1.27368 5.6734 1.03153 1.5514-0.11733 4.4796 0.50825 5.2181 1.69007 1.6572 2.65212 0.8069 8.95445-2.6049 16.05228"/>
    <g stroke-linejoin="round" stroke-linecap="round" fill="none">
     <path style="font-variation-settings:normal" stop-color="#000000" d="m-7461.135 477.11714c2.4589-1.11177 6.6345 8.69428 8.3431 12.70133"/>
     <path style="font-variation-settings:normal" stop-color="#000000" d="m-7451.4854 475.34264c6.5468 3.35756 11.491 3.89132 16.1127 4.1949"/>
     <path style="font-variation-settings:normal" stop-color="#000000" d="m-7452.2762 445.11875c0.1399 3.77134 1.8129 4.29599 3.4729 4.8482l0.6876 5.57027 12.743 5.53589"/>
     <path style="font-variation-settings:normal" stop-color="#000000" d="m-7452.2762 445.11875-2.235 0.24069-0.2407 3.19775c1.2245 3.66078 2.2125 3.53532 3.2666 4.46997l0.069 5.46712 16.0438 6.80811"/>
    </g>
    <g fill-rule="evenodd">
     <circle style="font-variation-settings:normal" stop-color="#000000" r=".3710835" cy="463.51529" cx="-7446.2983"/>
     <circle style="font-variation-settings:normal" stop-color="#000000" r=".3710835" cy="465.04208" cx="-7442.7397"/>
     <circle style="font-variation-settings:normal" stop-color="#000000" r=".3710835" cy="466.66605" cx="-7438.9292"/>
     <circle style="font-variation-settings:normal" stop-color="#000000" r=".3710835" cy="468.19284" cx="-7435.3706"/>
     <circle style="font-variation-settings:normal" stop-color="#000000" r=".3710835" cy="470.98465" cx="-7435.3706"/>
     <circle style="font-variation-settings:normal" stop-color="#000000" r=".3710835" cy="473.84351" cx="-7435.3706"/>
     <circle style="font-variation-settings:normal" stop-color="#000000" r=".3710835" cy="476.63531" cx="-7435.3706"/>
    </g>
    <g stroke-linejoin="round" stroke-linecap="round" fill="none">
     <path style="font-variation-settings:normal" stop-color="#000000" d="m-7409.6104 477.11714c-2.4589-1.11177-6.6345 8.69428-8.3431 12.70133"/>
     <path style="font-variation-settings:normal" stop-color="#000000" d="m-7419.26 475.34264c-6.5468 3.35756-11.491 3.89132-16.1127 4.1949"/>
     <path style="font-variation-settings:normal" stop-color="#000000" d="m-7418.4692 445.11875c-0.1399 3.77134-1.8129 4.29599-3.4729 4.8482l-0.6876 5.57027-12.743 5.53589"/>
     <path style="font-variation-settings:normal" stop-color="#000000" d="m-7418.4692 445.11875 2.235 0.24069 0.2407 3.19775c-1.2245 3.66078-2.2125 3.53532-3.2666 4.46997l-0.069 5.46712-16.0438 6.80811"/>
    </g>
    <g fill-rule="evenodd">
     <circle style="font-variation-settings:normal" stop-color="#000000" r=".3710835" cy="463.51529" cx="7424.4429" transform="scale(-1,1)"/>
     <circle style="font-variation-settings:normal" stop-color="#000000" r=".3710835" cy="465.04208" cx="7428.0015" transform="scale(-1,1)"/>
     <circle style="font-variation-settings:normal" stop-color="#000000" r=".3710835" cy="466.66605" cx="7431.812" transform="scale(-1,1)"/>
    </g>
   </g>
   <g stroke-width=".25" stroke-linecap="round" stroke="#000">
    <path style="font-variation-settings:normal" stroke-linejoin="round" stop-color="#000000" fill="#d7d7d7" d="m-7573.8011 487.0586c-1.082 3.14953-2.1089 6.11747-6.6383 1.54823-6.5055 1.84538-13.5962 2.08842-20.9124-0.60255l-12.2489 12.77442c9.6476 9.97983 12.4854 27.45101 5.5071 46.62351-4.6379 12.74259-5.9786 24.89353-0.4299 35.32911 7.8544 14.77198 27.8801 19.74007 35.5963 21.73458 3.7126 0.95966 7.7752 1.66104 10.5538 5.87458 2.7787-4.21354 6.8413-4.91492 10.5539-5.87458 7.7162-1.99451 27.7419-6.9626 35.5963-21.73458 5.5487-10.43558 4.208-22.58652-0.4299-35.32911-6.9783-19.1725-4.1405-36.64368 5.5071-46.62351l-12.2494-12.77442c-7.3164 2.69103-14.4068 2.44805-20.9124 0.60255-4.5294 4.56923-5.5563 1.6013-6.6383-1.54823-3.3505 4.71856-8.7681 6.18467-11.4273 6.22443-2.6592-0.0398-8.0772-1.50587-11.4277-6.22443z"/>
    <path style="font-variation-settings:normal" stop-color="#000000" opacity=".98" fill-rule="evenodd" fill="#da251c" d="m-7573.8011 487.0586c-1.082 3.14953-2.1089 6.11747-6.6383 1.54823-6.5055 1.84536-13.5962 2.08842-20.9124-0.60255l-12.2489 12.77442c9.2864 9.60624 12.2593 26.15457 6.2456 44.47893h44.6422v-51.99062c-2.7574-0.15071-7.8719-1.67888-11.0882-6.20841zm11.7683 59.02482v63.76975c2.7636-3.78061 6.6494-4.46603 10.2133-5.38727 7.7162-1.9945 27.7419-6.9626 35.5963-21.73458 5.5487-10.43558 4.208-22.58652-0.4299-35.32911-0.1604-0.44087-0.3099-0.87979-0.46-1.31879z"/>
    <path style="font-variation-settings:normal" stop-color="#000000" opacity=".98" fill-rule="evenodd" fill="#005ca1" d="m-7550.9461 487.0586c-3.2159 4.52896-8.3291 6.05741-11.0867 6.20841v51.99062h44.6417c-6.0137-18.32438-3.0414-34.87268 6.2451-44.47893l-12.2489-12.77442c-7.3164 2.69103-14.4072 2.44803-20.9129 0.60255-4.5294 4.56923-5.5563 1.6013-6.6383-1.54823zm-56.687 59.02482c-0.1501 0.43902-0.3 0.8779-0.4605 1.31879-4.6379 12.74259-5.9786 24.89353-0.4299 35.32911 7.8544 14.77198 27.8801 19.74008 35.5963 21.73458 3.5644 0.92136 7.4506 1.60689 10.2143 5.38882v-63.7713z"/>
   </g>
   <g stroke="#000" transform="translate(-169.33338)">
    <path style="font-variation-settings:normal" stroke-width=".15" stroke-linejoin="round" stroke-linecap="round" stop-color="#000000" fill="#d7d7d7" d="m-7413.4941 579.51019-1.0867-28.83132-1.0868 28.83132"/>
    <path style="font-variation-settings:normal" stroke-width=".15" stroke-linejoin="round" stroke-linecap="round" stop-color="#000000" fill="#d7d7d7" d="m-7417.318 580.71365 2.7372-4.17771 2.7371 4.17771"/>
    <g stroke-width=".25" fill="#fab600">
     <circle style="font-variation-settings:normal" stop-color="#000000" fill-rule="evenodd" r="2.4435012" cy="590.89624" cx="-7414.5801"/>
     <g stroke-linecap="round">
      <rect style="font-variation-settings:normal" stop-color="#000000" opacity=".98" fill-rule="evenodd" height="7.9752741" width="2.2854638" y="580.76129" x="-7415.7227"/>
      <g stroke-linejoin="round">
       <path style="font-variation-settings:normal" stop-color="#000000" d="m-7414.5808 580.10609c-2.1331-0.0135-4.3644 0.58714-6.3823-0.14588-0.1501 0.38155-0.2145 0.7774-0.1702 1.19136 1.7748 1.61154 4.7203-0.0479 6.5525-0.0608"/>
       <path style="font-variation-settings:normal" stop-color="#000000" d="m-7415.7232 581.67431 2.2854 1.61684"/>
       <path style="font-variation-settings:normal" stop-color="#000000" d="m-7415.7232 586.27876 2.2854 1.61684"/>
      </g>
     </g>
     <g stroke-linejoin="round" stroke-linecap="round" transform="translate(-15.875)">
      <path style="font-variation-settings:normal" stop-color="#000000" d="m-7399.85 584.744 2.29 1.617"/>
      <path style="font-variation-settings:normal" stop-color="#000000" d="m-7399.85 583.209 2.29 1.617"/>
     </g>
    </g>
    <g stroke-linejoin="round" stroke-linecap="round">
     <path style="font-variation-settings:normal" stroke-width=".15" stop-color="#000000" fill="#d7d7d7" d="m-7414.5808 578.41196-1.4921 2.2774"/>
     <path style="font-variation-settings:normal" stroke-width=".25" stop-color="#000000" fill="#fab600" d="m-7414.5808 580.10609c-2.1672 0.0806-4.4523 0.54435-6.3823-0.14588-0.2369 0.43716-0.221 0.81814-0.1702 1.19136 1.7453 1.57078 4.3466 0.0384 6.5525-0.0608"/>
     <path style="font-variation-settings:normal" stroke-width=".15" stop-color="#000000" fill="#d7d7d7" d="m-7414.5809 578.41196 1.4921 2.2774"/>
     <path style="font-variation-settings:normal" stroke-width=".25" stop-color="#000000" fill="#fab600" d="m-7414.5809 580.10609c2.1672 0.0806 4.4523 0.54435 6.3823-0.14588 0.2369 0.43716 0.221 0.81814 0.1702 1.19136-1.7453 1.57078-4.3466 0.0384-6.5525-0.0608"/>
     <path style="font-variation-settings:normal" stroke-width=".15" stop-color="#000000" fill="#d7d7d7" d="m-7414.5808 550.67996-1e-4 25.85605"/>
    </g>
    <circle style="font-variation-settings:normal" stroke-width=".15" stop-color="#000000" fill-rule="evenodd" fill="#d7d7d7" r=".30086353" cy="579.4173" cx="-7414.5552"/>
   </g>
   <path style="font-variation-settings:normal" stroke-width=".25" stroke-linejoin="round" stroke-linecap="round" stroke="#000" stop-color="#000000" fill="#006d33" d="m-7582.4672 590.78457c-2.4865 0.0144-3.9096 0.24399-6.4301 0.31316-2.3037 0.0632-4.4092-0.0192-6.7417 0.047-1.7383 0.0494-2.0717-0.0397-4.1967 1.65468 9.2112 7.20017 21.3051 10.21809 26.9085 11.66646 3.5644 0.92136 7.4506 1.60689 10.2143 5.38882v-17.69759c-3.0122-0.59661-6.2756-1.23772-9.4805-1.32395-1.5195-0.0409-2.7344 0.35958-4.1827 0.23874-2.7242-0.2273-4.5992-0.29598-6.0911-0.28732z"/>
   <g stroke-width=".25" stroke="#000" fill="#d7d7d7">
    <path style="font-variation-settings:normal" stop-color="#000000" fill-rule="evenodd" d="m-7571.476 559.86449c-3.9145 1e-5 -7.0879 3.17339-7.0879 7.08794 0 3.91456 3.1734 7.08794 7.0879 7.08794 0.3003-7e-5 0.6003-0.0192 0.8982-0.0574-2.6891-0.45166-4.704-3.46308-4.7041-7.03058 0-3.56703 2.0144-6.57828 4.703-7.03057-0.2975-0.0381-0.5971-0.0573-0.8971-0.0574z"/>
    <path style="font-variation-settings:normal" stroke-linejoin="round" stroke-linecap="round" stop-color="#000000" d="m-7555.1047 556.07722c2.7164-0.63725 5.4327-0.68408 8.1491-0.79084-2.056-2.1101-4.3617-3.61842-5.9142-7.53018 5.782 4.53555 14.3928 8.38027 16.8812 8.75797 0.4646 0.0705 1.7642 0.22804 2.616-0.12587 0.5808-0.24131 0.9143-0.90253 0.7861-1.2768-0.5858-1.70992-5.4772-4.59418-7.561-6.52174 4.3478 1.37175 8.0669 1.72198 11.6907 1.91719 2.0275 0.25775 5.2328 2.12425 5.6005 4.91544 0.2085 1.58212-0.6222 3.58196-2.1277 6.03599 0.7565 0.99322 1.7553 1.70225 2.8877 1.94823 1.5978 0.34709 1.9035 1.17275 2.2913 2.51821 0.3774 1.30925 1.0208 3.45652 1.3884 4.11247l-2.7507-1.37538-2.3038-0.13753-2.8195-1.53011c-0.5279-0.28646-0.9979-0.3524-1.5989 0.51577-1.8381 2.65514-3.1298 4.05852-5.2436 3.5244-3.0008-1.04122-7.3416-2.30607-9.472-2.22022-2.4283 0.0979-5.3074 0.86157-8.3047 1.94514 0.7592-2.4764 5.1109-4.29675 9.49-4.91697 2.1114-0.29904 5.2689-1.77734 5.089-2.40691-0.323-1.1296-3.2611-3.82492-6.9296-5.2125-3.2455-1.22757-6.869-1.64097-11.8443-2.14576z"/>
    <path style="font-variation-settings:normal" stroke-linejoin="round" stroke-linecap="round" stop-color="#000000" d="m-7544.6862 599.3328c-1.3636-2.44839-4.2482-5.3197-6.6838-8.06868-0.7373-0.83211-1.399-1.82493-1.9994-2.6195-1.9842-2.62618-3.0598-4.34581-0.8758-6.29772 1.5273-0.58515 2.5036-0.94133 2.4289-1.14008-0.4928-1.30992-2.706-2.44358-4.7385-2.19781-1.6068 0.19428-1.3238-0.18141-1.6102-1.23523l-2.8023-0.17193 3.5588-2.09744c0.7942-0.46806 1.6349-0.38485 2.1318 0.0344l1.1003 0.92838c2.5665-1.41213 4.3461-0.97255 6.1548-0.60173 0.7097-2.861 1.9773-4.80942 2.905-5.31328 3.2603-1.7706 8.376 2.14979 14.8374 5.15856l-7.5502-0.98985c-2.9505-0.38682-6.4742 3.24693-4.4843 4.35952 6.1842 3.45766 6.9472 8.74672 15.7136 11.27808-4.3234 1.09942-7.8976-1.23619-11.1062-4.72786-0.3091-0.3364-1.3108-0.29471-0.6532 0.32665 2.1213 2.00447 3.5807 4.29935 4.4012 9.18064-7.5977-14.99882-16.1201-11.35273-14.1664-6.84249l3.2321 7.46141c0.7444 1.71854 0.7033 2.99491 0.2064 3.57596z"/>
   </g>
   <path style="font-variation-settings:normal" stroke-width=".25" stroke-linejoin="round" stroke-linecap="round" stroke="#000" stop-color="#000000" fill="#f6b801" d="m-7605.0922 568.16819c0.2431-0.43764 1.3372-1.16705 1.0697-1.28861-0.2674-0.12157-0.6078 0.0972-1.0211 0-0.4133-0.0973-0.6922-0.24635-0.6922-0.24635s0.8252-0.77365 1.0917-0.89399c0.2665-0.12035 0.6877-0.30087 0.4642-0.41262-0.2235-0.11174-2.1318-0.10315-2.5788-0.60172s-0.4728-0.47279-0.4728-0.47279c0.3343-0.46556 1.3746-1.05293 2.2952-0.98855 0.567 0.0397 0.8338 0.36963 0.8596 0.23209 0.026-0.13753-0.3525-0.35243-0.6619-0.85101-0.3095-0.49857-0.3439-0.62751-0.3439-0.62751s0.4814-0.0774 1.1433 0.11175c0.6619 0.18911 1.0917 0.48997 1.1175 0.24928 0.026-0.24069-0.3524-0.8682-0.6447-1.61606s-0.6275-2.19201-0.6275-2.19201l1.6504 1.04872s0.043-0.0688 0.2923 0.25789c0.2493 0.32665 0.404 0.58453 0.6963 0.58453 0.2922 0 0.3954 0.043 0.3954 9e-3 0-0.0344-0.3782-2.38112-0.3782-2.38112s2.7249 2.4155 2.9055 2.23499c0.1805-0.18052-0.7135-1.49572-0.4728-2.29516s0.7822-0.91119 0.7822-0.91119 0.1504 1.36994 0.3009 1.7622c0.2837 0.73927 1.1175 1.29801 1.255 1.04013s0.069-1.04872 0.1204-1.06591c0.052-0.0172 0.6016 1.19487 0.9369 1.0745 0.3352-0.12034 0.443-1.30478 0.9714-2.01148 0.092-0.12263 0.3524 0.6533 0.3009 1.5387-0.052 0.8854-0.1978 1.69343-0.1978 1.69343 0.055-0.0491 0.8161 0.30911 1.9084-0.16332 1.2843-0.55548 1.4871-0.83382 1.4871-0.83382s0.3524 0.66189-0.5759 1.79658l-0.9284 1.13469s0.3868 0.27507 0.9456 0.0688c0.5587-0.20631 1.6676-0.80804 1.6676-0.80804s0.1805 0.9026-0.3352 1.5559c-0.5158 0.6533-0.8683 0.8682-0.6963 1.16047 0.1719 0.29226 0.8217 0.33097 1.1776 0.24929 0.5244-0.12035 1.1003-0.85961 1.2293-0.73067 0.1289 0.12894 0.01 1.60755-0.9198 2.00289-0.8435 0.35973-1.809-0.2916-1.8482 0.32665-0.032 0.51279 1.3125 0.33169 1.8998 1.28942-0.1462 0.15473-1.8654 0.55015-1.8998 0.76505-0.034 0.21491 0.614 0.46639 1.5559 0.61892 0.5524 0.0894 1.1468 0.57904 1.2637 0.60172-0.3955 0.19856-0.9419 0.5867-1.874 0.47279-0.7218-0.0882-1.4699-0.34384-1.384-0.12034 0.086 0.22349 0.4556 0.38682 0.5846 0.6619 0.1289 0.27507 0.1461 0.45559 0.1461 0.45559s-0.5759 0-0.8768-0.17192-0.8596-0.26648-0.7049-9e-3c0.1547 0.25788 0.9494 0.9311 1.1948 1.59887 0.3697 1.00576-0.5243 1.65905-0.5243 1.65905-0.01-3e-3 -0.2302-0.73827-0.6017-1.25503-0.6532-0.90859-1.5473-1.36678-1.5817-1.17767-0.034 0.18912 0.2235 1.1175 0.2493 1.36678 0.026 0.24929-0.1719 0.25789-0.1719 0.25789-0.2624 0.0463-1.0568-0.4681-1.1089-0.33525-0.1777 0.45325 0.71 0.96465 0.2837 2.45848-0.2798 0.98031-1.0402 1.05732-1.0402 1.05732 0.012-0.74042 0.1153-1.64526-0.093-2.24358-0.4151-1.33984-0.8636-1.42872-0.9198-1.1089-0.022 0.12551-0.1366 1.0491-0.533 1.47853 0 0-0.3696-0.35244-0.4814-0.92837-0.1117-0.57594-0.3168-0.65327-0.4126-0.53296-0.2096 0.26328 0.01 1.44171-0.8596 1.91693-0.8012 0.43946-0.4589 0.19094-1.1347 0.24069 0.9874-1.61808 0.2312-2.81823-0.1547-3.27512-0.2493 0.18912-0.5244 0.80804-0.7221 1.09171s-0.5243 0.72207-0.5243 0.72207-0.3697-0.10315-0.2751-0.81663c0.095-0.71347 0.765-1.71922 0.3696-1.65904-0.3954 0.0602-0.9628 1.16906-1.4098 1.49571s-1.1518 0.48998-1.1518 0.48998c0.057-0.0507 0-0.70614 0.5329-1.55589 0.7639-1.22354 1.2379-1.49572 1.1261-1.67624-0.2703-0.10584-0.2113-0.0551-0.6189 0.0344-1.8178 0.39914-1.6075 0.26648-1.6075 0.26648s-0.01-0.2149 0.4212-0.60172c0.4299-0.38683 0.7307-0.57594 0.5932-0.77365-0.1376-0.19771-0.5096-0.0647-0.7479 9e-3 -0.8077 0.24821-1.3408 0.97973-1.8825 0.46419-0.5588-0.49857-1.3027-1.24037-1.3027-1.24037s2.4667-0.29429 2.7099-0.73193z"/>
   <g transform="translate(-264.58344)">
    <path style="font-variation-settings:normal" stop-color="#000000" fill="#f6b701" d="m-7282.9036 515.57239-0.3736 9.41601 5.293 5.93713 0.749 3.51514 7.0871 3.37937-0.1818-5.40415 3.2881-6.44726 4.6592-5.71851 0.7929-6.33105-5.2626-5.74793"/>
    <g stroke-width=".2" stroke="#000" fill-rule="evenodd" fill="#f5b804">
     <circle style="font-variation-settings:normal" stop-color="#000000" r="1.9569708" cy="512.1615" cx="-7262.8711"/>
     <circle style="font-variation-settings:normal" stop-color="#000000" r="1.9569708" cy="506.07877" cx="-7259.8906"/>
     <circle style="font-variation-settings:normal" stop-color="#000000" r="1.9569708" cy="510.55539" cx="-7264.3936"/>
     <circle style="font-variation-settings:normal" stop-color="#000000" r="1.9569708" cy="509.57001" cx="-7260.6885"/>
     <circle style="font-variation-settings:normal" stop-color="#000000" r="1.9569708" cy="508.17114" cx="-7266.8525"/>
     <circle style="font-variation-settings:normal" stop-color="#000000" r="1.9569708" cy="507.42322" cx="-7263.0664"/>
     <circle style="font-variation-settings:normal" stop-color="#000000" r="1.9569708" cy="513.91907" cx="-7263.5469"/>
     <circle style="font-variation-settings:normal" stop-color="#000000" r="1.9569708" cy="513.74902" cx="-7260.2246"/>
     <circle style="font-variation-settings:normal" stop-color="#000000" r="1.9569708" cy="521.92432" cx="-7277.6914"/>
     <circle style="font-variation-settings:normal" stop-color="#000000" r="1.9569708" cy="529.72668" cx="-7275.3301"/>
     <circle style="font-variation-settings:normal" stop-color="#000000" r="1.9569708" cy="528.13916" cx="-7280.5654"/>
     <circle style="font-variation-settings:normal" stop-color="#000000" r="2.2418969" cy="520.89551" cx="-7282.562"/>
     <circle style="font-variation-settings:normal" stop-color="#000000" r="1.9569708" cy="524.9884" cx="-7283.2773"/>
     <circle style="font-variation-settings:normal" stop-color="#000000" r="1.9569708" cy="524.91553" cx="-7280.582"/>
     <circle style="font-variation-settings:normal" stop-color="#000000" r="2.1943479" cy="526.21155" cx="-7274.501"/>
     <circle style="font-variation-settings:normal" stop-color="#000000" r="1.9569708" cy="527.43994" cx="-7277.626"/>
     <circle style="font-variation-settings:normal" stop-color="#000000" r="1.9569708" cy="524.62402" cx="-7278.041"/>
     <circle style="font-variation-settings:normal" stop-color="#000000" r="2.1943479" cy="524.3811" cx="-7271.2275"/>
     <circle style="font-variation-settings:normal" stop-color="#000000" r="2.1943479" cy="524.3811" cx="-7271.2275"/>
     <circle style="font-variation-settings:normal" stop-color="#000000" r="1.9569708" cy="517.09412" cx="-7261.6904"/>
     <circle style="font-variation-settings:normal" stop-color="#000000" r="1.9569708" cy="529.8429" cx="-7268.1152"/>
     <circle style="font-variation-settings:normal" stop-color="#000000" r="1.9569708" cy="528.59021" cx="-7270.7617"/>
     <circle style="font-variation-settings:normal" stop-color="#000000" r="2.1943479" cy="525.96863" cx="-7267.042"/>
     <circle style="font-variation-settings:normal" stop-color="#000000" r="2.1943479" cy="522.33728" cx="-7269.3789"/>
     <circle style="font-variation-settings:normal" stop-color="#000000" r="2.1943479" cy="522.8717" cx="-7265.1445"/>
     <circle style="font-variation-settings:normal" stop-color="#000000" r="1.9569708" cy="520.25012" cx="-7262.3828"/>
     <circle style="font-variation-settings:normal" stop-color="#000000" r="1.9569708" cy="530.68787" cx="-7274.2549"/>
     <circle style="font-variation-settings:normal" stop-color="#000000" r="1.9569708" cy="537.56714" cx="-7272.0889"/>
     <circle style="font-variation-settings:normal" stop-color="#000000" r="1.9569708" cy="540.29114" cx="-7274.0352"/>
     <circle style="font-variation-settings:normal" stop-color="#000000" r="1.9569708" cy="540.04822" cx="-7270.8838"/>
     <circle style="font-variation-settings:normal" stop-color="#000000" r="1.9569708" cy="535.8634" cx="-7270.1836"/>
     <circle style="font-variation-settings:normal" stop-color="#000000" r="1.9569708" cy="537.04321" cx="-7274.6377"/>
     <circle style="font-variation-settings:normal" stop-color="#000000" r="1.9569708" cy="534.73218" cx="-7273.335"/>
     <circle style="font-variation-settings:normal" stop-color="#000000" r="1.9569708" cy="534.44067" cx="-7277.2354"/>
     <circle style="font-variation-settings:normal" stop-color="#000000" r="1.9569708" cy="530.92554" cx="-7277.9844"/>
     <circle style="font-variation-settings:normal" stop-color="#000000" r="1.9569708" cy="532.41589" cx="-7270.3301"/>
     <circle style="font-variation-settings:normal" stop-color="#000000" r="2.1943479" cy="518.23956" cx="-7276.6523"/>
    </g>
    <path style="font-variation-settings:normal" stroke-width=".2" stroke-linejoin="round" stroke-linecap="round" stroke="#000" stop-color="#000000" fill="#006d33" d="m-7262.8747 502.90174c-0.1857-0.12429-0.3657-0.25531-0.361-0.60173-0.3541 0-2.0705 1.39471-3.9425 2.27247-1.1547 0.54146-2.2762 0.7943-2.6866 0.67539-0.7147-0.20706-1.2437-0.98745-0.8323-1.58108 0.6385-0.92111 3.2782-1.92936 3.8338-2.4155 0.7565-0.66192 0.7995-1.36681 0.5416-1.59028-0.3952-0.34246-0.7994-0.27511-0.8854-0.91118-0.086-0.63611-0.1118-1.67624-0.2064-2.06307-0.1149-0.47029-0.1867-0.65542-0.4469-0.76506-0.2303-0.097-0.5145 0.11904-0.813-0.24953-0.5228-0.64542-0.7449-1.22771-0.9528-1.03865-0.1451 0.13195-0.1597 0.44581-0.2285 0.51453-0.029 0.0292-0.1062-0.036-0.1971-0.0427-0.1237-9e-3 -0.273 0.0242-0.3625-0.0596-0.2104-0.19699 0.015-0.50696-0.2313-0.91204-0.2952-0.48467-2.1178-1.51309-2.9701-0.89817-0.3404 0.24563-0.029 1.17496-0.1434 1.33041-0.3861 0.52522-2.3364-0.75887-2.4395-0.56978-0.1032 0.18914 0.018 0.54008-0.2227 0.55727-0.2407 0.0172-2.6957-0.27418-2.7475 9.1e-4 -0.052 0.27511 0.1012 0.78079-0.2235 0.95895-0.1484 0.0814-0.9417-0.0738-1.0792 0.23565-0.1376 0.30946-0.2348 0.86759-0.8021 0.8504-0.5673-0.0172-2.7475-0.50778-3.0741-0.47339-0.3267 0.0344-0.6667 0.13962-0.7183 0.36312-0.052 0.2235 0.1507 0.95477-0.1414 1.17827-0.2922 0.2235-0.7824-0.0456-1.0143 0.094-0.1151 0.0693-0.1094 0.37406-0.5686 0.60382-0.4139 0.20715-1.993 0.29018-2.165 0.37614-0.1719 0.086-0.3501 0.32147-0.5602 0.42563-0.3432 0.17016-1.0893 0.055-1.1074 0.30738-0.021 0.29428 0.2625 0.40605 0.424 0.56022 0.2687 0.25665 0.4872 0.25407 0.8998 0.6323 0.4126 0.37822 0.3735 0.29312 0.6877 0.32959 0.5294 0.0615 0.7389-0.13171 1.1448 0.10437 0.3836 0.22313 0.2733 1.06175 0.6687 1.09613 0.3955 0.0344 0.6429 0.17192 0.6429 0.36104 0 0.18911 0.016 0.39924 0.016 0.39924s0.3593 0.3685 0.9095 0.47166c0.5501 0.10315 1.1204-0.44407 1.4278-0.13669 0.3439 0.34381 0.2464 0.98054 0.7929 1.0621 0.536 0.08 1.7015-0.37583 2.5877-0.29141 0.8421 0.0802 1.2306 0.87364 0.8353 1.64125-0.6198 1.20366-1.788 0.96276-2.6132 0.6705-0.8252-0.29227-2.0158-0.77111-2.5617-0.61315-0.3036 0.0878-0.4599 0.51428-0.7092 0.51429-0.7394 3e-5 -2.0455-0.3601-3.1934 0.25359-0.6464 0.34555-0.8252 0.71347-0.7564 0.81663 0.1627 0.39049 1.8576 9e-3 2.0802 0.61032 0.02 0.0534-0.034 0.26393-0.1388 0.31467-0.4048 0.19681-1.3333 0.21488-1.4042 0.34293-0.2193 0.39606-0.053 0.78893-0.3179 0.91978-0.5501 0.39542-1.4441 0.79943-1.4269 1.3152 0.017 0.51577 0.4492 1.18631 0.3116 1.47858-0.1375 0.29226-0.5136 0.7693-0.6168 1.07876-0.1031 0.30945-0.7597 0.93377-1.1379 1.67303-0.3782 0.73927-0.5813 1.18087-0.8048 1.71383s-1.7395 2.28465-1.5676 2.47377c0.1719 0.18911 1.5064 0.029 1.963 0.0615 0.3783 0.0269 0.4058 0.63437 0.984 0.50655 0.5456-0.1206 0.843-0.49517 1.2309-0.25665 0.3377 0.20761-0.427 1.04961 0.2018 1.19148 0.4842 0.10922 1.273-0.38564 1.756-0.41575 0.1463-9e-3 0.713-0.16478 0.6674 0.22037-0.056 0.46942-0.035 0.99519 0.033 1.09649 0.095 0.14282 0.6617 0.0839 0.8936-0.0671 0.7346-0.47818 1.3524-0.48414 1.6557-0.42667 0.34 0.0644 0.5776 0.42788 1.061 0.44891 0.4602 0.02 1.52-0.65521 1.9498-0.48329s0.9242 0.68445 1.4988 0.96675c0.3244 0.15938 0.8616 0.0517 1.15-0.10023 0.2957-0.15579 1.0693-0.86961 0.9819-1.27917-0.1204-0.34384 0.4876-4.91903 2.7679-4.24647 1.2201 0.35988 0.8515 1.63323 0.447 2.52776-0.3032 0.67051-1.2035 1.1769-1.0831 1.55513 0.1203 0.37823 0.4328 0.5571 0.2609 0.95252-0.172 0.39542-1.1641 1.42965-1.2763 2.08198-0.034 0.19953-0.1738 0.58707 0 0.62935 0.2356 0.0562 0.484-0.0855 0.6866 0.16605 0.1608 0.19969 0.4055 0.92787 0.6126 1.53517 0.096 0.28159 0.1936 0.4847 0.1936 0.69165 0 0.6533 0 1.1557 0.2063 1.10412 0.2063-0.0516 0.8045-0.37626 1.1175-1.1003 0.3086-0.71391 0.7848-1.41345 0.9234-1.42001 0.2347-0.0111 0.3397 1.42001 0.5804 1.33405 0.2407-0.086 0.4551-0.2876 0.6371-0.894 0.2103-0.70114 0.3323-1.41384 0.9365-1.37537 0.4119 0.0262 0.3954 0.79084 0.6189 0.79084s1.0315-1.35819 1.3582-1.82237c0.3266-0.46419 0.6447-0.91979 0.9026-0.91119 0.4467 0.0149 0.8059 0.40655 0.9885 0.41262 0.2579 9e-3 0.4722-0.19017 0.4722-0.31052 0-0.12034 0.011-0.47515 0.044-0.96171 0.015-0.23059 0.1883-0.2663 0.49-0.61032 0.2293-0.26148 0.3094-0.57594 0.636-0.91979 0.1042-0.10966 0.293-0.0749 0.4739-0.0812 0.2311-8e-3 0.429 0.0108 0.5062 0.18435 0.1375 0.30946 0.447 1.01434 0.6189 0.89399 0.1719-0.12034 0.5955-0.94707 0.8715-1.78407 0.1498-0.4542 0.2986-1.92126 0.2553-2.22468 0 0-0.8661-1.35538-0.9482-2.12742-0.025-0.23472-0.066-0.58778 0.1458-0.69294 0.2727-0.13567 0.5444 0.50318 0.8267 0.38902 0.1165-0.0471 0.1348-0.22687 0.1337-0.35255 0-0.13092-0.1458-0.17019-0.1458-0.3647s0.4887-1.3481 0.1458-1.65331c-0.3093-0.27523-1.2887 0.26743-1.3615-0.74156-0.026-0.35686 0.036-0.56613-0.1094-0.79019-0.3075-0.47305-0.8569-0.82549-1.4102-0.93607-1.3907-0.27797-2.9503-1.05014-3.0392-2.32193-0.066-0.94544 2.2677-2.59558 3.6957-3.35526 0.7003-0.37254 2.3206-0.94787 2.3581-1.07895"/>
    <g stroke-width=".2" stroke-linejoin="round" stroke-linecap="round" stroke="#000" fill="none">
     <path style="font-variation-settings:normal" stop-color="#000000" d="m-7292.4396 518.32563c6.2872-4.26008 12.0433-6.15257 17.5973-8.6738 2.385-1.08264 3.578-2.37994 5.5978-3.4343"/>
     <path style="font-variation-settings:normal" stop-color="#000000" d="m-7268.5638 509.67004c-0.2693 9.25126-4.3891 7.19694-6.516 16.0955"/>
     <path style="font-variation-settings:normal" stop-color="#000000" d="m-7286.8961 499.94466c5.4604-0.14254 11.9789-3.30805 15.0743 3.30663"/>
     <path style="font-variation-settings:normal" stop-color="#000000" d="m-7288.0347 509.46668c1.11 3.27002 4.3369 0.72558 5.7598 3.16952 1.1218 1.9268-1.6643 3.11286-1.5951 5.93256"/>
     <path style="font-variation-settings:normal" stop-color="#000000" d="m-7278.824 506.67948c2.626 1.39062 4.262 3.32379 2.6501 8.63128"/>
    </g>
   </g>
   <g transform="translate(-158.75004)">
    <path style="font-variation-settings:normal" stroke-width=".1" stroke-linejoin="round" stroke-linecap="round" stroke="#000" stop-color="#000000" d="m-7431.168 502.64385c-0.1503-0.1807-0.447-0.19564-0.447-0.55014v-1.01434c0.1491-0.13697 0.4336-0.26259 0.447-0.41262l0.1032-1.15187c0.022-0.24526 0.4621-0.28284 0.4642-0.48139l0.034-3.16336 0.5673-0.0344c-0.071-3.06999 4.8313-3.26241 4.917 0.0344h0.447l0.069 0.70488-0.069 2.25218c0.7987 0.19504 0.014 1.38508 0.5628 2.00313 0.4297 0.48395 0.041 1.46711-0.1158 1.72757"/>
    <g stroke-width=".15" stroke-linejoin="round" stroke-linecap="round" stroke="#000" fill="#f6b801">
     <path style="font-variation-settings:normal" stop-color="#000000" d="m-7436.7861 521.8997c-0.7537-0.74561-2.6319-0.68391-2.3706-2.09095l2.8812-15.51198c0.1538-0.82802 1.8257-1.31251 2.0423-1.41018"/>
     <path style="font-variation-settings:normal" stop-color="#000000" d="m-7438.1856 520.66128h2.7508l-2.1318-5.63904"/>
     <path style="font-variation-settings:normal" stop-color="#000000" d="m-7436.8833 518.1797c-0.7199 9.88582-0.8398 16.78337-1.2643 25.3103l5.9325-0.0243 5.8352-0.29177 6.3701 0.3404c1.325 6e-3 2.5507 0.0541 3.9387-1.2643l-0.097-27.13381-5.7379-8.46108-12.3026-3.74427"/>
     <path style="font-variation-settings:normal" stop-color="#000000" d="m-7434.0906 534.48381c0.1127 0.65869-4.9714 2.57871-4.9736 4.65862 0 1.3625 2.6066 2.83373 5.1284 4.33032"/>
    </g>
    <path style="font-variation-settings:normal" stroke-width=".15" stroke-linejoin="round" stroke-linecap="round" stroke="#000" stop-color="#000000" fill="none" d="m-7437.6627 532.30683c-0.1289 0.64001 3.8312 1.72372 3.5721 2.17698l-0.1669-16.66877c-2.3635-0.20106-4.7647 1.2496-4.8992 1.99371"/>
    <path style="font-variation-settings:normal" stroke-width=".15" stroke-linejoin="round" stroke-linecap="round" stroke="#000" stop-color="#000000" fill="none" d="m-7436.0823 503.90726-0.6989 13.59065 2.5237 0.28275-0.2578-14.7889"/>
    <g stroke-width=".15" stroke-linejoin="round" stroke-linecap="round" stroke="#000">
     <path style="font-variation-settings:normal" stop-color="#000000" fill="#006d33" d="m-7432.3428 543.46622 12.2357 0.0238-0.049-3.96307-0.6807-0.70509 0.097-27.98477 2.1396 3.30662-2.2612 3.86584 1.0698 2.33409c1.3289-1.63135 3.0307-3.1376 3.6472-5.03291-0.4319-2.49656-0.2463-5.25039-2.1154-7.14813-0.013-2.82399-0.8362-4.89066-2.1396-5.59209l-7.6831-0.46195-1.4588 0.31607-3.7442 0.12157-0.9381 0.32521 2.1294 10.59152-1.2156 0.0243z"/>
     <path style="font-variation-settings:normal" stop-color="#000000" fill="#f6b801" d="m-7433.2855 502.5462s2.7134 3.16031 2.7134 3.09154c0-0.0688-0.4594-3.16473-0.4594-3.16473-0.7345-0.0935-1.4743-0.14972-2.254 0.0732"/>
     <path style="font-variation-settings:normal" stop-color="#000000" fill="#f6b801" d="m-7423.1534 505.68097c0.1547-0.10315 2.754-3.11046 2.754-3.11046-0.9099-0.16967-1.6365-0.23069-2.114-0.12711z"/>
    </g>
    <g stroke-width=".15" stroke-linejoin="round" stroke-linecap="round" stroke="#000" fill="none">
     <path style="font-variation-settings:normal" stop-color="#000000" d="m-7420.7398 510.83709-1.1421-2.94193c-1.7365 1.0355-3.0763 1.37404-5.3004 0.0729-1.5816 1.05622-3.1523 2.1423-6.1647-0.73636"/>
     <path style="font-variation-settings:normal" stop-color="#000000" d="m-7421.8819 507.89516-1.4345 5.83522"/>
     <path style="font-variation-settings:normal" stop-color="#000000" d="m-7426.9903 516.12254 0.5246 27.35558"/>
     <path style="font-variation-settings:normal" stop-color="#000000" d="m-7420.1561 539.52695-0.026-1.86258-0.6508 0.0227"/>
     <path style="font-variation-settings:normal" stop-color="#000000" d="m-7420.1821 537.66437 2.7507-1.83956-0.052-7.42704"/>
     <path style="font-variation-settings:normal" stop-color="#000000" d="m-7431.2539 538.71309c0.1005-2.7972 0.1156-5.69189-0.1032-8.85398"/>
     <path style="font-variation-settings:normal" stop-color="#000000" d="m-7428.6407 516.26008-0.5845 24.0347"/>
     <path style="font-variation-settings:normal" stop-color="#000000" d="m-7423.5518 540.56985-1.1003-24.72238"/>
    </g>
    <g stroke-width=".15" stroke="#000">
     <path style="font-variation-settings:normal" stop-color="#000000" fill-rule="evenodd" fill="#825794" d="m-7430.3793 543.48406a1.0951484 1.0951484 0 0 1 1.0827-1.06083 1.0951484 1.0951484 0 0 1 1.1055 1.03697"/>
     <path style="font-variation-settings:normal" stop-color="#000000" fill-rule="evenodd" fill="#825794" d="m-7424.4716 543.45977a1.0951484 1.0951484 0 0 1 1.0827-1.06083 1.0951484 1.0951484 0 0 1 1.1056 1.03697"/>
     <path style="font-variation-settings:normal" stroke-linejoin="round" stroke-linecap="round" stop-color="#000000" fill="none" d="m-7420.9042 507.45767c0.6304 0.69676 1.2607 1.17145 1.8911 1.40976"/>
    </g>
    <g stroke-width=".15" stroke="#000" fill="#f6b801">
     <rect style="font-variation-settings:normal" stroke-linecap="round" stop-color="#000000" opacity=".98" fill-rule="evenodd" ry="0" height=".61616123" width="7.7809215" y="513.7688" x="-7431.0835"/>
     <circle style="font-variation-settings:normal" stop-color="#000000" fill-rule="evenodd" r=".55273443" cy="514.11938" cx="-7426.9375"/>
     <path style="font-variation-settings:normal" stroke-linejoin="round" stroke-linecap="round" stop-color="#000000" d="m-7428.8814 509.67547 0.6189 2.81952"/>
     <path style="font-variation-settings:normal" stroke-linejoin="round" stroke-linecap="round" stop-color="#000000" d="m-7425.357 509.67547-0.5501 2.71636"/>
     <g fill-rule="evenodd">
      <rect style="font-variation-settings:normal" stroke-linecap="round" stop-color="#000000" opacity=".98" ry="0" height=".61616123" width="7.1963868" y="505.86554" x="-7430.499"/>
      <circle style="font-variation-settings:normal" stop-color="#000000" r=".55273443" cy="506.06149" cx="-7430.2681"/>
      <circle style="font-variation-settings:normal" stop-color="#000000" r=".55273443" cy="506.06149" cx="7423.5337" transform="scale(-1,1)"/>
     </g>
    </g>
    <g stroke-width=".15" stroke="#000">
     <path style="font-variation-settings:normal" stroke-linejoin="round" stroke-linecap="round" stop-color="#000000" fill="#f4b7b4" d="m-7421.1647 518.87268c-0.4697-0.0751-0.9736-0.0955-1.7627 0.34039l0.7537 1.20351"/>
     <path style="font-variation-settings:normal" stroke-linejoin="round" stroke-linecap="round" stop-color="#000000" fill="#f6b801" d="m-7434.6064 501.96845 3.5588 19.00229c0.7324 0.39323 1.4412 0.23378 1.2894-0.4298l-4.3324-18.9409"/>
     <circle style="font-variation-settings:normal" stop-color="#000000" fill-rule="evenodd" r="1.7652768" cy="500.37811" cx="-7434.4922"/>
    </g>
    <g stroke-width=".15" stroke="#000" fill-rule="evenodd" fill="#f6b801">
     <circle style="font-variation-settings:normal" stop-color="#000000" r=".44304773" cy="499.39264" cx="-7434.6631"/>
     <circle style="font-variation-settings:normal" stop-color="#000000" r=".29319146" cy="499.30762" cx="-7433.7754"/>
     <circle style="font-variation-settings:normal" stop-color="#000000" r=".29319146" cy="499.69629" cx="-7435.563"/>
     <circle style="font-variation-settings:normal" stop-color="#000000" r=".44304773" cy="501.45386" cx="-7434.2437"/>
     <circle style="font-variation-settings:normal" stop-color="#000000" r=".29319146" cy="501.12592" cx="-7433.356"/>
     <circle style="font-variation-settings:normal" stop-color="#000000" r=".29319146" cy="501.51459" cx="-7435.1436"/>
     <ellipse style="font-variation-settings:normal" stop-color="#000000" ry="1.5949736" rx=".4140144" cy="7408.4155" cx="-798.12128" transform="rotate(80)"/>
    </g>
    <path style="font-variation-settings:normal" stroke-width=".15" stroke-linejoin="round" stroke-linecap="round" stroke="#000" stop-color="#000000" fill="#f8b6ad" d="m-7433.2667 514.51449 0.067 2.15782c0.8207 0.18473 1.5841 0.23756 2.7048 0.86313 0.1952 0.10897 0.5493 0.0972 0.4255-0.24922 0.2259-0.25266 0.196-0.47044 0.067-0.67469 0.087-0.18292 0.1776-0.36421 0.091-0.62607 0.1025-0.51238-0.1479-0.65978-0.3526-0.71117-1.0089-0.25327-1.8151-0.32815-3.0024-0.7598z"/>
    <path style="font-variation-settings:normal" stroke-width=".15" stroke-linejoin="round" stroke-linecap="round" stroke="#000" stop-color="#000000" fill="#d8d9d3" d="m-7422.4515 521.45213 13.238 21.35271c0.3137 0.50602 0.7091 0.20937 0.447-0.24069l-12.7566-21.90287z"/>
    <g stroke-linejoin="round" stroke-linecap="round" stroke="#000" fill="none">
     <path style="font-variation-settings:normal" stroke-width=".25" stop-color="#000000" d="m-7420.7151 523.11977 7.2551 12.18927"/>
     <path style="font-variation-settings:normal" stroke-width=".15" stop-color="#000000" d="m-7414.6936 533.96545c0.41 0.4295 0.6618 0.60209 0.3438-0.15135 0.641 0.74135 0.4139 0.12616 0.3597-0.21876"/>
     <path style="font-variation-settings:normal" stroke-width=".15" stop-color="#000000" d="m-7420.845 524.04341c-0.2866-0.94259 0.1797-0.48682 0.5025-0.29767-0.17-0.83371 0.038-0.76002 0.3217-0.50511"/>
    </g>
    <path stroke-width=".25" stroke="#000" d="m-7408.9805 542.93922c-0.033-0.0227-0.081-0.0672-0.1044-0.0988-0.024-0.0316-1.2062-1.93357-2.6273-4.22658-1.421-2.29301-2.5914-4.17877-2.6008-4.19059-0.013-0.0166-0.01-0.0191 0.035-0.0111 0.029 6e-3 0.066 3e-3 0.083-7e-3 0.027-0.0152 0.065 0.0404 0.3183 0.46667 0.158 0.26617 0.3 0.50135 0.3155 0.52262 0.021 0.0289 0.045 0.0387 0.096 0.0387 0.082 0 0.1367-0.047 0.1367-0.11711 0-0.0319-0.1024-0.22079-0.3004-0.55415l-0.3005-0.50578 0.045-0.0357c0.028-0.022 0.049-0.0602 0.055-0.0997 0.01-0.0615 0.1123 0.11016 2.4864 4.18471 1.3616 2.33684 2.4969 4.2925 2.5229 4.34591 0.1146 0.23571 0.018 0.40904-0.1603 0.28782z"/>
    <path stroke-width=".25" stroke="#000" d="m-7421.6799 522.54506c-0.3664-0.59107-0.6653-1.07608-0.6642-1.0778 0.011-0.017 0.7989-0.67932 0.8032-0.67487 0.01 6e-3 1.2794 2.1915 1.2794 2.1956-1e-4 1e-3 -0.018 3e-3 -0.041 3e-3 -0.086 1e-3 -0.146 0.058-0.1657 0.15733-0.021 0.10751-0.014 0.10853-0.086-0.012-0.073-0.12257-0.095-0.14174-0.1601-0.14169-0.078 6e-5 -0.1273 0.0481-0.1271 0.12376 1e-4 0.0399 0.01 0.0559 0.079 0.17634 0.043 0.0729 0.078 0.13362 0.077 0.13498 0 1e-3 -0.029-7e-3 -0.061-0.0186-0.092-0.0333-0.1564-0.027-0.2063 0.0203-0.036 0.0341-0.05 0.0667-0.056 0.13084l-0.01 0.0574z"/>
    <g stroke-width=".15" stroke="#000" fill="#f6b801">
     <rect style="font-variation-settings:normal" stroke-linecap="round" stop-color="#000000" opacity=".98" fill-rule="evenodd" height="3.8822558" width=".88737279" y="-3379.9797" x="-6630.6558" transform="rotate(-31)"/>
     <path style="font-variation-settings:normal" stop-color="#000000" fill-rule="evenodd" d="m-7423.7905 517.01233a1.0012717 1.0012717 0 0 0-0.9865 1.00149 1.0012717 1.0012717 0 0 0 0.1411 0.51263l1.7167-1.03146a1.0012717 1.0012717 0 0 0-0.8568-0.48266 1.0012717 1.0012717 0 0 0-0.014 0z"/>
     <path style="font-variation-settings:normal" stroke-linejoin="round" stroke-linecap="round" stop-color="#000000" d="m-7422.587 525.49809c-0.9235-2.58061 2.6929-3.56936 4.109-5.53131 0.077 2.47615-3.3555 2.88608-4.109 5.53131z"/>
    </g>
    <g>
     <path style="font-variation-settings:normal" stroke-width=".15" stroke-linejoin="round" stroke-linecap="round" stroke="#000" stop-color="#000000" fill="#ecbbb1" d="m-7420.9215 518.04602c0.3663-0.73523 1.9677 1.05838 1.2321 2.05866-0.1123 0.15274-0.2463 0.27781-0.4036 0.46865-0.7637 0.92617-1.9897 1.99986-2.3603 1.27774-0.1715-0.0844-0.312-0.19629-0.2796-0.46195-0.1221-0.0658-0.3736-0.19208-0.1945-0.57137-0.2489-0.14358-0.3197-0.65798 0.073-0.80234 0.8435-0.31006 1.5831-1.26735 1.9329-1.96939z"/>
     <path style="font-variation-settings:normal" stroke-width=".0999998" stroke-linecap="round" stroke="#000" stop-color="#000000" opacity=".98" fill-rule="evenodd" fill="#f8b600" d="m-7428.0171 494.03751v2.12131h-1.753c-0.3226 0-0.4018 0.41314-0.4103 0.62529h5.0971c0.048-0.18362-0.052-0.62529-0.4103-0.62529h-1.813v-2.12131z"/>
     <path style="font-variation-settings:normal" stroke-width=".2" stroke-linejoin="round" stroke-linecap="square" stroke="#f3b8ae" stop-color="#000000" fill="none" d="m-7429.5467 497.34313h0.8631"/>
     <path style="font-variation-settings:normal" stroke-width=".2" stroke-linejoin="round" stroke-linecap="square" stroke="#f3b8ae" stop-color="#000000" fill="none" d="m-7426.9007 497.34313h0.8631"/>
    </g>
    <g stroke-linejoin="round" stroke="#000">
     <path style="font-variation-settings:normal" stroke-width=".1" stroke-linecap="round" stop-color="#000000" d="m-7430.0148 502.13287c0.06 3.18477 4.8553 4.05437 5.4098-0.23098"/>
     <path style="font-variation-settings:normal" stroke-width=".35" stroke-linecap="square" stop-color="#000000" fill="none" d="m-7428.1426 492.56553 0.3282 1.10626"/>
     <path style="font-variation-settings:normal" stroke-width=".35" stroke-linecap="square" stop-color="#000000" fill="none" d="m-7428.3493 493.0518 0.62-0.20666"/>
    </g>
    <g stroke-width=".1" stroke-linejoin="round" stroke-linecap="round" stroke="#000" fill="#835891">
     <path style="font-variation-settings:normal" stop-color="#000000" d="m-7429.6014 495.65942c0.024-0.76574 0.4711-1.13205 1.0758-1.3494v1.35547z"/>
     <path style="font-variation-settings:normal" stop-color="#000000" d="m-7426.7325 494.32825-0.01 1.37371 1.1852 6e-3c-0.1353-0.84702-0.6931-1.31795-1.1752-1.37971z"/>
     <path style="font-variation-settings:normal" stop-color="#000000" d="m-7430.4159 500.41269c-0.5942-0.13845-0.4133-0.67232-0.052-0.89524 0.3086-0.19044 0.7701-0.11948 0.7571 0.23878l-0.055 1.51959c-0.054 1.49561-2.6948-0.32017-0.7354-0.29176 0.3159 5e-3 0.4667 0.0283 0.4898-0.21305 0.019-0.19592-0.124-0.26895-0.4044-0.35832z"/>
     <path style="font-variation-settings:normal" stop-color="#000000" d="m-7425.4378 499.69545c0-0.62955 0.62-0.58075 0.7477-0.52274 0.1296 0.2736-0.4806 0.84382-0.4073 1.22783 0.073 0.38279 0.8078 0.45038 0.7598 0.86921-0.04 0.35369 0.017 0.91014-0.5166 0.98469-0.1955 0.0273-0.2437-0.44085-0.5775-1.36763z"/>
    </g>
    <path style="font-variation-settings:normal" stroke-width=".1" stroke-linejoin="round" stroke-linecap="round" stroke="#000" stop-color="#000000" fill="#f3b8ae" d="m-7429.5893 497.9388v2.88114c0.4767-1.23011 2.7947-1.41779 3.6349 0.0122l-0.012-2.96624z"/>
    <ellipse style="font-variation-settings:normal" stroke-width=".0999997" stroke="#000" stop-color="#000000" fill-rule="evenodd" fill="#f3b8ae" ry="1.6365801" rx=".99508202" cy="7427.7168" cx="501.51562" transform="rotate(90)"/>
    <g stroke="#000" fill-rule="evenodd">
     <g stroke-linecap="round" fill-opacity=".980392">
      <rect style="font-variation-settings:normal" stroke-width=".0999995" stop-color="#000000" opacity=".98" height="1.0407547" width=".47657943" y="501.62631" x="-7428.3193"/>
      <rect style="font-variation-settings:normal" stroke-width=".0999995" stop-color="#000000" opacity=".98" height="1.0407547" width=".47657943" y="501.62631" x="-7427.3706"/>
      <rect style="font-variation-settings:normal" stroke-width=".0999997" stop-color="#000000" opacity=".98" height=".87727696" width=".22636683" y="-7428.1377" x="-501.06104" transform="rotate(-90)"/>
      <rect style="font-variation-settings:normal" stroke-width=".1" stop-color="#000000" opacity=".98" height="2.054486" width=".7415601" y="497.54977" x="-7428.251"/>
     </g>
     <ellipse style="font-variation-settings:normal" stroke-width=".0999994" stop-color="#000000" ry=".37739664" rx=".28703409" cy="497.96918" cx="-7428.8589"/>
     <ellipse style="font-variation-settings:normal" stroke-width=".0999994" stop-color="#000000" ry=".37739664" rx=".28703409" cy="497.96918" cx="-7426.7173"/>
    </g>
    <path style="font-variation-settings:normal" stroke-width=".1" stroke-linejoin="round" stroke-linecap="round" stroke="#000" stop-color="#000000" fill="#f3b8ae" d="m-7429.6865 502.31522c1.1658 0.62442 2.4643 0.87549 3.8901-0.42548l0.4133 1.009c0.3054 0.74547-0.8025 1.95061-2.4307 1.60657-1.0641-0.22484-2.0582-0.99308-1.8727-2.19009z"/>
   </g>
   <circle style="font-variation-settings:normal" stroke-width=".2" stroke="#000" stop-color="#000000" fill="none" r="2.6852984" cy="484.28265" cx="-7562.3691"/>
   <path style="font-variation-settings:normal" stroke-width=".5" stroke-linecap="round" stroke="#000" stop-color="#000000" fill="none" d="m-7561.3475 483.1619a1.5165048 1.5165048 0 0 1 0.2932 1.87642 1.5165048 1.5165048 0 0 1-1.7689 0.69126 1.5165048 1.5165048 0 0 1-1.0568-1.57805"/>
   <g stroke-width=".2" stroke-linejoin="round" stroke-linecap="round" stroke="#000">
    <path style="font-variation-settings:normal" stop-color="#000000" fill="#f6b801" d="m-7573.9467 439.59874c-1.5173 1.27535-2.0547 2.06145-1.9358 2.43758 0.077 0.24507 1.545 0.21404 3.2869-0.52138 0.9481-0.40029 1.9654-1.11816 2.9119-1.8633 1.756-1.38244 3.2524-1.50019 4.2628-1.2518 1.5711 0.38622 1.9184 2.14509-0.1367 5.17162 3.0964-0.91246 5.7137-0.98816 6.1892-5.10608 2.1215 0.0336 4.3925-0.1861 5.5015 1.56449 1.3276 2.57163 9.035 3.44344 3.5222-0.47411l3.6291 2.57158 9.1175 0.19445c1.1342 0.48995 2.0264 1.37445 2.7718 2.77174 1.923-1.02867 2.9336-4.03225 0.705-6.3215 2.1452-1.61711 5.207-2.16475 8.5098-2.43134-2.1551-2.50895-4.7436-2.34615-7.0289-1.66534-2.491 0.7421-5.9909 1.82055-11.5466 1.27632 1.6902-5.05132 4.293-9.30028 7.5372-13.25083-2.7801 0.24362-4.5976 1.61272-5.0329 2.55292-3.3445-0.73879-4.1741 0.78357-2.8964 2.25402 0.979 1.1266-0.434 2.21725-2.6664 1.1624-2.0161-0.9526-2.225-2.21205-1.2144-2.65172 1.264-0.54989 1.0346-1.4647 0.3281-2.52679-0.6313-0.94893-0.9046-2.11409-1.0395-2.80884-0.4921 0.74429-1.1404 1.83388-2.0626 2.11946-1.1647 0.36067-1.7466 1.4041-0.8153 2.44455 1.0313 1.15224-0.6644 2.38141-3.3698 1.95654-2.576-0.40454-4.2249-0.43873-4.4259-2.72765 3.5763-0.2265 3.9868-5.48094-0.2917-4.91132l-2.2369-6.22424-2.2369 6.22424c-4.2785-0.56962-3.868 4.68482-0.2917 4.91132-0.201 2.28892-1.8499 2.32311-4.4259 2.72765-2.7054 0.42487-4.4011-0.8043-3.3698-1.95654 0.9313-1.04045 0.3494-2.08388-0.8153-2.44455-0.9222-0.28558-1.5705-1.37517-2.0626-2.11946-0.1349 0.69475-0.4082 1.85991-1.0395 2.80884-0.7065 1.06209-0.9359 1.9769 0.3281 2.52679 1.0106 0.43967 0.8017 1.69912-1.2144 2.65172-2.2324 1.05485-3.6454-0.0358-2.6664-1.1624 1.2777-1.47045 0.4481-2.99281-2.8964-2.25402-0.4353-0.9402-2.2528-2.3093-5.0329-2.55292 3.2442 3.95055 5.847 8.19951 7.5372 13.25083-5.5557 0.54423-9.0556-0.53422-11.5466-1.27632-2.2853-0.68081-4.8738-0.84361-7.0289 1.66534 3.3028 0.26659 6.3646 0.81423 8.5098 2.43134-2.2286 2.28925-1.218 5.29283 0.705 6.3215 0.7454-1.39729 1.6376-2.28179 2.7718-2.77174l9.1175-0.19445 4.0847-2.5286"/>
    <path style="font-variation-settings:normal" stop-color="#000000" fill="#da281f" d="m-7564.8011 430.81728 2.4276-1.27467 2.4276 1.27467-2.4276 1.13224z"/>
    <path style="font-variation-settings:normal" stop-color="#000000" fill="#da281f" d="m-7576.3543 432.12144 1.255-1.11749 1.7708 0.30946-1.2894 1.15188z"/>
   </g>
   <g stroke-width=".2" stroke="#000" fill="none">
    <g stroke-linejoin="round" stroke-linecap="round">
     <path style="font-variation-settings:normal" stop-color="#000000" d="m-7582.9415 430.37089c6.7566-2.04158 13.583-3.42668 20.568-3.32115"/>
     <path style="font-variation-settings:normal" stop-color="#000000" d="m-7582.3753 431.49431c6.8156-2.33148 13.461-3.27346 20.0018-3.36146"/>
     <path style="font-variation-settings:normal" stop-color="#000000" d="m-7580.9324 434.89122c6.2851-1.16441 12.4569-1.59234 18.5589-1.56632"/>
     <path style="font-variation-settings:normal" stop-color="#000000" d="m-7580.56 435.95167c5.626-0.90419 11.8797-1.40904 18.1865-1.42332"/>
    </g>
    <circle style="font-variation-settings:normal" stop-color="#000000" r="1.5057368" cy="421.94363" cx="-7562.3159"/>
   </g>
   <path style="font-variation-settings:normal" stroke-width=".2" stroke-linejoin="round" stroke-linecap="round" stroke="#000" stop-color="#000000" fill="#da281f" d="m-7548.3927 432.12144-1.255-1.11749-1.7708 0.30946 1.2894 1.15188z"/>
   <g stroke-width=".2" stroke-linejoin="round" stroke-linecap="round" stroke="#000" fill="none">
    <path style="font-variation-settings:normal" stop-color="#000000" d="m-7541.8055 430.37089c-6.7566-2.04158-13.583-3.42668-20.568-3.32115"/>
    <path style="font-variation-settings:normal" stop-color="#000000" d="m-7542.3717 431.49431c-6.8156-2.33148-13.461-3.27346-20.0018-3.36146"/>
    <path style="font-variation-settings:normal" stop-color="#000000" d="m-7543.8146 434.89122c-6.2851-1.16441-12.4569-1.59234-18.5589-1.56632"/>
    <path style="font-variation-settings:normal" stop-color="#000000" d="m-7544.187 435.95167c-5.626-0.90419-11.8797-1.40904-18.1865-1.42332"/>
   </g>
   <g stroke-width=".2" stroke-linejoin="round" stroke-linecap="round" stroke="#000" fill="#f6b801">
    <path style="font-variation-settings:normal" stop-color="#000000" d="m-7585.0536 472.41996c-11.3495 14.44336-24.8061 9.46172-29.8456 0.58454-0.8772-1.54528-2.2642-5.20105-3.5072-3.98859-0.5889 0.57441-1.0157 0.55553-1.2539 0.42761-0.6484-0.3482-0.2394-2.6822 0.6693-5.34458 0.3865-1.13245 1.4605-1.46034 1.3582-1.7708-0.2965-0.89984-1.4441-1.28941-2.3381-1.28941s-3.0605 1.01435-3.3182 0.086c-0.1933-0.69654 1.2207-2.35533 2.8884-2.93987 1.6227-0.56878 1.7879-0.36105 1.7707-0.72207-0.029-0.61822-1.6909-1.37918-1.7879-2.61321-0.1204-1.53011-8e-4 -4.54715 0.2231-5.63905 0.1732-0.84479 0.4813-1.5473 0.7564-1.37538s0.3376 0.35902 1.2723 1.51292c1.3925 1.7192 5.9657 3.11179 6.1376 2.59603 0.1719-0.51577-0.2639-1.1745-0.6018-1.80519-0.5157-0.96276-3.0863-2.58993-2.596-3.04302 1.3582-1.25503 3.9628 0.18033 4.1606-0.15473 0.528-0.89473-0.6218-4.74752-4.6764-6.56742l0.052-0.75646c-0.2825-0.34769-2.6053 0.35069-2.7851 0.0516-0.2794-0.46465 1.8911-2.37252 4.2637-1.85676 2.7507 0.49858 6.1146 3.50856 8.0459 6.13762 0.8654 1.17808 1.6504 2.84395 2.1662 2.88829 0.5824 0.0501 1.7365-1.97711 2.2866-1.97711 0.5502 0 0.9326 1.614 0.361 5.20924-0.1241 0.78082-0.4986 1.58168-0.4986 1.58168s1.8917-0.2847 2.9227-2.37252c0.6877-1.39257 0.8424-2.92267 1.1519-2.92267 0.7393 0 3.0348 3.03688 2.9227 5.48431-0.1116 2.43631-1.9433 3.50542-3.6791 3.66193 2.0248 0.50587 3.5176 1.73792 3.7135 3.36968 0.2064 1.71948 0.034 3.33529 0.034 3.33529s-1.4098-1.37538-2.6476-1.75361c-1.2379-0.37823-3.1119-0.0688-3.1119-0.0688s2.2828 1.75125 2.5617 3.73071c0.3611 2.56165-0.894 4.00579-0.894 4.00579-2.8265-5.27456-6.1581-3.35883-7.3681 0.8611-0.6205 2.16368 0.5956 5.25057 3.3868 6.40441 4.0578 1.67738 11.1002 0.53281 17.8042-2.9675z"/>
    <path style="font-variation-settings:normal" stop-color="#000000" d="m-7539.6934 472.41996c11.3495 14.44336 24.8061 9.46172 29.8456 0.58454 0.8772-1.54528 2.2642-5.20105 3.5072-3.98859 0.5889 0.57441 1.0157 0.55553 1.2539 0.42761 0.6484-0.3482 0.2394-2.6822-0.6693-5.34458-0.3865-1.13245-1.4605-1.46034-1.3582-1.7708 0.2965-0.89984 1.4441-1.28941 2.3381-1.28941s3.0605 1.01435 3.3182 0.086c0.1933-0.69654-1.2207-2.35533-2.8884-2.93987-1.6227-0.56878-1.7879-0.36105-1.7707-0.72207 0.029-0.61822 1.6909-1.37918 1.7879-2.61321 0.1204-1.53011 8e-4 -4.54715-0.2231-5.63905-0.1732-0.84479-0.4813-1.5473-0.7564-1.37538s-0.3376 0.35902-1.2723 1.51292c-1.3925 1.7192-5.9657 3.11179-6.1376 2.59603-0.1719-0.51577 0.2639-1.1745 0.6018-1.80519 0.5157-0.96276 3.0863-2.58993 2.596-3.04302-1.3582-1.25503-3.9628 0.18033-4.1606-0.15473-0.528-0.89473 0.6218-4.74752 4.6764-6.56742l-0.052-0.75646c0.2825-0.34769 2.6053 0.35069 2.7851 0.0516 0.2794-0.46465-1.8911-2.37252-4.2637-1.85676-2.7507 0.49858-6.1146 3.50856-8.0459 6.13762-0.8654 1.17808-1.6504 2.84395-2.1662 2.88829-0.5824 0.0501-1.7365-1.97711-2.2866-1.97711-0.5502 0-0.9326 1.614-0.361 5.20924 0.1241 0.78082 0.4986 1.58168 0.4986 1.58168s-1.8917-0.2847-2.9227-2.37252c-0.6877-1.39257-0.8424-2.92267-1.1519-2.92267-0.7393 0-3.0348 3.03688-2.9227 5.48431 0.1116 2.43631 1.9433 3.50542 3.6791 3.66193-2.0248 0.50587-3.5176 1.73792-3.7135 3.36968-0.2064 1.71948-0.034 3.33529-0.034 3.33529s1.4098-1.37538 2.6476-1.75361c1.2379-0.37823 3.1119-0.0688 3.1119-0.0688s-2.2828 1.75125-2.5617 3.73071c-0.3611 2.56165 0.894 4.00579 0.894 4.00579 2.8265-5.27456 6.1581-3.35883 7.3681 0.8611 0.6205 2.16368-0.5956 5.25057-3.3868 6.40441-4.0578 1.67738-11.1002 0.53281-17.8042-2.9675z"/>
    <path style="font-variation-settings:normal" stop-color="#000000" d="m-7624.5956 503.4347c-1.7289 0.33468-5.7752 0.53067-6.3784 4.38401-0.275-2.84701-2.2696-5.2485-4.659-4.45279-0.5695 0.18964-0.3742 0.55058-0.1892 0.67051 0.8642 0.56014 1.38 0.90227 1.5571 1.35024 0.3883 0.9823-0.8923 2.16005-1.5742 2.32888-1.6553 0.40981-3.17-0.27138-4.1351-3.18621-0.866-2.61564-1.6034-7.53412-0.1043-10.96124 0.076-0.17408-0.2262-0.48871-0.3984-0.12121-4.9904 10.65102-1.6346 26.73228 9.1507 31.53421 8.3253 3.70667 17.3636-0.0559 20.2434-5.96045 1.5671-3.21292 0.6185-9.86336-3.9366-14.26215-1.5024-1.45092-2.8381 1.21626-0.808 1.40975 0.4277 0.0408 0.8509 0.18268 0.9456 0.60174 0.8155 3.61025-1.8983 9.20996-4.1089 10.62478 0.6379-0.6379 0.5538-3.72779 0.1547-3.73071-0.3091-2e-3 -1.9857 1.6146-4.0822 2.54876-2.1644 0.96439-5.2133 0.97399-6.1128 0.21918-0.1261-0.10585 0.5571-0.0528 2-0.12845 4.0341-0.21142 5.7724-4.69366 5.2551-7.71119-1.2468 0.68186-2.3113 2.43597-3.0774 2.14902-0.3604-0.13496 1.3495-2.24102 0.2579-7.30668z"/>
   </g>
   <path style="font-variation-settings:normal" stroke-width=".2" stroke-linejoin="round" stroke-linecap="round" stroke="#000" stop-color="#000000" fill="#045ea2" d="m-7494.7186 523.4808 3.4384 3.50721c1.4734 3.56024 1.2785 7.42381 0.7565 11.34686l-8.3898-2.88829c0.795-4.79836-2.0143-8.51998-4.4357-10.65917"/>
   <g stroke-width=".2" stroke-linejoin="round" stroke-linecap="round" stroke="#000" fill="#f6b801">
    <path style="font-variation-settings:normal" stop-color="#000000" d="m-7500.1514 503.4347c1.7289 0.33468 5.7752 0.53067 6.3784 4.38401 0.275-2.84701 2.2696-5.2485 4.659-4.45279 0.5695 0.18964 0.3742 0.55058 0.1892 0.67051-0.8642 0.56014-1.38 0.90227-1.5571 1.35024-0.3883 0.9823 0.8923 2.16005 1.5742 2.32888 1.6553 0.40981 3.17-0.27138 4.1351-3.18621 0.866-2.61564 1.6034-7.53412 0.1043-10.96124-0.076-0.17408 0.2262-0.48871 0.3984-0.12121 4.9904 10.65102 1.6346 26.73228-9.1507 31.53421-8.3253 3.70667-17.3636-0.0559-20.2434-5.96045-1.5671-3.21292-0.6185-9.86336 3.9366-14.26215 1.5024-1.45092 2.8381 1.21626 0.808 1.40975-0.4277 0.0408-0.8509 0.18268-0.9456 0.60174-0.8155 3.61025 1.8983 9.20996 4.1089 10.62478-0.6379-0.6379-0.5538-3.72779-0.1547-3.73071 0.3091-2e-3 1.9857 1.6146 4.0822 2.54876 2.1644 0.96439 5.2133 0.97399 6.1128 0.21918 0.1261-0.10585-0.5571-0.0528-2-0.12845-4.0341-0.21142-5.7724-4.69366-5.2551-7.71119 1.2468 0.68186 2.3113 2.43597 3.0774 2.14902 0.3604-0.13496-1.3495-2.24102-0.2579-7.30668z"/>
    <path style="font-variation-settings:normal" stop-color="#000000" d="m-7641.7326 542.49319c1.8305 2.80733 4.5738 2.21943 5.7258 1.92076-1.3461 2.05213-0.9306 3.70294 0.3432 5.29088 1.174 1.46366 1.4514 2.1828 1.8085 5.41919 2.2512-1.59759 2.8329-4.50544 2.5287-8.10853 1.7725 0.97189 2.0242 2.87777 0.9117 5.66503 2.6089 0.66268 4.5177-1.89806 5.8717-3.16075 3.3921 2.66786 2.8497 5.83476-1.2886 4.78975 0.5494 5.36405 7.1114 4.84666 8.7226-0.58342 0.902-3.03997-0.3246-5.37991-2.6988-8.65985 2.3809-0.0308 3.5194-1.21731 4.5282-2.52444 0 0-4.4653-0.35543-4.6317-0.91175-0.156-0.52145 1.5963-0.12039 2.2126-0.51058 2.4191-1.53175 3.9873-4.41289 3.9873-4.41289-3.8136-2.05292-8.0508-4.682-12.8131-1.65331 0.1689-1.26436-0.5017-2.47542-2.3736-3.6102 0.6853 5.15882-4.1201 6.59148-5.0655 2.10032-0.3404-1.61695 0.6333-5.61328 1.8776-7.0679 0.2666-0.31158 0.7136-1.14808 0.2817-1.24781-1.2335-0.28475-3.5802 2.01558-4.122 5.08847-0.5559 3.15238-0.8691 7.62892-2.1337 9.57633-0.7415 1.14181-2.0915 1.87954-3.6726 2.6007z"/>
    <path style="font-variation-settings:normal" stop-color="#000000" d="m-7483.0144 542.49319c-1.8305 2.80733-4.5738 2.21943-5.7258 1.92076 1.3461 2.05213 0.9306 3.70294-0.3432 5.29088-1.174 1.46366-1.4514 2.1828-1.8085 5.41919-2.2512-1.59759-2.8329-4.50544-2.5287-8.10853-1.7725 0.97189-2.0242 2.87777-0.9117 5.66503-2.6089 0.66268-4.5177-1.89806-5.8717-3.16075-3.3921 2.66786-2.8497 5.83476 1.2886 4.78975-0.5494 5.36405-7.1114 4.84666-8.7226-0.58342-0.902-3.03997 0.3246-5.37991 2.6988-8.65985-2.3809-0.0308-3.5194-1.21731-4.5282-2.52444 0 0 4.4653-0.35543 4.6317-0.91175 0.156-0.52145-1.5963-0.12039-2.2126-0.51058-2.4191-1.53175-3.9873-4.41289-3.9873-4.41289 3.8136-2.05292 8.0508-4.682 12.8131-1.65331-0.1689-1.26436 0.5017-2.47542 2.3736-3.6102-0.6853 5.15882 4.1201 6.59148 5.0655 2.10032 0.3404-1.61695-0.6333-5.61328-1.8776-7.0679-0.2666-0.31158-0.7136-1.14808-0.2817-1.24781 1.2335-0.28475 3.5802 2.01558 4.122 5.08847 0.5559 3.15238 0.8691 7.62892 2.1337 9.57633 0.7415 1.14181 2.0915 1.87954 3.6726 2.6007z"/>
   </g>
  </g>
 </g>
</svg>