<?xml version="1.0" encoding="UTF-8" standalone="no"?>
<svg
   xmlns:dc="http://purl.org/dc/elements/1.1/"
   xmlns:cc="http://creativecommons.org/ns#"
   xmlns:rdf="http://www.w3.org/1999/02/22-rdf-syntax-ns#"
   xmlns:svg="http://www.w3.org/2000/svg"
   xmlns="http://www.w3.org/2000/svg"
   xmlns:sodipodi="http://sodipodi.sourceforge.net/DTD/sodipodi-0.dtd"
   xmlns:inkscape="http://www.inkscape.org/namespaces/inkscape"
   sodipodi:docname="HUN Csengőd COA.svg"
   inkscape:version="1.0.1 (3bc2e813f5, 2020-09-07)"
   id="svg8"
   version="1.1"
   viewBox="0 0 169.54253 217.43586"
   height="217.43588mm"
   width="169.54256mm">
  <defs
     id="defs2">
    <inkscape:perspective
       sodipodi:type="inkscape:persp3d"
       inkscape:vp_x="0 : 83.080398 : 1"
       inkscape:vp_y="0 : 999.99993 : 0"
       inkscape:vp_z="169.76749 : 83.080398 : 1"
       inkscape:persp3d-origin="84.883738 : 38.295235 : 1"
       id="perspective883" />
    <clipPath
       clipPathUnits="userSpaceOnUse"
       id="clipPath1335">
      <path
         style="font-variation-settings:normal;opacity:1;vector-effect:none;fill:none;fill-opacity:1;stroke:#000000;stroke-width:0.4;stroke-linecap:round;stroke-linejoin:round;stroke-miterlimit:4;stroke-dasharray:none;stroke-dashoffset:0;stroke-opacity:1;stop-color:#000000;stop-opacity:1"
         d="m -1525.8855,865.88107 h 16.2041 c 13.2116,0 23.7042,-9.26865 23.7042,-25.19686 v -82.33467 h -98.6423 v 82.33467 c 0,15.92821 10.4926,25.19686 23.7042,25.19686 h 16.204 c 5.1308,0 7.9605,4.32456 9.413,7.19304 1.4524,-2.86848 4.282,-7.19304 9.4128,-7.19304 z"
         id="path1337"
         sodipodi:nodetypes="sssccssscs"
         inkscape:transform-center-x="-24.660564"
         inkscape:transform-center-y="65.437487" />
    </clipPath>
    <clipPath
       clipPathUnits="userSpaceOnUse"
       id="clipPath2255">
      <path
         style="font-variation-settings:normal;opacity:1;vector-effect:none;fill:none;fill-opacity:1;stroke:#000000;stroke-width:0.4;stroke-linecap:round;stroke-linejoin:round;stroke-miterlimit:4;stroke-dasharray:none;stroke-dashoffset:0;stroke-opacity:1;stop-color:#000000;stop-opacity:1"
         d="m -2108.3348,754.27685 v -137.7384 h -141.796 v 137.7384 c 0,50.46542 48.2513,24.75863 70.898,45.53744 22.6467,-20.77881 70.898,4.92798 70.898,-45.53744 z"
         id="path2257"
         sodipodi:nodetypes="sccscs"
         inkscape:transform-center-x="-35.449015"
         inkscape:transform-center-y="104.51789" />
    </clipPath>
    <clipPath
       clipPathUnits="userSpaceOnUse"
       id="clipPath5465">
      <path
         style="font-variation-settings:normal;opacity:1;vector-effect:none;fill:#d7d7d7;fill-opacity:1;stroke:#000000;stroke-width:0.500001;stroke-linecap:round;stroke-linejoin:round;stroke-miterlimit:4;stroke-dasharray:none;stroke-dashoffset:0;stroke-opacity:1;stop-color:#000000;stop-opacity:1"
         d="M 150.76913,3.4564913 C 126.38438,47.171113 86.967686,9.5260725 45.922395,75.219932 L 61.558678,104.02413 C 84.447875,78.725595 111.29235,83.793525 133.26085,88.390111 c 20.16227,4.218671 36.14589,-0.104315 42.52687,-20.247723"
         id="path5467"
         sodipodi:nodetypes="cccsc" />
    </clipPath>
  </defs>
  <sodipodi:namedview
     id="base"
     pagecolor="#ffffff"
     bordercolor="#666666"
     borderopacity="1.0"
     inkscape:pageopacity="0.0"
     inkscape:pageshadow="2"
     inkscape:zoom="0.48092904"
     inkscape:cx="518.34765"
     inkscape:cy="529.66254"
     inkscape:document-units="mm"
     inkscape:current-layer="layer2"
     inkscape:document-rotation="0"
     showgrid="false"
     showborder="false"
     inkscape:window-width="1920"
     inkscape:window-height="1051"
     inkscape:window-x="-9"
     inkscape:window-y="-9"
     inkscape:window-maximized="1"
     showguides="true"
     inkscape:guide-bbox="true"
     inkscape:snap-bbox="true"
     inkscape:bbox-paths="true"
     inkscape:bbox-nodes="true"
     inkscape:snap-bbox-edge-midpoints="true"
     inkscape:snap-bbox-midpoints="true"
     inkscape:object-paths="true"
     inkscape:snap-intersection-paths="true"
     inkscape:snap-smooth-nodes="true"
     inkscape:snap-midpoints="true"
     inkscape:snap-object-midpoints="true"
     inkscape:snap-center="true"
     inkscape:snap-global="true"
     fit-margin-top="0"
     fit-margin-left="0"
     fit-margin-right="0"
     fit-margin-bottom="0"
     inkscape:lockguides="false"
     inkscape:snap-text-baseline="true" />
  <metadata
     id="metadata5">
    <rdf:RDF>
      <cc:Work
         rdf:about="">
        <dc:format>image/svg+xml</dc:format>
        <dc:type
           rdf:resource="http://purl.org/dc/dcmitype/StillImage" />
        <dc:title></dc:title>
      </cc:Work>
    </rdf:RDF>
  </metadata>
  <g
     inkscape:groupmode="layer"
     id="layer2"
     inkscape:label="RASZTER"
     transform="translate(7725.7376,-433.99906)"
     style="display:inline" />
  <g
     inkscape:label="Réteg 1"
     inkscape:groupmode="layer"
     id="layer1"
     transform="translate(7725.7376,-433.99906)">
    <g
       id="g1917">
      <path
         style="font-variation-settings:normal;opacity:1;vector-effect:none;fill:#fafcfb;fill-opacity:1;stroke:#000000;stroke-width:0.6;stroke-linecap:round;stroke-linejoin:round;stroke-miterlimit:4;stroke-dasharray:none;stroke-dashoffset:0;stroke-opacity:1;stop-color:#000000;stop-opacity:1"
         d="m -7667.1465,638.33151 c -66.9482,-16.62625 -69.3109,-74.05159 -41.6867,-124.12598 11.7134,-21.23284 5.8126,-41.38936 -9.3856,-53.61903 l 28.7856,-22.58954 c 16.4722,12.25704 34.7641,9.97296 48.4669,-3.57598 13.7028,13.54894 31.9947,15.83302 48.4669,3.57598 l 28.7856,22.58954 c -15.1982,12.22967 -21.099,32.38619 -9.3856,53.61903 27.6242,50.07439 25.2615,107.49973 -41.6867,124.12598 -10.0817,2.50373 -19.7602,7.09682 -26.1802,12.80345 -6.42,-5.70663 -16.0985,-10.29972 -26.1802,-12.80345 z"
         id="path1506"
         sodipodi:nodetypes="sscccccsscs"
         inkscape:transform-center-x="42.235082"
         inkscape:transform-center-y="-157.83686" />
      <path
         id="path1514"
         style="font-variation-settings:normal;opacity:1;vector-effect:none;fill:#f6b801;fill-opacity:1;stroke:#000000;stroke-width:2.26772;stroke-linecap:round;stroke-linejoin:round;stroke-miterlimit:4;stroke-dasharray:none;stroke-dashoffset:0;stroke-opacity:1;stop-color:#000000;stop-opacity:1"
         inkscape:transform-center-x="-39.680252"
         inkscape:transform-center-y="-71.617135"
         d="m 22.210938,659.05859 c -31.3738588,1.21047 -72.279003,13.30811 -104.390626,56.23829 -39.321372,-34.45058 -120.484602,-40.65325 -170.144532,29.19726 35.02273,47.87383 91.97496,85.47929 175.587892,106.24414 38.104063,9.46292 74.6826986,26.82226 98.947266,48.39063 C 46.475504,877.56054 83.056093,860.2012 121.16016,850.73828 204.77421,829.97315 261.72543,792.36693 296.74805,744.49219 247.08804,674.64305 165.92464,680.84651 126.60352,715.29688 94.491894,672.3667 53.584796,660.26906 22.210938,659.05859 Z"
         transform="matrix(0.26458333,0,0,0.26458333,-7646.8432,413.24019)" />
      <path
         id="rect1510"
         style="font-variation-settings:normal;opacity:0.98;vector-effect:none;fill:#006d33;fill-opacity:1;fill-rule:evenodd;stroke:#000000;stroke-width:0.600001;stroke-linecap:round;stroke-linejoin:miter;stroke-miterlimit:4;stroke-dasharray:none;stroke-dashoffset:0;stroke-opacity:1;stop-color:#000000;stop-opacity:1"
         d="m -7640.9664,434.42095 c -13.7028,13.54894 -31.9946,15.83305 -48.4668,3.57601 l -28.7853,22.58984 c 15.1982,12.22967 21.0988,32.3861 9.3854,53.61894 -0.6741,1.22212 -1.3247,2.44971 -1.9626,3.67988 h 139.6592 c -0.638,-1.23017 -1.2885,-2.45776 -1.9627,-3.67988 -11.7134,-21.23284 -5.8127,-41.38927 9.3855,-53.61894 l -28.7854,-22.58984 c -16.4722,12.25704 -34.7645,9.97293 -48.4673,-3.57601 z" />
      <path
         id="path1523"
         style="font-variation-settings:normal;opacity:1;vector-effect:none;fill:#f6b801;fill-opacity:1;fill-rule:evenodd;stroke:#000000;stroke-width:0.6;stroke-linecap:butt;stroke-linejoin:miter;stroke-miterlimit:4;stroke-dasharray:none;stroke-dashoffset:0;stroke-opacity:1;stop-color:#000000;stop-opacity:1"
         d="m -7640.9661,453.47649 c -4.8064,0.16784 -11.2342,0.75802 -12.1904,9.85625 -0.8148,7.75194 1.1032,14.45241 -6.0483,21.24108 -4.7785,4.53607 -8.2834,9.5739 -7.5824,19.5988 h 22.056 a 4.6462746,4.6462746 0 0 0 -0.8821,2.72284 4.6462746,4.6462746 0 0 0 4.6462,4.64622 4.6462746,4.6462746 0 0 0 4.6467,-4.64622 4.6462746,4.6462746 0 0 0 -0.8816,-2.72284 h 22.0566 c 0.701,-10.0249 -2.804,-15.06273 -7.5825,-19.5988 -7.1515,-6.78867 -5.2334,-13.48914 -6.0482,-21.24108 -0.9562,-9.09823 -7.3836,-9.68841 -12.19,-9.85625 z" />
      <ellipse
         style="font-variation-settings:normal;opacity:1;vector-effect:none;fill:#f6b801;fill-opacity:1;fill-rule:evenodd;stroke:#000000;stroke-width:0.6;stroke-linecap:butt;stroke-linejoin:miter;stroke-miterlimit:4;stroke-dasharray:none;stroke-dashoffset:0;stroke-opacity:1;stop-color:#000000;stop-opacity:1"
         id="circle1525"
         cx="-7640.9604"
         cy="449.64746"
         rx="3.051152"
         ry="3.8291821" />
      <path
         style="font-variation-settings:normal;opacity:1;vector-effect:none;fill:none;fill-opacity:1;stroke:#000000;stroke-width:0.6;stroke-linecap:round;stroke-linejoin:round;stroke-miterlimit:4;stroke-dasharray:none;stroke-dashoffset:0;stroke-opacity:1;stop-color:#000000;stop-opacity:1"
         d="m -7663.2261,489.11605 h 22.2598"
         id="path1529"
         inkscape:transform-center-x="11.129923"
         inkscape:transform-center-y="49.513537" />
      <path
         style="font-variation-settings:normal;opacity:1;vector-effect:none;fill:none;fill-opacity:1;stroke:#000000;stroke-width:0.6;stroke-linecap:round;stroke-linejoin:round;stroke-miterlimit:4;stroke-dasharray:none;stroke-dashoffset:0;stroke-opacity:1;stop-color:#000000;stop-opacity:1"
         d="m -7649.8163,498.66993 4.425,-9.55388 4.425,9.55388"
         id="path1533"
         sodipodi:nodetypes="ccc"
         inkscape:transform-center-x="4.4250235"
         inkscape:transform-center-y="54.290476" />
      <path
         style="font-variation-settings:normal;opacity:1;vector-effect:none;fill:none;fill-opacity:1;stroke:#000000;stroke-width:0.6;stroke-linecap:round;stroke-linejoin:round;stroke-miterlimit:4;stroke-dasharray:none;stroke-dashoffset:0;stroke-opacity:1;stop-color:#000000;stop-opacity:1"
         d="m -7658.7337,498.71993 4.425,-9.55388 4.425,9.55388"
         id="path1535"
         sodipodi:nodetypes="ccc"
         inkscape:transform-center-x="13.342423"
         inkscape:transform-center-y="54.340476" />
      <path
         style="font-variation-settings:normal;opacity:1;vector-effect:none;fill:none;fill-opacity:1;stroke:#000000;stroke-width:0.6;stroke-linecap:round;stroke-linejoin:round;stroke-miterlimit:4;stroke-dasharray:none;stroke-dashoffset:0;stroke-opacity:1;stop-color:#000000;stop-opacity:1"
         d="m -7663.2261,489.11605 4.425,9.55388"
         id="path1537"
         sodipodi:nodetypes="cc"
         inkscape:transform-center-x="20.047322"
         inkscape:transform-center-y="54.290476" />
      <path
         style="font-variation-settings:normal;opacity:1;vector-effect:none;fill:none;fill-opacity:1;stroke:#000000;stroke-width:0.6;stroke-linecap:round;stroke-linejoin:round;stroke-miterlimit:4;stroke-dasharray:none;stroke-dashoffset:0;stroke-opacity:1;stop-color:#000000;stop-opacity:1"
         d="m -7640.9663,498.66993 h -25.7549"
         id="path1539"
         inkscape:transform-center-x="12.877473"
         inkscape:transform-center-y="59.067416" />
      <path
         style="font-variation-settings:normal;opacity:1;vector-effect:none;fill:none;fill-opacity:1;stroke:#000000;stroke-width:0.6;stroke-linecap:round;stroke-linejoin:round;stroke-miterlimit:4;stroke-dasharray:none;stroke-dashoffset:0;stroke-opacity:1;stop-color:#000000;stop-opacity:1"
         d="m -7618.7065,489.11605 h -22.2598"
         id="path1543"
         inkscape:transform-center-x="-11.129875"
         inkscape:transform-center-y="49.513537"
         sodipodi:nodetypes="cc" />
      <path
         style="font-variation-settings:normal;opacity:1;vector-effect:none;fill:none;fill-opacity:1;stroke:#000000;stroke-width:0.6;stroke-linecap:round;stroke-linejoin:round;stroke-miterlimit:4;stroke-dasharray:none;stroke-dashoffset:0;stroke-opacity:1;stop-color:#000000;stop-opacity:1"
         d="m -7632.1163,498.66993 -4.425,-9.55388 -4.425,9.55388"
         id="path1545"
         sodipodi:nodetypes="ccc"
         inkscape:transform-center-x="-4.4249755"
         inkscape:transform-center-y="54.290476" />
      <path
         style="font-variation-settings:normal;opacity:1;vector-effect:none;fill:none;fill-opacity:1;stroke:#000000;stroke-width:0.6;stroke-linecap:round;stroke-linejoin:round;stroke-miterlimit:4;stroke-dasharray:none;stroke-dashoffset:0;stroke-opacity:1;stop-color:#000000;stop-opacity:1"
         d="m -7623.1989,498.71993 -4.425,-9.55388 -4.425,9.55388"
         id="path1547"
         sodipodi:nodetypes="ccc"
         inkscape:transform-center-x="-13.342375"
         inkscape:transform-center-y="54.340476" />
      <path
         style="font-variation-settings:normal;opacity:1;vector-effect:none;fill:none;fill-opacity:1;stroke:#000000;stroke-width:0.6;stroke-linecap:round;stroke-linejoin:round;stroke-miterlimit:4;stroke-dasharray:none;stroke-dashoffset:0;stroke-opacity:1;stop-color:#000000;stop-opacity:1"
         d="m -7618.7065,489.11605 -4.425,9.55388"
         id="path1549"
         sodipodi:nodetypes="cc"
         inkscape:transform-center-x="-20.047274"
         inkscape:transform-center-y="54.290476" />
      <path
         style="font-variation-settings:normal;opacity:1;vector-effect:none;fill:none;fill-opacity:1;stroke:#000000;stroke-width:0.6;stroke-linecap:round;stroke-linejoin:round;stroke-miterlimit:4;stroke-dasharray:none;stroke-dashoffset:0;stroke-opacity:1;stop-color:#000000;stop-opacity:1"
         d="m -7640.9663,498.66993 h 25.7549"
         id="path1551"
         inkscape:transform-center-x="-12.877425"
         inkscape:transform-center-y="59.067416"
         sodipodi:nodetypes="cc" />
      <path
         style="font-variation-settings:normal;opacity:1;vector-effect:none;fill:#057037;fill-opacity:1;stroke:#000000;stroke-width:0.6;stroke-linecap:round;stroke-linejoin:round;stroke-miterlimit:4;stroke-dasharray:none;stroke-dashoffset:0;stroke-opacity:1;stop-color:#000000;stop-opacity:1"
         d="m -7642.12,584.16509 c 0.1041,-4.42359 1.066,-9.95758 -0.1813,-10.95678 -0.6356,-0.50919 -1.7603,-0.0165 -3.6009,0.77899 -6.8116,2.94384 -9.615,3.0899 -9.4213,0.37824 -2.3365,0.0172 -4.6947,0.014 -8.7337,-1.58169 4.5339,-0.1676 3.7116,-1.83293 1.8595,-2.14482 -2.0386,-0.34328 -4.9632,-1.71303 -5.7793,-2.53146 2.5484,-0.13969 3.0209,-1.54089 1.9013,-2.21277 -1.0276,-0.61667 -2.423,-1.78647 -3.1392,-3.04804 1.4045,-0.0928 2.7127,0.34615 3.3633,0.57654 1.6451,0.58252 2.0195,-0.59216 1.2545,-1.16373 -0.7497,-0.5602 -1.336,-1.59552 -1.5232,-2.12918 1.4102,1.00524 2.6326,0.68522 3.576,-0.58453 2.8321,1.97321 5.4417,0.93565 9.7996,3.12898 1.184,0.59595 2.066,0.47941 2.4496,-0.11983 0.4189,-0.65425 0.1786,-1.71711 -1.3149,-2.32146 -2.1818,-0.88283 -3.6197,-1.18875 -7.9085,-5.12328 0.6756,0.21412 2.724,-0.11606 1.6638,-0.84356 -0.8933,-0.61301 -1.8687,-2.32356 -2.3171,-4.65795 1.716,0.44455 1.9328,-0.49482 1.5681,-1.17642 -0.418,-0.78142 -0.7043,-1.67578 -0.6053,-3.01847 0.759,0.0333 1.9598,0.38231 2.7313,1.07086 0.6101,0.54445 1.3744,-0.15314 1.7387,-1.13966 0.7156,0.13866 1.7555,1.06975 2.0907,1.60409 0.3886,0.61928 1.4669,0.90418 1.8979,-1.26025 0.9903,0.98768 2.1688,3.1786 3.6103,5.39835 1.5423,2.37493 3.0344,3.01309 3.6683,2.48775 0.7415,-0.6146 0.8292,-1.79085 -0.4533,-3.05508 -3.772,-3.71808 -5.2613,-7.20874 -5.3812,-12.25805 1.1506,0.79544 2.384,0.2532 2.091,-0.90973 -0.194,-0.77064 -0.3943,-2.27173 -0.097,-3.01009 1.441,0.55326 2.2905,0.42996 2.2565,-0.76246 -0.018,-0.63622 0.3961,-1.70557 0.7693,-2.33214 1.1524,1.00698 2.0757,0.44455 2.0917,-0.43267 0.021,-1.1816 0.8979,-2.1356 1.4499,-2.61035 0.552,0.47475 1.4287,1.42875 1.4499,2.61035 0.016,0.87722 0.9393,1.43965 2.0917,0.43267 0.3732,0.62657 0.7876,1.69592 0.7693,2.33214 -0.034,1.19242 0.8155,1.31572 2.2565,0.76246 0.2973,0.73836 0.097,2.23945 -0.097,3.01009 -0.293,1.16293 0.9404,1.70517 2.091,0.90973 -0.1199,5.04931 -1.6092,8.53997 -5.3812,12.25805 -1.2825,1.26423 -1.1948,2.44048 -0.4533,3.05508 0.6339,0.52534 2.126,-0.11282 3.6683,-2.48775 1.4415,-2.21975 2.62,-4.41067 3.6103,-5.39835 0.431,2.16443 1.5093,1.87953 1.8979,1.26025 0.3352,-0.53434 1.3751,-1.46543 2.0907,-1.60409 0.3643,0.98652 1.1286,1.68411 1.7387,1.13966 0.7715,-0.68855 1.9723,-1.03761 2.7313,-1.07086 0.099,1.34269 -0.1873,2.23705 -0.6053,3.01847 -0.3647,0.6816 -0.1479,1.62097 1.5681,1.17642 -0.4484,2.33439 -1.4238,4.04494 -2.3171,4.65795 -1.0602,0.7275 0.9882,1.05768 1.6638,0.84356 -4.2888,3.93453 -5.7267,4.24045 -7.9085,5.12328 -1.4935,0.60435 -1.7338,1.66721 -1.3149,2.32146 0.3836,0.59924 1.2656,0.71578 2.4496,0.11983 4.3579,-2.19333 6.9675,-1.15577 9.7996,-3.12898 0.9434,1.26975 2.1658,1.58977 3.576,0.58453 -0.1872,0.53366 -0.7735,1.56898 -1.5232,2.12918 -0.765,0.57157 -0.3906,1.74625 1.2545,1.16373 0.6506,-0.23039 1.9588,-0.66938 3.3633,-0.57654 -0.7162,1.26157 -2.1116,2.43137 -3.1392,3.04804 -1.1196,0.67188 -0.6471,2.07308 1.9013,2.21277 -0.8161,0.81843 -3.7407,2.18818 -5.7793,2.53146 -1.8521,0.31189 -2.6744,1.97722 1.8595,2.14482 -4.039,1.59565 -6.3972,1.59894 -8.7337,1.58169 0.1937,2.71166 -2.6097,2.5656 -9.4213,-0.37824 -1.8406,-0.79547 -2.9653,-1.28818 -3.6009,-0.77899 -1.2473,0.9992 -0.2854,6.53319 -0.1813,10.95678 -0.9167,0 -1.8335,0 -2.7502,0 z"
         id="path1555"
         sodipodi:nodetypes="cssccscscssccssscscscscscssscscscscscscscssscscscscscsssccsscscsccsscc"
         inkscape:transform-center-x="14.234872"
         inkscape:transform-center-y="34.246863" />
      <path
         id="path1559"
         style="font-variation-settings:normal;opacity:1;vector-effect:none;fill:#006d33;fill-opacity:1;stroke:#000000;stroke-width:0.600001;stroke-linecap:round;stroke-linejoin:round;stroke-miterlimit:4;stroke-dasharray:none;stroke-dashoffset:0;stroke-opacity:1;stop-color:#000000;stop-opacity:1"
         d="m -7687.2594,526.58314 c -0.073,-5.3e-4 -0.1464,0.001 -0.2186,0.006 -3.8499,0.26494 -6.9889,4.50963 -6.3701,9.33638 0.7799,6.08287 5.6094,9.64067 11.0639,9.36739 l -5.5206,4.88032 1.1917,0.77825 7.1272,-5.97276 c 6.1169,-0.77029 10.5766,-1.26392 17.6723,-2.07533 l -0.1943,-1.40973 c -3.747,0.47236 -11.9798,1.91438 -19.9616,2.09083 -5.8514,0.12935 -9.0772,-3.05902 -9.8712,-7.56181 -0.5383,-3.05306 1.2491,-7.68801 4.7413,-8.02329 1.6136,-0.15492 3.8739,1.69852 3.6711,3.30678 -0.119,0.94344 -0.6603,1.41398 -2.4314,1.0697 v 1.19114 c 1.9198,0.0387 3.5037,-0.45569 3.7445,-2.01797 0.3551,-2.30431 -2.3726,-4.94769 -4.6442,-4.9661 z"
         inkscape:transform-center-x="37.375124"
         inkscape:transform-center-y="15.268846" />
      <path
         id="path1564"
         style="font-variation-settings:normal;opacity:1;vector-effect:none;fill:#006d33;fill-opacity:1;stroke:#000000;stroke-width:0.600001;stroke-linecap:round;stroke-linejoin:round;stroke-miterlimit:4;stroke-dasharray:none;stroke-dashoffset:0;stroke-opacity:1;stop-color:#000000;stop-opacity:1"
         d="m -7594.2303,526.58314 c 0.073,-5.3e-4 0.1463,0.001 0.2185,0.006 3.8499,0.26494 6.989,4.50963 6.3702,9.33638 -0.7799,6.08287 -5.6094,9.64067 -11.0639,9.36739 l 5.5206,4.88032 -1.1917,0.77825 -7.1272,-5.97276 c -6.1169,-0.77029 -10.5766,-1.26392 -17.6723,-2.07533 l 0.1943,-1.40973 c 3.747,0.47236 11.9798,1.91438 19.9616,2.09083 5.8514,0.12935 9.0772,-3.05902 9.8712,-7.56181 0.5383,-3.05306 -1.2491,-7.68801 -4.7413,-8.02329 -1.6136,-0.15492 -3.8739,1.69852 -3.6711,3.30678 0.119,0.94344 0.6603,1.41398 2.4314,1.0697 v 1.19114 c -1.9198,0.0387 -3.5037,-0.45569 -3.7445,-2.01797 -0.3552,-2.30431 2.3725,-4.94769 4.6442,-4.9661 z"
         inkscape:transform-center-x="-37.375129"
         inkscape:transform-center-y="15.268695" />
      <path
         id="path1566"
         style="font-variation-settings:normal;opacity:1;vector-effect:none;fill:#005ca1;fill-opacity:1;fill-rule:evenodd;stroke:#000000;stroke-width:0.6;stroke-linecap:butt;stroke-linejoin:miter;stroke-miterlimit:4;stroke-dasharray:none;stroke-dashoffset:0;stroke-opacity:1;stop-color:#000000;stop-opacity:1"
         d="m -7702.6727,550.21153 a 2.6512904,3.4412577 51 0 1 -4.3429,0.10517 2.6512904,3.4412577 51 0 1 1.0058,-4.22606 2.6512904,3.4412577 51 0 1 4.3429,-0.10523 2.6512904,3.4412577 51 0 1 -1.0058,4.22612 z"
         inkscape:transform-center-x="63.59636"
         inkscape:transform-center-y="-51.532861" />
      <path
         id="path1569"
         style="font-variation-settings:normal;opacity:1;vector-effect:none;fill:#005ca1;fill-opacity:1;fill-rule:evenodd;stroke:#000000;stroke-width:0.6;stroke-linecap:butt;stroke-linejoin:miter;stroke-miterlimit:4;stroke-dasharray:none;stroke-dashoffset:0;stroke-opacity:1;stop-color:#000000;stop-opacity:1"
         d="m -7677.5085,566.47563 a 2.6512904,3.4412577 51 0 1 -4.3428,0.10517 2.6512904,3.4412577 51 0 1 1.0058,-4.22606 2.6512904,3.4412577 51 0 1 4.3429,-0.10523 2.6512904,3.4412577 51 0 1 -1.0059,4.22612 z"
         inkscape:transform-center-x="38.432075"
         inkscape:transform-center-y="-35.268768" />
      <path
         style="font-variation-settings:normal;vector-effect:none;fill:#005ca1;fill-opacity:1;fill-rule:evenodd;stroke:#000000;stroke-width:0.6;stroke-linecap:butt;stroke-linejoin:miter;stroke-miterlimit:4;stroke-dasharray:none;stroke-dashoffset:0;stroke-opacity:1;stop-color:#000000"
         d="m -7683.7961,562.41 c -1.48,1.196 -3.43,1.243 -4.35,0.105 v 0 c -0.92,-1.138 -0.47,-3.03 1.01,-4.226 v 0 c 0.71,-0.575 1.56,-0.908 2.38,-0.928 v 0 c 0.81,-0.02 1.52,0.276 1.96,0.823 v 0 c 0.44,0.546 0.59,1.298 0.4,2.091 v 0 c -0.19,0.793 -0.7,1.56 -1.4,2.135 z"
         id="path1609"
         inkscape:transform-center-x="44.724394"
         inkscape:transform-center-y="-39.334553" />
      <path
         style="font-variation-settings:normal;vector-effect:none;fill:#005ca1;fill-opacity:1;fill-rule:evenodd;stroke:#000000;stroke-width:0.6;stroke-linecap:butt;stroke-linejoin:miter;stroke-miterlimit:4;stroke-dasharray:none;stroke-dashoffset:0;stroke-opacity:1;stop-color:#000000"
         d="m -7690.0961,558.344 c -1.47,1.196 -3.42,1.243 -4.34,0.105 v 0 c -0.92,-1.138 -0.47,-3.03 1.01,-4.226 v 0 c 0.71,-0.575 1.56,-0.908 2.38,-0.928 v 0 c 0.81,-0.02 1.52,0.276 1.96,0.823 v 0 c 0.44,0.546 0.58,1.299 0.4,2.091 v 0 c -0.19,0.793 -0.7,1.561 -1.41,2.135 z"
         id="path1611"
         inkscape:transform-center-x="51.016578"
         inkscape:transform-center-y="-43.400553" />
      <path
         style="font-variation-settings:normal;vector-effect:none;fill:#005ca1;fill-opacity:1;fill-rule:evenodd;stroke:#000000;stroke-width:0.6;stroke-linecap:butt;stroke-linejoin:miter;stroke-miterlimit:4;stroke-dasharray:none;stroke-dashoffset:0;stroke-opacity:1;stop-color:#000000"
         d="m -7696.3861,554.278 c -1.48,1.196 -3.42,1.243 -4.34,0.105 v 0 c -0.92,-1.138 -0.47,-3.03 1,-4.226 h 0.01 c 0.7,-0.574 1.56,-0.908 2.37,-0.928 v 0 c 0.82,-0.02 1.53,0.276 1.97,0.823 v 0 c 0.44,0.546 0.58,1.299 0.39,2.091 v 0 c -0.18,0.793 -0.69,1.561 -1.4,2.135 z"
         id="path1613"
         inkscape:transform-center-x="57.3086"
         inkscape:transform-center-y="-47.466552" />
      <path
         id="path1757"
         style="font-variation-settings:normal;opacity:1;vector-effect:none;fill:#005ca1;fill-opacity:1;fill-rule:evenodd;stroke:#000000;stroke-width:0.6;stroke-linecap:butt;stroke-linejoin:miter;stroke-miterlimit:4;stroke-dasharray:none;stroke-dashoffset:0;stroke-opacity:1;stop-color:#000000;stop-opacity:1"
         d="m -7711.0427,588.70077 a 2.6512904,3.4412577 51 0 1 -4.3428,0.10517 2.6512904,3.4412577 51 0 1 1.0058,-4.22606 2.6512904,3.4412577 51 0 1 4.3429,-0.10523 2.6512904,3.4412577 51 0 1 -1.0059,4.22612 z"
         inkscape:transform-center-x="71.966272"
         inkscape:transform-center-y="-13.04363" />
      <path
         style="font-variation-settings:normal;vector-effect:none;fill:#005ca1;fill-opacity:1;fill-rule:evenodd;stroke:#000000;stroke-width:0.6;stroke-linecap:butt;stroke-linejoin:miter;stroke-miterlimit:4;stroke-dasharray:none;stroke-dashoffset:0;stroke-opacity:1;stop-color:#000000"
         d="m -7702.6561,583.144 c -1.48,1.196 -3.42,1.244 -4.35,0.106 -0.92,-1.138 -0.47,-3.03 1.01,-4.226 0.71,-0.575 1.57,-0.909 2.38,-0.928 0.81,-0.02 1.52,0.276 1.96,0.822 0.45,0.547 0.59,1.299 0.4,2.092 -0.19,0.792 -0.69,1.56 -1.4,2.134 z"
         id="path1801"
         inkscape:transform-center-x="63.583506"
         inkscape:transform-center-y="-18.599793" />
      <path
         style="font-variation-settings:normal;vector-effect:none;fill:#005ca1;fill-opacity:1;fill-rule:evenodd;stroke:#000000;stroke-width:0.6;stroke-linecap:butt;stroke-linejoin:miter;stroke-miterlimit:4;stroke-dasharray:none;stroke-dashoffset:0;stroke-opacity:1;stop-color:#000000"
         d="m -7694.2761,577.588 c -1.48,1.196 -3.42,1.243 -4.34,0.105 -0.92,-1.138 -0.47,-3.03 1,-4.226 0.71,-0.574 1.57,-0.908 2.38,-0.928 0.82,-0.019 1.52,0.277 1.97,0.823 0.44,0.547 0.58,1.299 0.39,2.091 -0.19,0.793 -0.69,1.561 -1.4,2.135 z"
         id="path1803"
         inkscape:transform-center-x="55.198601"
         inkscape:transform-center-y="-24.15651" />
      <path
         style="font-variation-settings:normal;vector-effect:none;fill:#005ca1;fill-opacity:1;fill-rule:evenodd;stroke:#000000;stroke-width:0.6;stroke-linecap:butt;stroke-linejoin:miter;stroke-miterlimit:4;stroke-dasharray:none;stroke-dashoffset:0;stroke-opacity:1;stop-color:#000000"
         d="m -7685.8961,572.032 c -1.47,1.196 -3.42,1.243 -4.34,0.105 -0.92,-1.138 -0.47,-3.03 1.01,-4.226 0.71,-0.574 1.56,-0.908 2.38,-0.928 0.81,-0.02 1.52,0.276 1.96,0.823 0.44,0.546 0.59,1.299 0.4,2.091 -0.19,0.793 -0.7,1.561 -1.41,2.135 z"
         id="path1805"
         inkscape:transform-center-x="46.814393"
         inkscape:transform-center-y="-29.712554" />
      <path
         style="font-variation-settings:normal;vector-effect:none;fill:#005ca1;fill-opacity:1;fill-rule:evenodd;stroke:#000000;stroke-width:0.6;stroke-linecap:butt;stroke-linejoin:miter;stroke-miterlimit:4;stroke-dasharray:none;stroke-dashoffset:0;stroke-opacity:1;stop-color:#000000"
         d="m -7692.1798,567.96612 c -1.48,1.196 -3.43,1.243 -4.35,0.105 v 0 c -0.92,-1.138 -0.47,-3.03 1.01,-4.226 v 0 c 0.71,-0.575 1.56,-0.908 2.38,-0.928 v 0 c 0.81,-0.02 1.52,0.276 1.96,0.823 v 0 c 0.44,0.546 0.59,1.298 0.4,2.091 v 0 c -0.19,0.793 -0.7,1.56 -1.4,2.135 z"
         id="path1820"
         inkscape:transform-center-x="53.108093"
         inkscape:transform-center-y="-33.778434" />
      <path
         style="font-variation-settings:normal;vector-effect:none;fill:#005ca1;fill-opacity:1;fill-rule:evenodd;stroke:#000000;stroke-width:0.6;stroke-linecap:butt;stroke-linejoin:miter;stroke-miterlimit:4;stroke-dasharray:none;stroke-dashoffset:0;stroke-opacity:1;stop-color:#000000"
         d="m -7698.4798,563.90012 c -1.47,1.196 -3.42,1.243 -4.34,0.105 v 0 c -0.92,-1.138 -0.47,-3.03 1.01,-4.226 v 0 c 0.71,-0.575 1.56,-0.908 2.38,-0.928 v 0 c 0.81,-0.02 1.52,0.276 1.96,0.823 v 0 c 0.44,0.546 0.58,1.299 0.4,2.091 v 0 c -0.19,0.793 -0.7,1.561 -1.41,2.135 z"
         id="path1822"
         inkscape:transform-center-x="59.400277"
         inkscape:transform-center-y="-37.844433" />
      <path
         style="font-variation-settings:normal;vector-effect:none;fill:#005ca1;fill-opacity:1;fill-rule:evenodd;stroke:#000000;stroke-width:0.6;stroke-linecap:butt;stroke-linejoin:miter;stroke-miterlimit:4;stroke-dasharray:none;stroke-dashoffset:0;stroke-opacity:1;stop-color:#000000"
         d="m -7704.7698,559.83412 c -1.48,1.196 -3.42,1.243 -4.34,0.105 v 0 c -0.92,-1.138 -0.47,-3.03 1,-4.226 h 0.01 c 0.7,-0.574 1.56,-0.908 2.37,-0.928 v 0 c 0.82,-0.02 1.53,0.276 1.97,0.823 v 0 c 0.44,0.546 0.58,1.299 0.39,2.091 v 0 c -0.18,0.793 -0.69,1.561 -1.4,2.135 z"
         id="path1824"
         inkscape:transform-center-x="65.692299"
         inkscape:transform-center-y="-41.910433" />
      <path
         style="font-variation-settings:normal;vector-effect:none;fill:#005ca1;fill-opacity:1;fill-rule:evenodd;stroke:#000000;stroke-width:0.6;stroke-linecap:butt;stroke-linejoin:miter;stroke-miterlimit:4;stroke-dasharray:none;stroke-dashoffset:0;stroke-opacity:1;stop-color:#000000"
         d="m -7700.5598,573.52212 c -1.48,1.196 -3.43,1.243 -4.35,0.105 v 0 c -0.92,-1.138 -0.47,-3.03 1.01,-4.226 v 0 c 0.71,-0.575 1.56,-0.908 2.38,-0.928 v 0 c 0.81,-0.02 1.52,0.276 1.96,0.823 v 0 c 0.44,0.546 0.59,1.298 0.4,2.091 v 0 c -0.19,0.793 -0.7,1.56 -1.4,2.135 z"
         id="path1831"
         inkscape:transform-center-x="61.488092"
         inkscape:transform-center-y="-28.222434" />
      <path
         style="font-variation-settings:normal;vector-effect:none;fill:#005ca1;fill-opacity:1;fill-rule:evenodd;stroke:#000000;stroke-width:0.6;stroke-linecap:butt;stroke-linejoin:miter;stroke-miterlimit:4;stroke-dasharray:none;stroke-dashoffset:0;stroke-opacity:1;stop-color:#000000"
         d="m -7706.8598,569.45612 c -1.47,1.196 -3.42,1.243 -4.34,0.105 v 0 c -0.92,-1.138 -0.47,-3.03 1.01,-4.226 v 0 c 0.71,-0.575 1.56,-0.908 2.38,-0.928 v 0 c 0.81,-0.02 1.52,0.276 1.96,0.823 v 0 c 0.44,0.546 0.58,1.299 0.4,2.091 v 0 c -0.19,0.793 -0.7,1.561 -1.41,2.135 z"
         id="path1833"
         inkscape:transform-center-x="67.780276"
         inkscape:transform-center-y="-32.288434" />
      <path
         style="font-variation-settings:normal;vector-effect:none;fill:#005ca1;fill-opacity:1;fill-rule:evenodd;stroke:#000000;stroke-width:0.6;stroke-linecap:butt;stroke-linejoin:miter;stroke-miterlimit:4;stroke-dasharray:none;stroke-dashoffset:0;stroke-opacity:1;stop-color:#000000"
         d="m -7708.9498,579.07812 c -1.48,1.196 -3.43,1.243 -4.35,0.105 v 0 c -0.92,-1.138 -0.47,-3.03 1.01,-4.226 v 0 c 0.71,-0.575 1.56,-0.908 2.38,-0.928 v 0 c 0.81,-0.02 1.52,0.276 1.96,0.823 v 0 c 0.44,0.546 0.59,1.298 0.4,2.091 v 0 c -0.19,0.793 -0.7,1.56 -1.4,2.135 z"
         id="path1837"
         inkscape:transform-center-x="69.878091"
         inkscape:transform-center-y="-22.666435" />
      <path
         id="path1839"
         style="font-variation-settings:normal;opacity:1;vector-effect:none;fill:#005ca1;fill-opacity:1;fill-rule:evenodd;stroke:#000000;stroke-width:0.6;stroke-linecap:butt;stroke-linejoin:miter;stroke-miterlimit:4;stroke-dasharray:none;stroke-dashoffset:0;stroke-opacity:1;stop-color:#000000;stop-opacity:1"
         d="m -7578.817,550.21153 a 3.4412577,2.6512904 39 0 0 4.3428,0.10517 3.4412577,2.6512904 39 0 0 -1.0058,-4.22606 3.4412577,2.6512904 39 0 0 -4.3429,-0.10523 3.4412577,2.6512904 39 0 0 1.0059,4.22612 z"
         inkscape:transform-center-x="-63.596325"
         inkscape:transform-center-y="-51.532867" />
      <path
         id="path1841"
         style="font-variation-settings:normal;opacity:1;vector-effect:none;fill:#005ca1;fill-opacity:1;fill-rule:evenodd;stroke:#000000;stroke-width:0.6;stroke-linecap:butt;stroke-linejoin:miter;stroke-miterlimit:4;stroke-dasharray:none;stroke-dashoffset:0;stroke-opacity:1;stop-color:#000000;stop-opacity:1"
         d="m -7603.9813,566.47563 a 3.4412577,2.6512904 39 0 0 4.3428,0.10517 3.4412577,2.6512904 39 0 0 -1.0058,-4.22606 3.4412577,2.6512904 39 0 0 -4.3429,-0.10523 3.4412577,2.6512904 39 0 0 1.0059,4.22612 z"
         inkscape:transform-center-x="-38.432027"
         inkscape:transform-center-y="-35.268768" />
      <path
         style="font-variation-settings:normal;vector-effect:none;fill:#005ca1;fill-opacity:1;fill-rule:evenodd;stroke:#000000;stroke-width:0.6;stroke-linecap:butt;stroke-linejoin:miter;stroke-miterlimit:4;stroke-dasharray:none;stroke-dashoffset:0;stroke-opacity:1;stop-color:#000000"
         d="m -7597.6937,562.41 c 1.48,1.196 3.43,1.243 4.35,0.105 v 0 c 0.92,-1.138 0.47,-3.03 -1.01,-4.226 v 0 c -0.71,-0.575 -1.56,-0.908 -2.38,-0.928 v 0 c -0.81,-0.02 -1.52,0.276 -1.96,0.823 v 0 c -0.44,0.546 -0.59,1.298 -0.4,2.091 v 0 c 0.19,0.793 0.7,1.56 1.4,2.135 z"
         id="path1843"
         inkscape:transform-center-x="-44.724346"
         inkscape:transform-center-y="-39.334553" />
      <path
         style="font-variation-settings:normal;vector-effect:none;fill:#005ca1;fill-opacity:1;fill-rule:evenodd;stroke:#000000;stroke-width:0.6;stroke-linecap:butt;stroke-linejoin:miter;stroke-miterlimit:4;stroke-dasharray:none;stroke-dashoffset:0;stroke-opacity:1;stop-color:#000000"
         d="m -7591.3937,558.344 c 1.47,1.196 3.42,1.243 4.34,0.105 v 0 c 0.92,-1.138 0.47,-3.03 -1.01,-4.226 v 0 c -0.71,-0.575 -1.56,-0.908 -2.38,-0.928 v 0 c -0.81,-0.02 -1.52,0.276 -1.96,0.823 v 0 c -0.44,0.546 -0.58,1.299 -0.4,2.091 v 0 c 0.19,0.793 0.7,1.561 1.41,2.135 z"
         id="path1845"
         inkscape:transform-center-x="-51.01653"
         inkscape:transform-center-y="-43.400553" />
      <path
         style="font-variation-settings:normal;vector-effect:none;fill:#005ca1;fill-opacity:1;fill-rule:evenodd;stroke:#000000;stroke-width:0.6;stroke-linecap:butt;stroke-linejoin:miter;stroke-miterlimit:4;stroke-dasharray:none;stroke-dashoffset:0;stroke-opacity:1;stop-color:#000000"
         d="m -7585.1037,554.278 c 1.48,1.196 3.42,1.243 4.34,0.105 v 0 c 0.92,-1.138 0.47,-3.03 -1,-4.226 h -0.01 c -0.7,-0.574 -1.56,-0.908 -2.37,-0.928 v 0 c -0.82,-0.02 -1.53,0.276 -1.97,0.823 v 0 c -0.44,0.546 -0.58,1.299 -0.39,2.091 v 0 c 0.18,0.793 0.69,1.561 1.4,2.135 z"
         id="path1847"
         inkscape:transform-center-x="-57.308552"
         inkscape:transform-center-y="-47.466552" />
      <path
         id="path1849"
         style="font-variation-settings:normal;opacity:1;vector-effect:none;fill:#005ca1;fill-opacity:1;fill-rule:evenodd;stroke:#000000;stroke-width:0.6;stroke-linecap:butt;stroke-linejoin:miter;stroke-miterlimit:4;stroke-dasharray:none;stroke-dashoffset:0;stroke-opacity:1;stop-color:#000000;stop-opacity:1"
         d="m -7570.4471,588.70077 a 3.4412577,2.6512904 39 0 0 4.3428,0.10517 3.4412577,2.6512904 39 0 0 -1.0058,-4.22606 3.4412577,2.6512904 39 0 0 -4.3429,-0.10523 3.4412577,2.6512904 39 0 0 1.0059,4.22612 z"
         inkscape:transform-center-x="-71.966224"
         inkscape:transform-center-y="-13.04363" />
      <path
         style="font-variation-settings:normal;vector-effect:none;fill:#005ca1;fill-opacity:1;fill-rule:evenodd;stroke:#000000;stroke-width:0.6;stroke-linecap:butt;stroke-linejoin:miter;stroke-miterlimit:4;stroke-dasharray:none;stroke-dashoffset:0;stroke-opacity:1;stop-color:#000000"
         d="m -7578.8337,583.144 c 1.48,1.196 3.42,1.244 4.35,0.106 0.92,-1.138 0.47,-3.03 -1.01,-4.226 -0.71,-0.575 -1.57,-0.909 -2.38,-0.928 -0.81,-0.02 -1.52,0.276 -1.96,0.822 -0.45,0.547 -0.59,1.299 -0.4,2.092 0.19,0.792 0.69,1.56 1.4,2.134 z"
         id="path1851"
         inkscape:transform-center-x="-63.583458"
         inkscape:transform-center-y="-18.599793" />
      <path
         style="font-variation-settings:normal;vector-effect:none;fill:#005ca1;fill-opacity:1;fill-rule:evenodd;stroke:#000000;stroke-width:0.6;stroke-linecap:butt;stroke-linejoin:miter;stroke-miterlimit:4;stroke-dasharray:none;stroke-dashoffset:0;stroke-opacity:1;stop-color:#000000"
         d="m -7587.2137,577.588 c 1.48,1.196 3.42,1.243 4.34,0.105 0.92,-1.138 0.47,-3.03 -1,-4.226 -0.71,-0.574 -1.57,-0.908 -2.38,-0.928 -0.82,-0.019 -1.52,0.277 -1.97,0.823 -0.44,0.547 -0.58,1.299 -0.39,2.091 0.19,0.793 0.69,1.561 1.4,2.135 z"
         id="path1853"
         inkscape:transform-center-x="-55.198553"
         inkscape:transform-center-y="-24.15651" />
      <path
         style="font-variation-settings:normal;vector-effect:none;fill:#005ca1;fill-opacity:1;fill-rule:evenodd;stroke:#000000;stroke-width:0.6;stroke-linecap:butt;stroke-linejoin:miter;stroke-miterlimit:4;stroke-dasharray:none;stroke-dashoffset:0;stroke-opacity:1;stop-color:#000000"
         d="m -7595.5937,572.032 c 1.47,1.196 3.42,1.243 4.34,0.105 0.92,-1.138 0.47,-3.03 -1.01,-4.226 -0.71,-0.574 -1.56,-0.908 -2.38,-0.928 -0.81,-0.02 -1.52,0.276 -1.96,0.823 -0.44,0.546 -0.59,1.299 -0.4,2.091 0.19,0.793 0.7,1.561 1.41,2.135 z"
         id="path1855"
         inkscape:transform-center-x="-46.814345"
         inkscape:transform-center-y="-29.712554" />
      <path
         style="font-variation-settings:normal;vector-effect:none;fill:#005ca1;fill-opacity:1;fill-rule:evenodd;stroke:#000000;stroke-width:0.6;stroke-linecap:butt;stroke-linejoin:miter;stroke-miterlimit:4;stroke-dasharray:none;stroke-dashoffset:0;stroke-opacity:1;stop-color:#000000"
         d="m -7589.31,567.96612 c 1.48,1.196 3.43,1.243 4.35,0.105 v 0 c 0.92,-1.138 0.47,-3.03 -1.01,-4.226 v 0 c -0.71,-0.575 -1.56,-0.908 -2.38,-0.928 v 0 c -0.81,-0.02 -1.52,0.276 -1.96,0.823 v 0 c -0.44,0.546 -0.59,1.298 -0.4,2.091 v 0 c 0.19,0.793 0.7,1.56 1.4,2.135 z"
         id="path1857"
         inkscape:transform-center-x="-53.108045"
         inkscape:transform-center-y="-33.778434" />
      <path
         style="font-variation-settings:normal;vector-effect:none;fill:#005ca1;fill-opacity:1;fill-rule:evenodd;stroke:#000000;stroke-width:0.6;stroke-linecap:butt;stroke-linejoin:miter;stroke-miterlimit:4;stroke-dasharray:none;stroke-dashoffset:0;stroke-opacity:1;stop-color:#000000"
         d="m -7583.01,563.90012 c 1.47,1.196 3.42,1.243 4.34,0.105 v 0 c 0.92,-1.138 0.47,-3.03 -1.01,-4.226 v 0 c -0.71,-0.575 -1.56,-0.908 -2.38,-0.928 v 0 c -0.81,-0.02 -1.52,0.276 -1.96,0.823 v 0 c -0.44,0.546 -0.58,1.299 -0.4,2.091 v 0 c 0.19,0.793 0.7,1.561 1.41,2.135 z"
         id="path1859"
         inkscape:transform-center-x="-59.400229"
         inkscape:transform-center-y="-37.844433" />
      <path
         style="font-variation-settings:normal;vector-effect:none;fill:#005ca1;fill-opacity:1;fill-rule:evenodd;stroke:#000000;stroke-width:0.6;stroke-linecap:butt;stroke-linejoin:miter;stroke-miterlimit:4;stroke-dasharray:none;stroke-dashoffset:0;stroke-opacity:1;stop-color:#000000"
         d="m -7576.72,559.83412 c 1.48,1.196 3.42,1.243 4.34,0.105 v 0 c 0.92,-1.138 0.47,-3.03 -1,-4.226 h -0.01 c -0.7,-0.574 -1.56,-0.908 -2.37,-0.928 v 0 c -0.82,-0.02 -1.53,0.276 -1.97,0.823 v 0 c -0.44,0.546 -0.58,1.299 -0.39,2.091 v 0 c 0.18,0.793 0.69,1.561 1.4,2.135 z"
         id="path1861"
         inkscape:transform-center-x="-65.692251"
         inkscape:transform-center-y="-41.910433" />
      <path
         style="font-variation-settings:normal;vector-effect:none;fill:#005ca1;fill-opacity:1;fill-rule:evenodd;stroke:#000000;stroke-width:0.6;stroke-linecap:butt;stroke-linejoin:miter;stroke-miterlimit:4;stroke-dasharray:none;stroke-dashoffset:0;stroke-opacity:1;stop-color:#000000"
         d="m -7580.93,573.52212 c 1.48,1.196 3.43,1.243 4.35,0.105 v 0 c 0.92,-1.138 0.47,-3.03 -1.01,-4.226 v 0 c -0.71,-0.575 -1.56,-0.908 -2.38,-0.928 v 0 c -0.81,-0.02 -1.52,0.276 -1.96,0.823 v 0 c -0.44,0.546 -0.59,1.298 -0.4,2.091 v 0 c 0.19,0.793 0.7,1.56 1.4,2.135 z"
         id="path1863"
         inkscape:transform-center-x="-61.488044"
         inkscape:transform-center-y="-28.222434" />
      <path
         style="font-variation-settings:normal;vector-effect:none;fill:#005ca1;fill-opacity:1;fill-rule:evenodd;stroke:#000000;stroke-width:0.6;stroke-linecap:butt;stroke-linejoin:miter;stroke-miterlimit:4;stroke-dasharray:none;stroke-dashoffset:0;stroke-opacity:1;stop-color:#000000"
         d="m -7574.63,569.45612 c 1.47,1.196 3.42,1.243 4.34,0.105 v 0 c 0.92,-1.138 0.47,-3.03 -1.01,-4.226 v 0 c -0.71,-0.575 -1.56,-0.908 -2.38,-0.928 v 0 c -0.81,-0.02 -1.52,0.276 -1.96,0.823 v 0 c -0.44,0.546 -0.58,1.299 -0.4,2.091 v 0 c 0.19,0.793 0.7,1.561 1.41,2.135 z"
         id="path1865"
         inkscape:transform-center-x="-67.780228"
         inkscape:transform-center-y="-32.288434" />
      <path
         style="font-variation-settings:normal;vector-effect:none;fill:#005ca1;fill-opacity:1;fill-rule:evenodd;stroke:#000000;stroke-width:0.6;stroke-linecap:butt;stroke-linejoin:miter;stroke-miterlimit:4;stroke-dasharray:none;stroke-dashoffset:0;stroke-opacity:1;stop-color:#000000"
         d="m -7572.54,579.07812 c 1.48,1.196 3.43,1.243 4.35,0.105 v 0 c 0.92,-1.138 0.47,-3.03 -1.01,-4.226 v 0 c -0.71,-0.575 -1.56,-0.908 -2.38,-0.928 v 0 c -0.81,-0.02 -1.52,0.276 -1.96,0.823 v 0 c -0.44,0.546 -0.59,1.298 -0.4,2.091 v 0 c 0.19,0.793 0.7,1.56 1.4,2.135 z"
         id="path1867"
         inkscape:transform-center-x="-69.878043"
         inkscape:transform-center-y="-22.666435" />
    </g>
    <path
       style="fill:#000000;fill-opacity:0.980392;stroke:#000000;stroke-width:0.2;stroke-miterlimit:4;stroke-dasharray:none;stroke-opacity:0.980392"
       d=""
       id="path1003" />
    <g
       id="g1194"
       transform="matrix(0.98988001,0.06921915,-0.06921915,0.98988001,-29.414516,437.79696)"
       inkscape:transform-center-x="1.7740996"
       inkscape:transform-center-y="2.7097369"
       style="stroke-width:1.00784" />
    <g
       id="g3660"
       inkscape:transform-center-x="-24.142411"
       inkscape:transform-center-y="55.22028"
       transform="matrix(-0.98988001,-0.06921915,-0.06921915,0.98988001,-6780.6237,-35.262502)"
       style="stroke-width:1.00784" />
    <text
       xml:space="preserve"
       style="font-size:3.52777px;line-height:1.25;font-family:sans-serif;-inkscape-font-specification:'sans-serif, Normal';stroke-width:0.264583"
       x="-7278.7598"
       y="359.10342"
       id="text4842"><tspan
         sodipodi:role="line"
         id="tspan4840"
         x="-7278.7598"
         y="359.10342"
         style="stroke-width:0.264583" /></text>
  </g>
</svg>
