<svg xmlns="http://www.w3.org/2000/svg" viewBox="360 57.60000192 488.4 501.6000167199999" version="1.1" style="max-height: 500px" width="488.4" height="501.6000167199999">
 <g transform="translate(0,-522.51965)">
  <path style="paint-order:normal" fill="#fff" d="m 0,522.5197 h 1199.9997 v 600 H 0 Z"/>
  <g transform="matrix(.5804607 0 0 .5804607 1996.5273 1062.4693)">
   <g stroke-width="2" stroke="#000" shape-rendering="auto">
    <path style="isolation:auto;mix-blend-mode:normal" image-rendering="auto" fill="#da251c" color-rendering="auto" color="#000000" d="m-2385.7449-194.64111c50.859-11.12889 127.5238-67.73884 127.5238-132.59886v-257.35005h-295.3481v257.35005c0 64.86002 76.6648 121.46997 127.5238 132.59886 13.5484 2.96464 13.3663 5.27313 20.1503 14.21157 6.7839-8.93844 6.6018-11.24693 20.1502-14.21157z"/>
    <path style="isolation:auto;mix-blend-mode:normal" image-rendering="auto" fill="#005ca1" color-rendering="auto" color="#000000" d="m-2553.5701-581.71032v254.4707c0 64.86003 76.6664 121.46877 127.5254 132.59766 13.5484 2.96464 13.3664 5.27445 20.1503 14.21289 6.784-8.93844 6.602-11.24825 20.1504-14.21289 37.5707-8.22116 89.2158-41.26392 113.6426-84.11523z"/>
    <path style="isolation:auto;mix-blend-mode:normal" image-rendering="auto" fill="#d7d7d7" color-rendering="auto" color="#000000" d="m-2553.5701-584.58922v8.8789l279.3027 300.62305c1.7579-2.86308 3.3942-5.7742 4.9004-8.72656l-279.4453-300.77539z"/>
   </g>
   <g transform="translate(-140)">
    <g stroke="#000" shape-rendering="auto" fill="#f6b801" transform="translate(-480,-80)">
     <path style="isolation:auto;mix-blend-mode:normal" image-rendering="auto" color-rendering="auto" color="#000000" d="m-1810.3996-130.65521v-18.5672h15.0048v-9.06771c25.7207 0.61891 47.1307 16.05281 49.6566 27.63491"/>
     <path style="isolation:auto;mix-blend-mode:normal" image-rendering="auto" color-rendering="auto" color="#000000" d="m-1824.8104-192.02477-3.0234 2.21289 14.6816 13.00781-2.8613 15.59961c-1.6277 0.82174-6.1114 1.50442-10.2012 0.10742l2.2676-12.95312-11.875-11.92969-2.6973 1.89063 10.3087 11.27929-5.6133 28.66211h23.4238v-5.07422h15.0058v-11.78711h62.6915l-2.9512 4.88477h3.2051l2.9511-4.88477h10.5977v-2.01171c-3.1262-4e-3 -6.2527-3e-3 -9.3789-6e-3l2.6543-4.39454h-3.2051l-2.6543 4.39454c-25.6394-0.0171-51.2787 4e-3 -76.918-0.0937l-2.9687 0.67382 2.2129-15.70703-15.6524-13.87109z"/>
     <path style="isolation:auto;mix-blend-mode:normal" image-rendering="auto" color-rendering="auto" color="#000000" d="m-1797.8114-158.82879a1.8501962 1.8501962 0 0 1-1.8331 1.86668 1.8501962 1.8501962 0 0 1-1.8671-1.83265 1.8501962 1.8501962 0 0 1 1.8322-1.86757 1.8501962 1.8501962 0 0 1 1.868 1.83173"/>
     <path style="isolation:auto;mix-blend-mode:normal" image-rendering="auto" color-rendering="auto" color="#000000" d="m-1797.8114-152.72083a1.8501962 1.8501962 0 0 1-1.8331 1.86668 1.8501962 1.8501962 0 0 1-1.8671-1.83265 1.8501962 1.8501962 0 0 1 1.8322-1.86758 1.8501962 1.8501962 0 0 1 1.868 1.83174"/>
    </g>
    <g shape-rendering="auto" transform="translate(-480,-140)">
     <g>
      <path style="isolation:auto;mix-blend-mode:normal" stroke-width="2" stroke="#000" image-rendering="auto" fill="#da251c" color-rendering="auto" color="#000000" d="m-1658.2836 20.15858c28.1825 3.08169 56.2886 4.75181 93.7349-18.31952-11.3005 14.56784-22.7566 29.75776-33.2805 41.21893 9.0749 7.93846 21.0692 15.87693 34.1965 23.81539-43.3562 14.82752-86.7125 23.71772-130.0687 22.28876"/>
      <path style="isolation:auto;mix-blend-mode:normal" stroke-width="2" stroke="#000" image-rendering="auto" fill="#da251c" color-rendering="auto" color="#000000" d="m-1650.6505 72.97989c-13.3834 10.22872-28.0527 14.02752-43.0509 16.18225l0.6107-58.62249"/>
      <path style="isolation:auto;mix-blend-mode:normal" image-rendering="auto" fill="#f6b801" color-rendering="auto" color="#000000" d="m-1651.4002 69.138867c-13.3834 10.22872-23.303 11.868543-38.3012 14.023273l0.6107-58.62249"/>
      <path style="isolation:auto;mix-blend-mode:normal" stroke-width="2" stroke="#000" image-rendering="auto" fill="#da251c" color-rendering="auto" color="#000000" d="m-1913.5068 52.58225c-28.1825-3.08169-56.2886-4.75181-93.7349 18.31952 11.3005-14.56784 22.7566-29.75776 33.2805-41.21893-9.0749-7.93846-21.0692-15.87693-34.1965-23.81539 43.3562-14.82752 86.7125-23.71772 130.0687-22.28876"/>
      <path style="isolation:auto;mix-blend-mode:normal" stroke="#000" image-rendering="auto" fill="#da251c" color-rendering="auto" color="#000000" d="m-1921.1399-0.23906c13.3834-10.22872 28.0527-14.02752 43.0509-16.18225l-0.6107 58.62249"/>
     </g>
     <path style="isolation:auto;mix-blend-mode:normal" stroke-width="2" stroke="#000" image-rendering="auto" fill="none" color-rendering="auto" color="#000000" d="m-1921.1399-0.23906c13.3834-10.22872 28.0527-14.02752 43.0509-16.18225l-0.6107 58.62249"/>
     <g>
      <path style="isolation:auto;mix-blend-mode:normal" image-rendering="auto" fill="#f6b801" color-rendering="auto" color="#000000" d="m-1921.1399 4.5106893c13.3834-10.22872 23.7347-14.02752 38.7329-16.1822503l-0.6107 53.872741"/>
      <path style="isolation:auto;mix-blend-mode:normal" stroke-width="2" stroke="#000" image-rendering="auto" fill="#da251c" color-rendering="auto" color="#000000" d="m-1650.6505 72.97989c-30.7489-16.46855-101.8375-28.7536-135.2447-23.75622-41.2411 6.16926-86.0241 26.50779-135.2447 10.07574v-59.53847c30.7489 16.46855 101.8375-3.24641 135.2447-8.24378 41.2411-6.16925 86.0241 5.49221 135.2447 21.92426v59.53847"/>
      <path style="isolation:auto;mix-blend-mode:normal" image-rendering="auto" fill="#f6b801" color-rendering="auto" color="#000000" d="m-1654.9685 67.798345c-30.7489-16.46855-97.5195-27.026418-130.9267-22.029038-41.2411 6.16926-82.5697 27.371381-131.7903 10.939331v-52.1979487c30.7489 16.4685497 98.3831-4.11000075 131.7903-9.1073708 41.2411-6.1692495 81.7061 3.76502847 130.9267 20.1970785v52.197948"/>
     </g>
    </g>
    <path fill="#da251c" d="m-2347.0249-81.259941c0-0.239934 0.3626-1.082519 0.8091-1.872424l0.8129-1.436197-0.053-8.541841c-0.047-10.132607-0.8063-25.713757-1.2684-26.173827-0.8824-0.88392-3.9531 2.66969-5.9999 6.94278-0.6736 1.41125-1.3433 2.57132-1.4881 2.57762-0.1447 0.01-0.1863-0.8169-0.094-1.82954 0.581-6.51466 0.876-9.51106 0.9495-9.59351 0.05-0.0502 3.1797-0.41136 6.9603-0.79922 3.7813-0.38789 8.1365-0.84013 9.6782-1.00528 4.4432-0.47652 3.9249-0.85888 4.6758 3.4453 0.3663 2.0655 0.8002 4.42414 0.9711 5.24105 0.5929 2.8394 0.2166 2.84508-1.6505 0.0256-2.2791-3.44829-4.6386-5.78284-5.8401-5.78284h-0.8935l0.1915 4.63904c0.6433 15.31573 1.3136 26.297098 1.7158 28.196005 0.353 1.675823 1.153 3.395416 1.8383 3.96532 1.1289 0.93719 0.5581 1.130611-3.8848 1.321406-3.8302 0.164608-5.5773 0.402712-7.0253 0.958088-0.2348 0.09125-0.4111-0.02635-0.4111-0.278457zm40.1438-6.987134c-2.6547-0.563118-4.9459-2.338548-6.9716-5.400996-3.0646-4.633094-4.3435-9.828099-4.3294-17.590359 0.024-6.14915 0.9543-9.73579 3.6214-13.72009 6.1064-9.13319 16.1254-6.93347 20.478 4.49645 1.7852 4.69304 1.987 5.9402 1.9664 12.0353-0.045 6.45996-0.3999 8.36036-2.5293 12.747695-1.3944 2.878922-3.9249 5.712824-6.0777 6.811185-1.4388 0.732418-4.2801 1.01894-6.1578 0.620815zm4.5212-2.25075c2.3159-1.100044 3.3348-4.554632 3.3437-11.334075 0.025-10.31134-1.7379-20.75726-4.0933-24.46826-2.0379-3.21557-5.4611-2.79669-7.0342 0.86055-1.6892 3.92365-1.3671 16.30322 0.6972 26.562582 0.9307 4.651656 2.0737 7.175663 3.727 8.231803 1.1621 0.746295 2.0181 0.783741 3.3596 0.1474zm123.9637-2.31575c-1.2961-0.386378-4.1146-1.121745-6.2624-1.634153-3.7985-0.907343-4.5045-1.23428-3.3247-1.542354 1.1082-0.289698 1.7786-1.927139 1.7786-4.336718 0-1.89884-1.0279-11.14585-1.2693-11.38366-0.1697-0.171-5.6201-1.55961-5.72-1.45778-0.2592 0.25657-2.2434 6.12596-2.7501 8.12872-0.9233 3.64757-0.7456 5.407349 0.6957 6.994305 0.8924 0.978109 0.4009 1.148003-1.6458 0.570419-1.0034-0.283303-2.8626-0.763672-4.1292-1.067476-1.2692-0.303805-2.3951-0.637788-2.495-0.742199-0.1059-0.104391 0.2387-0.526443 0.7618-0.937849 2.3231-1.81412 3.8315-4.73908 11.8408-22.93191 3.281-7.45199 6.0144-13.60421 6.0742-13.67184 0.2992-0.33031 0.5406 0.5883 1.1614 4.45824 1.3455 8.37682 3.678 22.88235 4.5362 28.21193 1.2781 7.932353 1.6892 9.562695 2.6936 10.638853 0.8277 0.885673 1.0781 1.45386 0.6312 1.421771-0.1245-0.0084-1.2809-0.33192-2.577-0.718299zm-9.2928-22.019685c-0.023-0.36462-0.2557-2.51855-0.5446-4.78624-0.3614-2.8492-0.5988-3.94159-0.7687-3.53473-0.134 0.32398-0.8848 2.11303-1.668 3.97559-0.7809 1.86272-1.4244 3.53295-1.4244 3.71162 0 0.2517 2.2701 0.9323 4.2007 1.25913 0.1171 0.022 0.2136-0.26075 0.205-0.62537zm-90.118 19.969819c0-0.269831 0.3876-0.979893 0.8621-1.577889 1.6046-2.022926 1.8944-3.84714 1.7029-10.65826-0.1771-6.10511-1.1142-18.15216-1.7084-21.94549-0.4365-2.75045-1.1732-4.3718-2.2957-5.03501-0.5041-0.29763-0.918-0.6991-0.918-0.89221 0-0.21368 1.1237-0.54637 2.8754-0.84989 1.5765-0.27431 3.6643-0.67338 4.6297-0.88696 0.9668-0.21342 1.85-0.33372 1.9573-0.26749 0.1073 0.0663 0.2848 0.48635 0.3933 0.93332 0.1073 0.44694 1.5231 4.92159 3.1461 9.94351 1.6178 5.02196 3.0835 9.57079 3.2505 10.10822 0.1637 0.53717 0.3424 0.93489 0.3872 0.88341 0.047-0.0495 0.4289-2.3465 0.8431-5.10054 0.417-2.75408 1.2283-8.08034 1.8024-11.83663 0.572-3.75608 1.0378-6.88218 1.0378-6.94704 0-0.0661 0.7944-0.14647 1.7686-0.18158 0.9656-0.0339 2.4999-0.25555 3.3972-0.49003 0.9018-0.23462 1.8979-0.42655 2.2157-0.42655 0.6972 0 0.7507 0.66576 0.089 1.21346-0.4281 0.35322-0.463 0.91596-0.2947 4.63696 0.107 2.32916 0.3197 5.44517 0.4684 6.92394 0.1487 1.47913 0.4251 4.47855 0.6049 6.66555 1.1968 14.24925 1.858 17.72469 3.7081 19.46256 0.9833 0.92672 0.9118 1.450369-0.2087 1.450369-1.4268 0-7.0137 0.869132-8.632 1.342409-2.4117 0.705691-2.671 0.513607-1.7592-1.315004 0.9384-1.882734 1.1351-4.730124 0.7684-11.032154-0.317-5.34691-1.4299-18.53041-1.619-19.13434-0.053-0.13348-1.1783 7.15663-2.5279 16.20007-1.3496 9.04348-2.5545 16.707758-2.681 17.031767-0.1613 0.427887-1.5288-3.400677-4.9963-13.991187-2.6189-8.01886-4.892-14.84503-5.0499-15.169-0.2056-0.42993-0.2414-0.1913-0.1382 0.88382 0.076 0.80986 0.3439 3.92465 0.5938 6.92155 1.2515 15.22973 1.9217 18.236823 4.4958 20.294095 1.6804 1.340203 1.3479 1.688198-1.8501 1.922957-2.5115 0.184229-4.2105 0.534844-5.8007 1.195691-0.3751 0.153883-0.5182 0.07609-0.5182-0.276404zm51.4005-5.215179c-0.8133-0.14939-2.8332-0.28291-4.4955-0.29672-3.3875-0.0281-3.49-0.11186-2.2792-1.89334 0.4022-0.5964 0.858-1.56326 1.0118-2.14853 0.5219-1.97856 0.8753-8.08691 1.1103-19.03169 0.3318-15.52893 0.3447-14.9655-0.4328-16.01935-1.1825-1.60136-0.9475-1.90204 1.33-1.70106 1.092 0.0965 3.6425 0.26003 5.6681 0.36326 10.2694 0.52447 13.5317 2.69544 14.306 9.51803 0.4374 3.86871-1.164 8.34134-3.6739 10.26661-1.7897 1.37159-4.912 2.25837-7.2 2.04532-0.9981-0.0929-2.1093-0.25799-2.4758-0.367l-0.6613-0.19795-0.065 4.37887c-0.1519 9.10115 0.2341 12.98772 1.3943 13.94927 0.2429 0.20303 0.4461 0.618 0.4461 0.92217 0 0.45969-0.2136 0.547185-1.2523 0.518383-0.6887-0.01921-1.9158-0.156884-2.7241-0.306273zm6.4128-22.11837c1.6579-1.57753 2.362-3.88346 2.391-7.87911 0.053-3.80916-0.4227-6.11278-1.3945-7.02434-0.8449-0.7938-2.6075-1.51735-3.6912-1.51735h-0.8669l-0.1651 2.42994c-0.091 1.33645-0.2371 5.11776-0.3265 8.40295l-0.1609 5.97262 0.6703 0.2677c1.3736 0.55235 2.4936 0.34608 3.5438-0.6524z"/>
   </g>
   <path style="isolation:auto;mix-blend-mode:normal" stroke-width="2" stroke="#000" shape-rendering="auto" image-rendering="auto" fill="#006d33" color-rendering="auto" color="#000000" d="m-2462.6131-213.21227c12.8693 6.75489 25.6241 11.62786 37.0449 14.12695 13.2278 2.8945 13.0504 2.6652 19.6738 11.39218 6.6232-8.72698 6.444-8.49768 19.6719-11.39218 11.4207-2.49905 24.1759-7.37221 37.045-14.12695z"/>
   <g stroke="#000" shape-rendering="auto" transform="translate(-420)">
    <g stroke-width="1.70000005" fill="#d7d7d7">
     <path style="isolation:auto;mix-blend-mode:normal" image-rendering="auto" color-rendering="auto" color="#000000" d="m-2050.7713-349.82396c-1.3547 7.44577 0.1214 12.4146 2.75 16.375 3.2847-1.96358 4.8247-5.23563 6.875-8.125"/>
     <path style="isolation:auto;mix-blend-mode:normal" image-rendering="auto" color-rendering="auto" color="#000000" d="m-2102.1463-322.82396c9.7669-2.57593 19.7844 5.65323 20.125 14 0.1987 4.86927-11.3241 9.3246-19 7.125-14.8335-4.25071-11.3288-18.43386-1.125-21.125z"/>
     <path style="isolation:auto;mix-blend-mode:normal" image-rendering="auto" color-rendering="auto" color="#000000" d="m-2080.2263-473.65445c9.0384 13.5807 6.7164 22.60416 6.287 33.94155-0.5486 14.48729-1.215 26.95388 8 40.4052 38.2417-3.51196 50.824 10.9421 57.7698 20.60947 6.8027 2.51576 8.8587 3.31466 15.2663 11.06804 1.5977 1.93332 4.4126-0.20161 6.8698 3.58758-3.8278-1.03464-3.4548 0.70961-3.2823 1.52662 0.6295 2.98156 2.6597-1.03128 3.7403 0.83965 1.4093 2.44012-4.3077 1.26805-1.3871 4.75107 0.632-1.31279 3.9018-1.56052 2.9137 0.97378-1.2722 0.0358-2.5444 0.24697-3.8166 1.06864 1.5537 1.12163 3.0184 0.62127 4.3406 1.38491 2.4309 1.40401 1.9508 2.25651 3.0227 3.64833-1.3127 0.53173-2.8649 1.81493-0.9514 2.82889 1.5122 0.8013 2.829 1.71773 3.6053 3.28225 0.9529 2.69834 2.4954 5.85116 2.8073 7.90844-0.8035 0.95515-2.4144 0.69912-3.741 0.86967 1.0943 0.39551 2.2813 0.5346 2.8929 1.66613 0.7572 1.40077 0.6467 3.79073-1.4426 3.75339 1.0733 1.22677 1.1172 2.26639 0.6106 3.20592-1.6898-0.72847-3.1768-0.89962-4.5799-0.83965 2.3747 2.61072 2.2928 5.00307 1.4503 7.32782-0.5496-0.42487-1.3336-2.37744-2.9769-1.22131 1.4837 2.90134 1.2952 4.8966 0.7355 7.03175-0.8812-0.73928-1.7625-1.34295-2.6438-2.90985-0.6989 1.96872-1.7307 2.73532-3.2143 3.20591-0.921-2.42483-2.8125-4.52831-4.6478-4.57988 1.6004 1.58269 1.5897 6.16687 0.8396 8.39645-1.2894-0.40513-2.0971-1.14263-2.734-2.75718-3.4368 1.97537-5.4702 2.89628-5.5097-3.12033l-2.748 2.28994c-1.2739-1.1677-2.2902-3.52007-3.2059-6.3355-0.8768 0.0993 0.8281 5.85757 0.6145 7.92999-5.6071 0.83075-4.0056-4.66937-4.6601-8.08266-0.1435-0.74858 0.2338-1.40727-1.4233-1.26138-1.5585 0.13721-3.3016-1.62113-4.9615-2.51894 1.8494-0.33498 4.9412-0.20157 4.0186-2.86051-2.8301 1.1567-3.6663-1.67457-5.2669-2.97692 2.9958-1.14652 6.2382-4.48508 0.1426-4.51664-0.9156-2.51199 0.8633-3.64029 1.9947-5.10111-0.6808-0.11814-1.8886 0.26681-1.374-0.99231 2.9888-2.73502 5.491-9.17743 0.687-11.52603 6.4245 9.3062-12.9665 13.2943-17.6326 10.30473-0.2345 6.77928-2.0826 9.43515-4.1218 11.60237-4.6177-2.92022-6.2266-10.35375-8.5492-16.71657-13.0397-1.81307-22.4627-12.52845-30.2272-27.32663-14.5794-20.9647-6.7813-24.22776-10.2421-65.45001-1.1357-13.52776-7.0499-21.50153-7.7721-31.03284-0.8381-11.06073 13.4792-6.21527 14.503-3.28224z"/>
    </g>
    <g fill="none">
     <path style="isolation:auto;mix-blend-mode:normal" image-rendering="auto" color-rendering="auto" color="#000000" d="m-2094.7293-470.37221c2.9358 14.25536 11.116 18.4284 11.0758 30.20144-0.069 20.10816-2.8889 41.31071 4.9497 49.49747"/>
     <path style="isolation:auto;mix-blend-mode:normal" image-rendering="auto" color-rendering="auto" color="#000000" d="m-2060.1726-390.16441c-2.765-1.96146-4.6503-5.20349-5.7667-9.14329"/>
     <path style="isolation:auto;mix-blend-mode:normal" image-rendering="auto" color-rendering="auto" color="#000000" d="m-2077.4663-448.47928c2.4205-5.4772 3.1235-11.56776 0.8848-18.70895"/>
    </g>
    <path style="isolation:auto;mix-blend-mode:normal" image-rendering="auto" fill="#d7d7d7" color-rendering="auto" color="#000000" d="m-2090.8963-472.07396-3.8641 0.49671c-4.5773-7.30047-13.4911-18.45567-13.6984-21.87171 4.6507 1.30998 12.1667 11.625 18.25 17.4375z"/>
    <g fill="none">
     <g>
      <path style="isolation:auto;mix-blend-mode:normal" image-rendering="auto" color-rendering="auto" color="#000000" d="m-2090.8963-472.07396-17.5625-21.375"/>
      <path style="isolation:auto;mix-blend-mode:normal" image-rendering="auto" color-rendering="auto" color="#000000" d="m-1569.3926-1451.1078a1.051883 3.25 0 0 1-1.0422 3.2789 1.051883 3.25 0 0 1-1.0615-3.2191 1.051883 3.25 0 0 1 1.0417-3.2806 1.051883 3.25 0 0 1 1.062 3.2176" transform="rotate(-30)"/>
      <path style="isolation:auto;mix-blend-mode:normal" image-rendering="auto" color-rendering="auto" color="#000000" d="m-2033.8169-341.44853c-1.03-0.37412-0.4978-1.1946-0.4544-1.87543"/>
      <path style="isolation:auto;mix-blend-mode:normal" image-rendering="auto" color-rendering="auto" color="#000000" d="m-2056.3963-367.57396c2.0392 3.11051 3.4822 6.78404 6.3608 8.58525 7.032 4.40023 9.1149-2.49608 21.8892 12.03975"/>
      <path style="isolation:auto;mix-blend-mode:normal" image-rendering="auto" color-rendering="auto" color="#000000" d="m-2027.3963-352.07396c1 2.58334 2.5 4.16666 4.5 4.75"/>
      <path style="isolation:auto;mix-blend-mode:normal" image-rendering="auto" color-rendering="auto" color="#000000" d="m-2023.0838-351.69896c1.134 1.58322 2.4706 2.45717 3.9375 2.875"/>
      <path style="isolation:auto;mix-blend-mode:normal" image-rendering="auto" color-rendering="auto" color="#000000" d="m-2014.161-333.21541c3.9425-4.99504 3.4906-11.83782 2.1397-16.48355"/>
      <path style="isolation:auto;mix-blend-mode:normal" image-rendering="auto" color-rendering="auto" color="#000000" d="m-2011.2088-369.32396c1.3795 2.29122 0.4416 4.81417-1.5 7.4375"/>
      <path style="isolation:auto;mix-blend-mode:normal" image-rendering="auto" color-rendering="auto" color="#000000" d="m-2006.2713-344.38646c-1.06 3.55618-4.4837 7.45006-2.4375 10.5625"/>
      <path style="isolation:auto;mix-blend-mode:normal" image-rendering="auto" color-rendering="auto" color="#000000" d="m-2010.5047-321.22536c2.4945 0.11818 1.753-5.22437 1.7334-9.3486"/>
      <path style="isolation:auto;mix-blend-mode:normal" image-rendering="auto" color-rendering="auto" color="#000000" d="m-2003.0838-319.88646c-0.4442-3.05525-2.9503-6.22533-2.8617-9.49626 0.2528-9.32558 5.6507-15.27542-2.3883-25.75374"/>
      <path style="isolation:auto;mix-blend-mode:normal" image-rendering="auto" color-rendering="auto" color="#000000" d="m-2001.0838-332.57396c-2.0553 8.0986 0.8713 13.15272 4.75 17.625"/>
      <path style="isolation:auto;mix-blend-mode:normal" image-rendering="auto" color-rendering="auto" color="#000000" d="m-1998.3338-328.76146c0.3145 7.73843 4.0983 9.83162 5.7359 10.44133"/>
      <path style="isolation:auto;mix-blend-mode:normal" image-rendering="auto" color-rendering="auto" color="#000000" d="m-1994.2088-335.26146c-1.0979 4.15638 0.069 6.20965 1.25 8.25"/>
      <path style="isolation:auto;mix-blend-mode:normal" image-rendering="auto" color-rendering="auto" color="#000000" d="m-1988.6463-330.32396c-3.0682 4.12605-0.1404 7.14174 0.9375 10.5"/>
      <path style="isolation:auto;mix-blend-mode:normal" image-rendering="auto" color-rendering="auto" color="#000000" d="m-1981.4588-344.19896c2.8595 11.83767-6.2965 16.17769-3.277 27.2528"/>
      <path style="isolation:auto;mix-blend-mode:normal" image-rendering="auto" color-rendering="auto" color="#000000" d="m-1995.0213-346.76146c0.8419 4.29192 0.9522 7.77095-1.1875 8.75"/>
      <path style="isolation:auto;mix-blend-mode:normal" image-rendering="auto" color-rendering="auto" color="#000000" d="m-1990.4588-348.57396c-0.575 6.7546 0.9983 11.46828 3.75 15.0625"/>
      <path style="isolation:auto;mix-blend-mode:normal" image-rendering="auto" color-rendering="auto" color="#000000" d="m-1985.1463-339.94896c1.0096-0.23645 1.7194-1.22227 2.0625-3.125"/>
      <path style="isolation:auto;mix-blend-mode:normal" image-rendering="auto" color-rendering="auto" color="#000000" d="m-1996.6463-331.07396c-0.3755-4.91616-4.432-7.64366-4.4791-10.99822-0.141-10.06239 5.2159-16.6207-1.7709-28.93928"/>
      <path style="isolation:auto;mix-blend-mode:normal" image-rendering="auto" color-rendering="auto" color="#000000" d="m-1996.3963-357.13646c2.3424 1.5537 2.0625 3.87866 1.625 6.25 1.8722-2.72866 5.5949-4.93686 2.5-9.0625"/>
     </g>
     <g stroke-width="2">
      <path style="isolation:auto;mix-blend-mode:normal" image-rendering="auto" color-rendering="auto" color="#000000" d="m-2048.0213-333.44896c-2.6013 5.31345-3.6325 11.15027-4.25 17.125-11.8217-4.06485-23.9136-7.58954-38.75-5.625-3.8366-1.41756-10.8414-2.17793-15.5 4.625"/>
      <path style="isolation:auto;mix-blend-mode:normal" image-rendering="auto" color-rendering="auto" color="#000000" d="m-2101.3963-314.94896c-1.0948-5.12098 7.7044-6.26928 10.375-7-0.7917 3.125-4.9084 7.01732-2.375 9.375"/>
      <path style="isolation:auto;mix-blend-mode:normal" image-rendering="auto" color-rendering="auto" color="#000000" d="m-2037.9387-329.84616c2.5942 10.26555 6.3047 17.74036 9.7924 25.7722-5.3562 12.94772-10.1773 25.31917-12.5 35-4.1682 0.90863-13.1932-2.40613-17 5.125"/>
      <path style="isolation:auto;mix-blend-mode:normal" image-rendering="auto" color-rendering="auto" color="#000000" d="m-2050.8963-262.44896c0.4506-6.41612 6.6637-5.43452 10.25-6.625-2.6134 1.89006-6.8346 1.69937-5.75 8.375"/>
      <path style="isolation:auto;mix-blend-mode:normal" image-rendering="auto" color-rendering="auto" color="#000000" d="m-2040.0213-261.07396c-2.352-1.28862-1.4951-4.64004-0.625-8 7.0976 0.41909 9.5486 3.03695 9.125 6.875"/>
      <path style="isolation:auto;mix-blend-mode:normal" image-rendering="auto" color-rendering="auto" color="#000000" d="m-2027.1734-304.2382a0.9722718 0.9722718 0 0 1-0.9633 0.98094 0.9722718 0.9722718 0 0 1-0.9812-0.96305 0.9722718 0.9722718 0 0 1 0.9629-0.98141 0.9722718 0.9722718 0 0 1 0.9816 0.96257"/>
      <path style="isolation:auto;mix-blend-mode:normal" image-rendering="auto" color-rendering="auto" color="#000000" d="m-2051.4057-316.38224a0.9722718 0.9722718 0 0 1-0.9633 0.98094 0.9722718 0.9722718 0 0 1-0.9812-0.96305 0.9722718 0.9722718 0 0 1 0.9629-0.98141 0.9722718 0.9722718 0 0 1 0.9816 0.96257"/>
     </g>
    </g>
   </g>
   <g stroke="#000" shape-rendering="auto" fill="#f6b801" transform="translate(-900)">
    <path style="isolation:auto;mix-blend-mode:normal" image-rendering="auto" color-rendering="auto" color="#000000" d="m-1439.0745-485.95593h2.6517v106.77311c0 1.84599-2.6517 1.75911-2.6517 0z"/>
    <path style="isolation:auto;mix-blend-mode:normal" image-rendering="auto" color-rendering="auto" color="#000000" d="m-1463.2697-480.36745 2.5083-0.8598c16.6023 41.2065 16.7128 71.03521 17.2516 93.80139 0.044 1.84551-2.2801 1.91173-2.2872 0.15269-0.1057-26.12898-3.565-59.15021-17.4727-93.09428z"/>
    <path style="isolation:auto;mix-blend-mode:normal" image-rendering="auto" color-rendering="auto" color="#000000" d="m-1412.6229-480.36745-2.5083-0.8598c-16.6023 41.2065-16.7128 71.03521-17.2516 93.80139-0.044 1.84551 2.2801 1.91173 2.2872 0.15269 0.1057-26.12898 3.565-59.15021 17.4727-93.09428z"/>
    <path style="isolation:auto;mix-blend-mode:normal" image-rendering="auto" color-rendering="auto" color="#000000" d="m-1432.9944-522.06463c-5.1512 0.60737-5.2452 5.45887-3.3476 7.60889 2.2978-0.87073 5.8611-3.3372 3.3476-7.60889z"/>
    <path style="isolation:auto;mix-blend-mode:normal" image-rendering="auto" color-rendering="auto" color="#000000" d="m-1443.2015-521.97623c5.1512 0.60737 5.2452 5.45887 3.3476 7.60889-2.2978-0.87073-5.8611-3.3372-3.3476-7.60889z"/>
    <path style="isolation:auto;mix-blend-mode:normal" image-rendering="auto" color-rendering="auto" color="#000000" d="m-1438.1905-519.36672c4.5518 2.48637 2.828 7.02225 0.2651 8.3085-1.807-1.66563-4.1918-5.28398-0.2651-8.3085z"/>
    <path style="isolation:auto;mix-blend-mode:normal" image-rendering="auto" color-rendering="auto" color="#000000" d="m-1432.9944-496.06463c-5.1512 0.60737-5.2452 5.45887-3.3476 7.60889 2.2978-0.87073 5.8611-3.3372 3.3476-7.60889z"/>
    <path style="isolation:auto;mix-blend-mode:normal" image-rendering="auto" color-rendering="auto" color="#000000" d="m-1443.2015-495.97623c5.1512 0.60737 5.2452 5.45887 3.3476 7.60889-2.2978-0.87073-5.8611-3.3372-3.3476-7.60889z"/>
    <path style="isolation:auto;mix-blend-mode:normal" image-rendering="auto" color-rendering="auto" color="#000000" d="m-1438.1905-493.36672c4.5518 2.48637 2.828 7.02225 0.2651 8.3085-1.807-1.66563-4.1918-5.28398-0.2651-8.3085z"/>
    <path style="isolation:auto;mix-blend-mode:normal" image-rendering="auto" color-rendering="auto" color="#000000" d="m-1432.9944-515.56463c-5.1512 0.60737-5.2452 5.45887-3.3476 7.60889 2.2978-0.87073 5.8611-3.3372 3.3476-7.60889"/>
    <path style="isolation:auto;mix-blend-mode:normal" image-rendering="auto" color-rendering="auto" color="#000000" d="m-1443.2015-515.47623c5.1512 0.60737 5.2452 5.45887 3.3476 7.60889-2.2978-0.87073-5.8611-3.3372-3.3476-7.60889"/>
    <path style="isolation:auto;mix-blend-mode:normal" image-rendering="auto" color-rendering="auto" color="#000000" d="m-1438.1905-512.86672c4.5518 2.48637 2.828 7.02225 0.2651 8.3085-1.807-1.66563-4.1918-5.28398-0.2651-8.3085"/>
    <path style="isolation:auto;mix-blend-mode:normal" image-rendering="auto" color-rendering="auto" color="#000000" d="m-1432.9944-509.06463c-5.1512 0.60737-5.2452 5.45887-3.3476 7.60889 2.2978-0.87073 5.8611-3.3372 3.3476-7.60889"/>
    <path style="isolation:auto;mix-blend-mode:normal" image-rendering="auto" color-rendering="auto" color="#000000" d="m-1443.2015-508.97623c5.1512 0.60737 5.2452 5.45887 3.3476 7.60889-2.2978-0.87073-5.8611-3.3372-3.3476-7.60889"/>
    <path style="isolation:auto;mix-blend-mode:normal" image-rendering="auto" color-rendering="auto" color="#000000" d="m-1438.1905-506.36672c4.5518 2.48637 2.828 7.02225 0.2651 8.3085-1.807-1.66563-4.1918-5.28398-0.2651-8.3085"/>
    <path style="isolation:auto;mix-blend-mode:normal" image-rendering="auto" color-rendering="auto" color="#000000" d="m-1432.9944-502.56463c-5.1512 0.60737-5.2452 5.45887-3.3476 7.60889 2.2978-0.87073 5.8611-3.3372 3.3476-7.60889"/>
    <path style="isolation:auto;mix-blend-mode:normal" image-rendering="auto" color-rendering="auto" color="#000000" d="m-1443.2015-502.47623c5.1512 0.60737 5.2452 5.45887 3.3476 7.60889-2.2978-0.87073-5.8611-3.3372-3.3476-7.60889"/>
    <path style="isolation:auto;mix-blend-mode:normal" image-rendering="auto" color-rendering="auto" color="#000000" d="m-1438.1905-499.86672c4.5518 2.48637 2.828 7.02225 0.2651 8.3085-1.807-1.66563-4.1918-5.28398-0.2651-8.3085"/>
    <path style="isolation:auto;mix-blend-mode:normal" image-rendering="auto" color-rendering="auto" color="#000000" d="m-1432.9944-490.06463c-5.1512 0.60737-5.2452 5.45887-3.3476 7.60889 2.2978-0.87073 5.8611-3.3372 3.3476-7.60889z"/>
    <path style="isolation:auto;mix-blend-mode:normal" image-rendering="auto" color-rendering="auto" color="#000000" d="m-1443.2015-489.97623c5.1512 0.60737 5.2452 5.45887 3.3476 7.60889-2.2978-0.87073-5.8611-3.3372-3.3476-7.60889z"/>
    <path style="isolation:auto;mix-blend-mode:normal" image-rendering="auto" color-rendering="auto" color="#000000" d="m-1437.8963-550.94896v27.75"/>
    <path style="isolation:auto;mix-blend-mode:normal" image-rendering="auto" color-rendering="auto" color="#000000" d="m-1441.5213-551.19896v24.25"/>
    <path style="isolation:auto;mix-blend-mode:normal" image-rendering="auto" color-rendering="auto" color="#000000" d="m-1433.5213-551.19896v24.25"/>
    <path style="isolation:auto;mix-blend-mode:normal" image-rendering="auto" color-rendering="auto" color="#000000" d="m-1471.8504-516.20276c-4.5314 2.5241-2.7699 7.04552-0.1963 8.31042 1.7928-1.68049 4.1476-5.3185 0.1963-8.31042z"/>
    <path style="isolation:auto;mix-blend-mode:normal" image-rendering="auto" color-rendering="auto" color="#000000" d="m-1481.2541-512.23226c4.9941-1.40098 6.9294 3.04882 5.994 5.75964-2.4562 0.0704-6.6904-0.85251-5.994-5.75964z"/>
    <path style="isolation:auto;mix-blend-mode:normal" image-rendering="auto" color-rendering="auto" color="#000000" d="m-1475.6268-511.72868c5.1558 0.56468 5.2901 5.41521 3.4105 7.58088-2.3053-0.85157-5.8888-3.28845-3.4105-7.58088z"/>
    <path style="isolation:auto;mix-blend-mode:normal" image-rendering="auto" color-rendering="auto" color="#000000" d="m-1461.9448-492.16366c-4.5313 2.5241-2.7699 7.04552-0.1963 8.31043 1.7928-1.68049 4.1477-5.31851 0.1963-8.31043z"/>
    <path style="isolation:auto;mix-blend-mode:normal" image-rendering="auto" color-rendering="auto" color="#000000" d="m-1471.3484-488.19316c4.9941-1.40097 6.9293 3.04882 5.994 5.75964-2.4563 0.0704-6.6905-0.85251-5.994-5.75964z"/>
    <path style="isolation:auto;mix-blend-mode:normal" image-rendering="auto" color-rendering="auto" color="#000000" d="m-1465.7212-487.68958c5.1558 0.56468 5.2901 5.41521 3.4106 7.58088-2.3053-0.85157-5.8888-3.28845-3.4106-7.58088z"/>
    <path style="isolation:auto;mix-blend-mode:normal" image-rendering="auto" color-rendering="auto" color="#000000" d="m-1469.374-510.19298c-4.5313 2.52409-2.7699 7.04551-0.1963 8.31042 1.7928-1.68049 4.1476-5.31851 0.1963-8.31042"/>
    <path style="isolation:auto;mix-blend-mode:normal" image-rendering="auto" color-rendering="auto" color="#000000" d="m-1478.7777-506.22249c4.9941-1.40097 6.9294 3.04882 5.9941 5.75965-2.4563 0.0704-6.6905-0.85252-5.9941-5.75965"/>
    <path style="isolation:auto;mix-blend-mode:normal" image-rendering="auto" color-rendering="auto" color="#000000" d="m-1473.1504-505.71891c5.1558 0.56468 5.2901 5.41521 3.4105 7.58089-2.3053-0.85157-5.8887-3.28846-3.4105-7.58089"/>
    <path style="isolation:auto;mix-blend-mode:normal" image-rendering="auto" color-rendering="auto" color="#000000" d="m-1466.8976-504.18321c-4.5313 2.5241-2.7699 7.04552-0.1963 8.31043 1.7928-1.68049 4.1477-5.31851 0.1963-8.31043"/>
    <path style="isolation:auto;mix-blend-mode:normal" image-rendering="auto" color-rendering="auto" color="#000000" d="m-1476.3012-500.21271c4.9941-1.40097 6.9293 3.04882 5.994 5.75964-2.4563 0.0704-6.6905-0.85251-5.994-5.75964"/>
    <path style="isolation:auto;mix-blend-mode:normal" image-rendering="auto" color-rendering="auto" color="#000000" d="m-1470.674-499.70913c5.1558 0.56468 5.2901 5.41521 3.4105 7.58088-2.3053-0.85157-5.8887-3.28845-3.4105-7.58088"/>
    <path style="isolation:auto;mix-blend-mode:normal" image-rendering="auto" color-rendering="auto" color="#000000" d="m-1464.4212-498.17343c-4.5313 2.5241-2.7699 7.04551-0.1963 8.31042 1.7928-1.68049 4.1477-5.31851 0.1963-8.31042"/>
    <path style="isolation:auto;mix-blend-mode:normal" image-rendering="auto" color-rendering="auto" color="#000000" d="m-1473.8248-494.20294c4.9941-1.40097 6.9293 3.04882 5.994 5.75965-2.4563 0.0704-6.6905-0.85252-5.994-5.75965"/>
    <path style="isolation:auto;mix-blend-mode:normal" image-rendering="auto" color-rendering="auto" color="#000000" d="m-1468.1976-493.69935c5.1558 0.56467 5.2901 5.41521 3.4106 7.58088-2.3053-0.85157-5.8888-3.28845-3.4106-7.58088"/>
    <path style="isolation:auto;mix-blend-mode:normal" image-rendering="auto" color-rendering="auto" color="#000000" d="m-1459.6589-486.61617c-4.5313 2.5241-2.7699 7.04551-0.1962 8.31042 1.7927-1.68049 4.1476-5.31851 0.1962-8.31042z"/>
    <path style="isolation:auto;mix-blend-mode:normal" image-rendering="auto" color-rendering="auto" color="#000000" d="m-1469.0625-482.64568c4.9941-1.40097 6.9294 3.04882 5.994 5.75965-2.4562 0.0704-6.6905-0.85252-5.994-5.75965z"/>
    <path style="isolation:auto;mix-blend-mode:normal" image-rendering="auto" color-rendering="auto" color="#000000" d="m-1487.3872-541.0411 10.5724 25.65712"/>
    <path style="isolation:auto;mix-blend-mode:normal" image-rendering="auto" color-rendering="auto" color="#000000" d="m-1490.834-539.89117 9.2389 22.42108"/>
    <path style="isolation:auto;mix-blend-mode:normal" image-rendering="auto" color-rendering="auto" color="#000000" d="m-1483.4374-542.93906 9.2389 22.42109"/>
    <path style="isolation:auto;mix-blend-mode:normal" image-rendering="auto" color-rendering="auto" color="#000000" d="m-1510.669-454.66646c8.5877 0.47157 17.6075-0.713 28.9914-10.96016 23.7015 25.01502 30.4387 50.88016 31.4662 66.11449-6.0903-13.75977-3.4554-29.35463-31.1127-57.98276-12.7719 5.92654-20.6078 3.62653-29.3449 2.82843z"/>
    <path style="isolation:auto;mix-blend-mode:normal" image-rendering="auto" color-rendering="auto" color="#000000" d="m-1404.0421-516.20276c4.5313 2.5241 2.7699 7.04552 0.1962 8.31042-1.7927-1.68049-4.1476-5.3185-0.1962-8.31042z"/>
    <path style="isolation:auto;mix-blend-mode:normal" image-rendering="auto" color-rendering="auto" color="#000000" d="m-1394.6385-512.23226c-4.9941-1.40098-6.9294 3.04882-5.994 5.75964 2.4562 0.0704 6.6905-0.85251 5.994-5.75964z"/>
    <path style="isolation:auto;mix-blend-mode:normal" image-rendering="auto" color-rendering="auto" color="#000000" d="m-1400.2658-511.72868c-5.1557 0.56468-5.29 5.41521-3.4105 7.58088 2.3053-0.85157 5.8888-3.28845 3.4105-7.58088z"/>
    <path style="isolation:auto;mix-blend-mode:normal" image-rendering="auto" color-rendering="auto" color="#000000" d="m-1413.9477-492.16366c4.5313 2.5241 2.7698 7.04552 0.1962 8.31043-1.7928-1.68049-4.1476-5.31851-0.1962-8.31043z"/>
    <path style="isolation:auto;mix-blend-mode:normal" image-rendering="auto" color-rendering="auto" color="#000000" d="m-1404.5441-488.19316c-4.9941-1.40097-6.9294 3.04882-5.994 5.75964 2.4562 0.0704 6.6905-0.85251 5.994-5.75964z"/>
    <path style="isolation:auto;mix-blend-mode:normal" image-rendering="auto" color-rendering="auto" color="#000000" d="m-1410.1714-487.68958c-5.1558 0.56468-5.2901 5.41521-3.4105 7.58088 2.3053-0.85157 5.8888-3.28845 3.4105-7.58088z"/>
    <path style="isolation:auto;mix-blend-mode:normal" image-rendering="auto" color-rendering="auto" color="#000000" d="m-1406.5185-510.19298c4.5313 2.52409 2.7699 7.04551 0.1962 8.31042-1.7927-1.68049-4.1476-5.31851-0.1962-8.31042"/>
    <path style="isolation:auto;mix-blend-mode:normal" image-rendering="auto" color-rendering="auto" color="#000000" d="m-1397.1149-506.22249c-4.9941-1.40097-6.9294 3.04882-5.994 5.75965 2.4562 0.0704 6.6905-0.85252 5.994-5.75965"/>
    <path style="isolation:auto;mix-blend-mode:normal" image-rendering="auto" color-rendering="auto" color="#000000" d="m-1402.7422-505.71891c-5.1557 0.56468-5.2901 5.41521-3.4105 7.58089 2.3053-0.85157 5.8888-3.28846 3.4105-7.58089"/>
    <path style="isolation:auto;mix-blend-mode:normal" image-rendering="auto" color-rendering="auto" color="#000000" d="m-1408.9949-504.18321c4.5313 2.5241 2.7698 7.04552 0.1962 8.31043-1.7927-1.68049-4.1476-5.31851-0.1962-8.31043"/>
    <path style="isolation:auto;mix-blend-mode:normal" image-rendering="auto" color-rendering="auto" color="#000000" d="m-1399.5913-500.21271c-4.9941-1.40097-6.9294 3.04882-5.994 5.75964 2.4562 0.0704 6.6905-0.85251 5.994-5.75964"/>
    <path style="isolation:auto;mix-blend-mode:normal" image-rendering="auto" color-rendering="auto" color="#000000" d="m-1405.2186-499.70913c-5.1557 0.56468-5.2901 5.41521-3.4105 7.58088 2.3053-0.85157 5.8888-3.28845 3.4105-7.58088"/>
    <path style="isolation:auto;mix-blend-mode:normal" image-rendering="auto" color-rendering="auto" color="#000000" d="m-1411.4713-498.17343c4.5313 2.5241 2.7698 7.04551 0.1962 8.31042-1.7927-1.68049-4.1476-5.31851-0.1962-8.31042"/>
    <path style="isolation:auto;mix-blend-mode:normal" image-rendering="auto" color-rendering="auto" color="#000000" d="m-1402.0677-494.20294c-4.9941-1.40097-6.9294 3.04882-5.994 5.75965 2.4562 0.0704 6.6905-0.85252 5.994-5.75965"/>
    <path style="isolation:auto;mix-blend-mode:normal" image-rendering="auto" color-rendering="auto" color="#000000" d="m-1407.695-493.69935c-5.1558 0.56467-5.2901 5.41521-3.4105 7.58088 2.3053-0.85157 5.8888-3.28845 3.4105-7.58088"/>
    <path style="isolation:auto;mix-blend-mode:normal" image-rendering="auto" color-rendering="auto" color="#000000" d="m-1416.2336-486.61617c4.5313 2.5241 2.7698 7.04551 0.1962 8.31042-1.7928-1.68049-4.1476-5.31851-0.1962-8.31042z"/>
    <path style="isolation:auto;mix-blend-mode:normal" image-rendering="auto" color-rendering="auto" color="#000000" d="m-1406.83-482.64568c-4.9941-1.40097-6.9294 3.04882-5.994 5.75965 2.4562 0.0704 6.6904-0.85252 5.994-5.75965z"/>
    <path style="isolation:auto;mix-blend-mode:normal" image-rendering="auto" color-rendering="auto" color="#000000" d="m-1388.5054-541.0411-10.5723 25.65712"/>
    <path style="isolation:auto;mix-blend-mode:normal" image-rendering="auto" color-rendering="auto" color="#000000" d="m-1385.0585-539.89117-9.2389 22.42108"/>
    <path style="isolation:auto;mix-blend-mode:normal" image-rendering="auto" color-rendering="auto" color="#000000" d="m-1392.4552-542.93906-9.2389 22.42109"/>
    <path style="isolation:auto;mix-blend-mode:normal" image-rendering="auto" color-rendering="auto" color="#000000" d="m-1365.2236-454.66646c-8.5877 0.47157-17.6075-0.713-28.9914-10.96016-23.7015 25.01502-30.4387 50.88016-31.4662 66.11449 6.0903-13.75977 3.4554-29.35463 31.1127-57.98276 12.7719 5.92654 20.6078 3.62653 29.3449 2.82843z"/>
   </g>
   <g stroke-width="1.5" stroke="#000" transform="translate(-40)">
    <g stroke-linejoin="round" stroke-linecap="square">
     <path fill="#da251c" d="m-2555.6463-554.19896c-38.1189-1.54409-41.3443 36.41318-21.75 39.5 0.4228-3.61265-0.6697-6.02715 0-9 2.1532-9.55799 11.6635-10.30662 17.75-11-2.147 4.69219-7.672 8.78827-4.75 14.375 5.4786-6.62398 7.4282-17.70266 22.375-12.375-2.7305 1.83179-4.1074 1.53769-5.2107 3.02904-1.6363 2.21178 0.817 4.65165-2.9143 8.22096 10.8816-8.31147 19.2399-9.05312 24.125 0.625-4.2044 0.22848-8.1696 0.89056-9.75 5.875 5.92-4.23746 9.157-1.76745 12.125 1.375 3.0316 1.20379 6.5861 1.78004 8.875 3.875-5.8188 9.28294-11.3875 10.19011-16.875 8.375 0.8364 2.87241 6.0875 1.99229 10 2.25 0.049 13.80377-25.1721 6.98948-27.875 12.25 18.3837-0.71342 29.6507 6.40846 33.75 22.875 13.1259 32.77608 1.7987 49.09646-4.375 61.5l-11.125 15.875c8.5536 8.9801 13.8264 18.06272 11.75 27.375 12.6369 14.45064 4.9231 40.28308-9.5 40.75-7.2245 0.23388-9.5314-5.95537-8.4375-9.0625 1.4076 2.30901 2.8465 3.69954 4.4375 3.0625 3.7267-1.49219 7.4612-2.92122 9.25-6-3.0155 1.86133-6.1359 3.44317-10.625 1.375l3-2.625c0.9226-2.51788 2.1228-3.92556 3.375-5.125 2.7947-13.33993-21.5624-5.00332-31.75-15.75-12.6235-16.34488-6.0527-31.97498-3.625-39.625l33.875-23.75-0.5-24.5-7.5-7.5c0.8051 9.9056-2.9958 11.45868-5.5152 14.49372 0.1193-3.75551-2.8787-5.35324-3.3105-8.6475-0.5385-4.1075 0.7043-9.84018-4.7993-13.09622 3.354 9.39565 0.621 12.70429-3.25 14.875 0.9675-6.84385-3.0204-8.02434-5-11.5-1.1084 2.99947-2.0743 6.71163-3.625 7.5-1.2047-1.47876-1.0059-3.01386-2.3568-4.05399-2.1638-1.66592-4.8903-0.4942-8.1432-4.19601 3.8091 4.65394 6.0998 9.20666 6.375 13.625-2.6617-0.63432-4.1058-1.51218-5.625-2.375 1.5609 7.09378 0.1784 10.99881-1 15.125-6.7861-2.40076-10.7778-7.96845-10.5-18.375-1.2083-0.63244-2.4167 2.87248-3.625 4.375-6.6652-4.84781 4.7082-27.55483-7.875-25.75 5.7902 2.2505 4.3885 12.941 2 16.625-1.5706-0.95732-3.4211-1.66269-3.875-3.625-0.6625 2.3322-0.1865 4.52221-0.6505 6.26534-0.6869 2.58071-0.7533 0.92669-2.5995 6.98466-3.8526-1.61686-5.4543-6.40531-6.75-11.625-1.0163 2.35407-2.1873 2.56529-3.4482 5.35355-9.9158-13.84396-8.5086-25.00551-1.0304-34.85355 0.9501-7.50813-3.403-12.03159-9.0491-16.87608-3.9724-3.40834-7.8083-9.57749-10.2715-18.09619l0.1742-27.27773 26.25-52 76.8443-7.90815-3.089 39.139"/>
     <path fill="#d7d7d7" d="m-2428.0213-582.82396 4-42.5-62.25-38.5c-6.5594-7.65454-14.9791-3.89407-19.25-9.25-6.2648 4.02364-6.8398 8.38197-5.125 12.875-2.0114 1.26516-3.9725 1.72691-5.75-0.75l-0.375 3.625c-5.8938 5.13595 1.0261 14.6876 2 18.625l-72 5.375-5 20.55546c-10.2264 6.46287-19.0854 9.79669-26.0672 8.91129-2.6177-0.33198-16.7194-12.89447-22.4328-3.21675l7.125 2c-18.1234 3.7509-17.4593 4.76023-19.625 12 6.7027 7.04866 9.7382-3.14712 17.75-1.5-4.7298 2.42261-10.6655 5.94928 0.25 3.625 7.3088-1.55629 0.6365 2.83133-4.875 2.875-6.9388 0.055-14.9309-1.28197-17.375 9.375 2.0965-0.0211 6.6015-1.89834 6.125 0.72855-11.4435 7.84404-6.7415 11.83033-10.875 13.52145 10.7764 5.22304 18.2409-2.97256 19.5-7.375 0.438 6.68521-3.6088 4.83755-3.75 8.75 7.2277 0.52947 11.9005-3.74143 17.125-7-15.9141 14.72667-18.8318 24.07168-18.875 30.75-0.039 6.04372-0.3643 10.67735 2.25 11.625 2.7262-3.10395 6.7113-7.61043 6.125-11.75 3.2964 5.59324-12.8288 19.11448-1.375 28.25-0.25-3.84825 3.1723-10.06183 4.5-11-1.862 10.21298-1.4155 18.79085 2.375 25 2.4709-0.17849 5.5376-5.00991 5.25-15.875-6.2779-33.08838 17.5262-9.45655 20.25-3.75 9.7357 11.02324 22.9216 17.91359 26.75 8.625-12.927-1.01504-17.891-8.08287-18.5-20.75-0.3725-16.95145 5.2597-15.53177 9.5-19.875-5.808 1.56399-10.1532 5.23011-13.25 4.375 2.1093-14.54858 8.7246-16.03313 12.5-17.625-3.7134-0.47252-7.4279 0.72436-10.25-2.125 11.5264-21.0402 27.5632-7.73181 30.75-7.625 3.9203-6.63811-11.4717-5.17675-6.125-11.75 14.3726-3.32004 26.6227 3.22896 31.875 10.375-10.5676-2.22864-14.888 1.6063-14.125 10.375 5.4323-2.03725 9.1453-0.97815 15.75-1.75-14.5407 5.75938-19.9563 10.13425-14.375 29.5 3.8317-1.41458 2.9951-4.53828 5.6046-7.02745 1.7899-1.70734 3.7054-1.49449 5.7135-2.95759 3.4852-2.53943 4.2476-5.10423 8.8069-6.88996-5.1314 4.28308-3.4314 5.79654-3.3107 8.50826 0.1359 3.05198 0.1297 6.13008 0.6857 8.86674 4.0582-2.54912 7.3924-6.33926 9.125-12.875l12.75-27.25"/>
     <path fill="#d7d7d7" d="m-2619.5706-622.95787c-1.0606 0-21.9203-2.65165-21.9203-2.65165l-16.0867-6.18719-5.7441 7.11002c-2.1896-10.52963-0.092-17.45713 11.5778-15.06497 9.1301-16.77833 21.338 13.25457 40.0705 5.83203l5.7146 2.12292"/>
    </g>
    <g stroke-linejoin="round" stroke-linecap="square" fill="none">
     <path d="m-2616.1808-525.68072c-8.189-10.49268-5.1201-20.51366-1.1547-30.21513 6.9721-17.05776 26.1271-31.55917 59.0642-34.67811"/>
     <path d="m-2612.0213-499.82396c25.5183 33.5032 43.2806 7.10992 83.5 33.25"/>
     <path d="m-2568.7713-463.32396c4.209 3.11063 9.2148 5.69012 9.375 11.5"/>
     <path d="m-2555.2713-378.57396c0.5745 9.28433 3.712 14.88361 8.2849 15.83674 7.8852 1.64354 15.5354-7.85351 27.4651 3.53826"/>
    </g>
    <path stroke-linejoin="round" stroke-linecap="square" fill="#d7d7d7" d="m-2545.5011-461.73753c6.5721 2.71957 12.3213 9.46728 13.026 17.84718 0.2557 3.03993 0.2817 7.21734-1.1712 10.19139-4.6065 9.42958-18.5808 4.87442-28.1003 7.58672-2.635 0.75077-4.2933 5.38205-5.3997 6.53828 3.2197 2.24957 6.6625 3.12277 10.875-0.75-1.7447 1.94787-0.9949 2.89797-1.25 4.25 8.3288-4.50351 11.3751-0.96902 9.3051 0.57393-1.5079 1.12397-7.8009 1.41826-9.8051 1.30107-8.0747-0.47215-14.9729 0.74114-19.375 7 2.4765 5.28126 5.5098 7.37889 10.3125 3.6875l-0.062 4.1875c2.8298-3.81261 6.0035-5.5623 9.5-5.375-22.722 18.75466-10.595 38.98012-3.9018 49.64272-7.0651-14.71422-5.8378-35.63922 19.7768-46.26772-7.5113 5.14894-3.7618 9.6596-6 11.125 1.1729 0.80585 4.166-0.87035 7.125-2.5-10.1188 8.4618-4.7374 14.19804-5.875 16.75 4.2298-2.77585 7.7351 0.83592 12.25-14.375-1.7935 4.97763 0.4638 7.31347 2.375 9.875 0.8871-3.46785 4.8234-4.18541 7.625-10.5 14.2488-32.11572 3.4303-70.36204-21.2298-70.78857z"/>
    <path style="isolation:auto;mix-blend-mode:normal" shape-rendering="auto" image-rendering="auto" fill="#da251c" color-rendering="auto" color="#000000" d="m-2403.7713-649.07396c-7.0965-7.85054-14.1508-14.83205-29-15.375-0.7981-7.2915-2.2373-14.37905-10.25-19.375-0.9305 4.73267-2.9075 5.18144-5.125 6.375 0.01-3.32675 1.2975-9.18745-4.375-11.125-0.8479 3.09812-1.9009 6.25481-6.375 7.375 0.9254-5.58882 5.0569-10.59971 0.625-17.125-1.8401-2.7093-0.5568-5.44702-2-10.5-7.9877 1.67472-13.2651 8.2145-16.125 14.75-0.5889 7.76552-0.1486 15.83373 4.875 25.25-4.4201-0.78567-7.8556-3.29443-14.75 0.25-3.7778 3.92037-5.2217 7.99633-4 12.25 6.2612-2.51732 7.6126 2.5533 10.5 5.25-5.4635-4.02589-8.0997-1.4548-11.75-1.25 1.3843 5.6245 6.0074 5.32402 8.875 5-6.996 3.49759-4.9903 4.43913-6.625 9.75 4.2363-0.93052 3.5495-2.27454 5.646-2.624 3.6702-0.61179 7.1844 1.15088 11.604-0.126-5.3052 1.87024-14.5985 2.72325-16.75 10.5 2.0669 1.76242 3.9759 3.9775 6.7356 4.68137 5.4521 1.39055 12.4467 0.83809 17.7644 1.81863-4.3502 1.23315-4.9151 6.37652-7.75 9 12.9537 7.80153 23.7854-14.1701 39.75-3.75-3.5591-1.67938-5.2169 0.019-6.7222 1.79251-1.1171 1.31621-1.7933 1.19917-2.5278 3.45749 2.4797 2.51918 7.849 2.74462 12 3.125 23.1249-3.17551 38.1973-11.86064 25.75-39.375z"/>
    <path stroke-linejoin="round" stroke-linecap="square" fill="none" d="m-2463.3-668.38948c11.0873 8.70036 4.984 15.56622 12.3875 22.21945 4.6159 4.14823 11.873 6.93456 18.1182 11.12873 9.1603 6.1518 17.7722 13.14702 26.0629 17.20995"/>
    <g stroke-linejoin="round" stroke-linecap="square" fill="#da251c">
     <path d="m-2511.9136-614.47259c14.2875-24.79414-12.4884-27.46424-16.0867-42.77996-2.2841-9.72199-8.7265-15.38845-17.1473-20.5061-3.7272 1.6979 0.1274 4.94651-4.2426 6.71752-2.1164-4.05062-6.1378-16.44189-18.2964-15.37958-0.3882 4.57966-4.8495 8.78903-0.6187 13.78859-4.8906-1.72158-3.7939 2.53202-7.0711 1.23743 1.8866 4.65257 4.6097 7.21411 7.4246 9.54594-15.2276-5.72774-39.6066-26.61211-48.9671-10.96015 6.733 2.02497 7.6914 4.81989 7.4246 7.77817-7.1677-3.02236-13.4614-11.22092-23.5113 2.82843 4.2763 7.38015 13.6244 1.62708 18.208 4.77297-15.6427 0.39052-11.8093 7.46365-19.799 6.89429 2.9598 5.51194 5.5585 11.39261 13.0815 7.77818 0.09 4.19355-2.1136 4.44138-3.8008 5.30329 4.7345 8.817 12.8989-0.46735 17.4126 0.70711-19.8267 16.58731-36.2891 2.82171-46.4911 2.10478-6.3163-0.44386-11.5844 5.16149-7.5142 16.45678 1.8449-4.43118 6.7198-8.89771 10.0631-8.60163 7.6858 0.68063 13.588 8.69164 21.1185 11.14328 9.4911 3.08993 22.0555-1.13725 29.5412-13.50181-0.6219 8.76348-3.5386 7.4183-5.4856 10.27745-1.8375 2.69819-2.1139 6.33319 1.4197 8.28411 0.8259-5.77335 6.0894-4.22727 9.4576-6.18719-3.3843 3.07804-8.132 8.58583-3.4472 16.61701 2.7923-3.04698 5.3765-5.55888 6.5408-4.41942-4.452 5.8724 2.8071 10.84394 4.2426 16.26346 8.0421-6.68942 5.0503-11.29132 4.9497-16.44023 2.5694-3.19265 5.1929 0.75947 5.8337 0.7071 0.3611-2.74251 0.5052-8.42085-3.182-16.26345 2.7224-2.20448 6.1969 0.99115 5.6569 9.36916 4.5139 1.32668 1.5009 7.99032 1.6794 9.89949 9.2072-4.25511 9.1914-11.36729 6.8173-16.50815-2.4255-5.25214-3.6541-10.84436 1.226-13.72065-2.4089 11.07909 6.3951 20.77007 14.4957 23.68807-3.2737-5.78134 1.802-5.1382 0.1768-13.08148 3.2998 2.9702 6.5997 5.91263 9.8995 3.35876-3.9305-4.01131-7.2703-8.17033-1.9446-14.49569 9.9225 4.10362 17.5849 11.11313 24.2184 19.44544"/>
     <path d="m-2593.5213-642.19896c10.2403-7.27861 18.5378-7.75715 26.125-5.75"/>
     <path d="m-2581.8963-640.19896c3.5387-6.11349 10.1852-2.38581 15.5-2.875"/>
     <path d="m-2423.8788-610.22995c-8.0961-0.80299-14.1606-4.08909-24.3067-2.38648-2.6212 5.14266-2.0714 8.06379-0.9724 11.57887-2.6854-1.88098-12.0543-11.31872-19.5338-4.5962 4.2868 10.09078-12.1884 1.30056-13.435-0.17677-1.718-4.81146-3.1346-9.98779-9.1924-9.54595 0.4761 4.76798-1.6622 4.04587-3.4471 4.06587-0.3593-4.02481-0.3568-14.80621-8.3085-13.08148 1.4416 3.17082 1.3438 8.54943-4.0659 9.8995-1.9703-6.1974-4.2535-12.09615-11.3137-13.43503-1.3919 5.42503-5.7726 8.2061-1.591 18.56155-4.265-1.57519-8.3281-3.82373-13.2582-3.18198 3.2826 1.02035 0.5478 7.91904 5.1265 9.54594-6.7982-1.30374-6.2213 3.66046-13.435 1.06066 0.9683 6.9871 10.3609 7.94735 17.5008 10.25305-8.4415-1.44623-6.0418 1.84714-8.5416 4.20424-1.1324 1.0677-2.5537-1.50824-4.2747 1.541 3.8491 6.85758 10.1556 5.11409 16.7938 2.20971-4.0985 6.4315-14.8807 15.00899-11.4021 36.59278 14.3514-33.61069 35.6693-8.3535 51.2653-30.58237-2.8787 5.02056 3.9892 4.22665-0.8839 8.48528 18.165 0.86671 19.4242-5.70723 44.7245-6.89429"/>
    </g>
    <path stroke-linejoin="round" stroke-linecap="square" fill="none" d="m-2510.7713-582.07396c10.7127-15.53733 48.9982-3.50184 73.5-5.25"/>
   </g>
   <g stroke-width="1.5" stroke-linejoin="round" stroke-linecap="square" stroke="#000">
    <path fill="#005ca1" d="m-2216.1435-554.19896c38.1189-1.54409 41.3443 36.41318 21.75 39.5-0.4228-3.61265 0.6697-6.02715 0-9-2.1532-9.55799-11.6635-10.30662-17.75-11 2.147 4.69219 7.672 8.78827 4.75 14.375-5.4786-6.62398-7.4282-17.70266-22.375-12.375 2.7305 1.83179 4.1074 1.53769 5.2107 3.02904 1.6363 2.21178-0.817 4.65165 2.9143 8.22096-10.8816-8.31147-19.2399-9.05312-24.125 0.625 4.2044 0.22848 8.1696 0.89056 9.75 5.875-5.92-4.23746-9.157-1.76745-12.125 1.375-3.0316 1.20379-6.5861 1.78004-8.875 3.875 5.8188 9.28294 11.3875 10.19011 16.875 8.375-0.8364 2.87241-6.0875 1.99229-10 2.25-0.049 13.80377 25.1721 6.98948 27.875 12.25-18.3837-0.71342-29.6507 6.40846-33.75 22.875-13.1259 32.77608-1.7987 49.09646 4.375 61.5l11.125 15.875c-8.5536 8.9801-13.8264 18.06272-11.75 27.375-12.6369 14.45064-4.9231 40.28308 9.5 40.75 7.2245 0.23388 9.5314-5.95537 8.4375-9.0625-1.4076 2.30901-2.8465 3.69954-4.4375 3.0625-3.7267-1.49219-7.4612-2.92122-9.25-6 3.0155 1.86133 6.1359 3.44317 10.625 1.375l-3-2.625c-0.9226-2.51788-2.1228-3.92556-3.375-5.125-2.7947-13.33993 21.5624-5.00332 31.75-15.75 12.6235-16.34488 6.0527-31.97498 3.625-39.625l-33.875-23.75 0.5-24.5 7.5-7.5c-0.8051 9.9056 2.9958 11.45868 5.5152 14.49372-0.1193-3.75551 2.8787-5.35324 3.3105-8.6475 0.5385-4.1075-0.7043-9.84018 4.7993-13.09622-3.354 9.39565-0.621 12.70429 3.25 14.875-0.9675-6.84385 3.0204-8.02434 5-11.5 1.1084 2.99947 2.0743 6.71163 3.625 7.5 1.2047-1.47876 1.0059-3.01386 2.3568-4.05399 2.1638-1.66592 4.8903-0.4942 8.1432-4.19601-3.8091 4.65394-6.0998 9.20666-6.375 13.625 2.6617-0.63432 4.1058-1.51218 5.625-2.375-1.5609 7.09378-0.1784 10.99881 1 15.125 6.7861-2.40076 10.7778-7.96845 10.5-18.375 1.2083-0.63244 2.4167 2.87248 3.625 4.375 6.6652-4.84781-4.7082-27.55483 7.875-25.75-5.7902 2.2505-4.3885 12.941-2 16.625 1.5706-0.95732 3.4211-1.66269 3.875-3.625 0.6625 2.3322 0.1865 4.52221 0.6505 6.26534 0.6869 2.58071 0.7533 0.92669 2.5995 6.98466 3.8526-1.61686 5.4543-6.40531 6.75-11.625 1.0163 2.35407 2.1873 2.56529 3.4482 5.35355 9.9158-13.84396 8.5086-25.00551 1.0304-34.85355-0.9501-7.50813 3.403-12.03159 9.0491-16.87608 3.9724-3.40834 7.8083-9.57749 10.2715-18.09619l-0.1742-27.27773-26.25-52-76.8443-7.90815 3.089 39.139"/>
    <path fill="#f6b801" d="m-2343.7685-582.82396-4-42.5 62.25-38.5c6.5594-7.65454 14.9791-3.89407 19.25-9.25 6.2648 4.02364 6.8398 8.38197 5.125 12.875 2.0114 1.26516 3.9725 1.72691 5.75-0.75l0.375 3.625c5.8938 5.13595-1.0261 14.6876-2 18.625l72 5.375 5 20.55546c10.2264 6.46287 19.0854 9.79669 26.0672 8.91129 2.6177-0.33198 16.7194-12.89447 22.4328-3.21675l-7.125 2c18.1234 3.7509 17.4593 4.76023 19.625 12-6.7027 7.04866-9.7382-3.14712-17.75-1.5 4.7298 2.42261 10.6655 5.94928-0.25 3.625-7.3088-1.55629-0.6365 2.83133 4.875 2.875 6.9388 0.055 14.9309-1.28197 17.375 9.375-2.0965-0.0211-6.6015-1.89834-6.125 0.72855 11.4435 7.84404 6.7415 11.83033 10.875 13.52145-10.7764 5.22304-18.2409-2.97256-19.5-7.375-0.438 6.68521 3.6088 4.83755 3.75 8.75-7.2277 0.52947-11.9005-3.74143-17.125-7 15.9141 14.72667 18.8318 24.07168 18.875 30.75 0.039 6.04372 0.3643 10.67735-2.25 11.625-2.7262-3.10395-6.7113-7.61043-6.125-11.75-3.2964 5.59324 12.8288 19.11448 1.375 28.25 0.25-3.84825-3.1723-10.06183-4.5-11 1.862 10.21298 1.4155 18.79085-2.375 25-2.4709-0.17849-5.5376-5.00991-5.25-15.875 6.2779-33.08838-17.5262-9.45655-20.25-3.75-9.7357 11.02324-22.9216 17.91359-26.75 8.625 12.927-1.01504 17.891-8.08287 18.5-20.75 0.3725-16.95145-5.2597-15.53177-9.5-19.875 5.808 1.56399 10.1532 5.23011 13.25 4.375-2.1093-14.54858-8.7246-16.03313-12.5-17.625 3.7134-0.47252 7.4279 0.72436 10.25-2.125-11.5264-21.0402-27.5632-7.73181-30.75-7.625-3.9203-6.63811 11.4717-5.17675 6.125-11.75-14.3726-3.32004-26.6227 3.22896-31.875 10.375 10.5676-2.22864 14.888 1.6063 14.125 10.375-5.4323-2.03725-9.1453-0.97815-15.75-1.75 14.5407 5.75938 19.9563 10.13425 14.375 29.5-3.8317-1.41458-2.9951-4.53828-5.6046-7.02745-1.7899-1.70734-3.7054-1.49449-5.7135-2.95759-3.4852-2.53943-4.2476-5.10423-8.8069-6.88996 5.1314 4.28308 3.4314 5.79654 3.3107 8.50826-0.1359 3.05198-0.1297 6.13008-0.6857 8.86674-4.0582-2.54912-7.3924-6.33926-9.125-12.875l-12.75-27.25"/>
    <path fill="#f6b801" d="m-2152.2192-622.95787c1.0606 0 21.9203-2.65165 21.9203-2.65165l16.0867-6.18719 5.7441 7.11002c2.1896-10.52963 0.092-17.45713-11.5778-15.06497-9.1301-16.77833-21.338 13.25457-40.0705 5.83203l-5.7146 2.12292"/>
   </g>
   <g stroke-width="1.5" stroke-linejoin="round" stroke-linecap="square" stroke="#000" fill="none">
    <path d="m-2155.609-525.68072c8.189-10.49268 5.1201-20.51366 1.1547-30.21513-6.9721-17.05776-26.1271-31.55917-59.0642-34.67811"/>
    <path d="m-2159.7685-499.82396c-25.5183 33.5032-43.2806 7.10992-83.5 33.25"/>
    <path d="m-2203.0185-463.32396c-4.209 3.11063-9.2148 5.69012-9.375 11.5"/>
    <path d="m-2216.5185-378.57396c-0.5745 9.28433-3.712 14.88361-8.2849 15.83674-7.8852 1.64354-15.5354-7.85351-27.4651 3.53826"/>
   </g>
   <g stroke-width="1.5" stroke="#000">
    <path stroke-linejoin="round" stroke-linecap="square" fill="#f6b801" d="m-2226.2887-461.73753c-6.5721 2.71957-12.3213 9.46728-13.026 17.84718-0.2557 3.03993-0.2817 7.21734 1.1712 10.19139 4.6065 9.42958 18.5808 4.87442 28.1003 7.58672 2.635 0.75077 4.2933 5.38205 5.3997 6.53828-3.2197 2.24957-6.6625 3.12277-10.875-0.75 1.7447 1.94787 0.9949 2.89797 1.25 4.25-8.3288-4.50351-11.3751-0.96902-9.3051 0.57393 1.5079 1.12397 7.8009 1.41826 9.8051 1.30107 8.0747-0.47215 14.9729 0.74114 19.375 7-2.4765 5.28126-5.5098 7.37889-10.3125 3.6875l0.062 4.1875c-2.8298-3.81261-6.0035-5.5623-9.5-5.375 22.722 18.75466 10.595 38.98012 3.9018 49.64272 7.0651-14.71422 5.8378-35.63922-19.7768-46.26772 7.5113 5.14894 3.7618 9.6596 6 11.125-1.1729 0.80585-4.166-0.87035-7.125-2.5 10.1188 8.4618 4.7374 14.19804 5.875 16.75-4.2298-2.77585-7.7351 0.83592-12.25-14.375 1.7935 4.97763-0.4638 7.31347-2.375 9.875-0.8871-3.46785-4.8234-4.18541-7.625-10.5-14.2488-32.11572-3.4303-70.36204 21.2298-70.78857z"/>
    <path style="isolation:auto;mix-blend-mode:normal" shape-rendering="auto" image-rendering="auto" fill="#005ca1" color-rendering="auto" color="#000000" d="m-2368.0185-649.07396c7.0965-7.85054 14.1508-14.83205 29-15.375 0.7981-7.2915 2.2373-14.37905 10.25-19.375 0.9305 4.73267 2.9075 5.18144 5.125 6.375-0.01-3.32675-1.2975-9.18745 4.375-11.125 0.8479 3.09812 1.9009 6.25481 6.375 7.375-0.9254-5.58882-5.0569-10.59971-0.625-17.125 1.8401-2.7093 0.5568-5.44702 2-10.5 7.9877 1.67472 13.2651 8.2145 16.125 14.75 0.5889 7.76552 0.1486 15.83373-4.875 25.25 4.4201-0.78567 7.8556-3.29443 14.75 0.25 3.7778 3.92037 5.2217 7.99633 4 12.25-6.2612-2.51732-7.6126 2.5533-10.5 5.25 5.4635-4.02589 8.0997-1.4548 11.75-1.25-1.3843 5.6245-6.0074 5.32402-8.875 5 6.996 3.49759 4.9903 4.43913 6.625 9.75-4.2363-0.93052-3.5495-2.27454-5.646-2.624-3.6702-0.61179-7.1844 1.15088-11.604-0.126 5.3052 1.87024 14.5985 2.72325 16.75 10.5-2.0669 1.76242-3.9759 3.9775-6.7356 4.68137-5.4521 1.39055-12.4467 0.83809-17.7644 1.81863 4.3502 1.23315 4.9151 6.37652 7.75 9-12.9537 7.80153-23.7854-14.1701-39.75-3.75 3.5591-1.67938 5.2169 0.019 6.7222 1.79251 1.1171 1.31621 1.7933 1.19917 2.5278 3.45749-2.4797 2.51918-7.849 2.74462-12 3.125l-66.9993 4.0625 18.4965-52.4375"/>
    <g stroke-linejoin="round" stroke-linecap="square">
     <path fill="none" d="m-2308.4898-668.38948c-11.0873 8.70036-4.984 15.56622-12.3875 22.21945-4.6159 4.14823-9.6538 9.85351-15.899 14.04768-9.1603 6.1518-14.2761 5.92055-22.5447 10.02844-15.5718 7.73623-32.1124 3.96046-45.1977 2.99375"/>
     <path fill="#005ca1" d="m-2259.8762-614.47259c-14.2875-24.79414 12.4884-27.46424 16.0867-42.77996 2.2841-9.72199 8.7265-15.38845 17.1473-20.5061 3.7272 1.6979-0.1274 4.94651 4.2426 6.71752 2.1164-4.05062 6.1378-16.44189 18.2964-15.37958 0.3882 4.57966 4.8495 8.78903 0.6187 13.78859 4.8906-1.72158 3.7939 2.53202 7.0711 1.23743-1.8866 4.65257-4.6097 7.21411-7.4246 9.54594 15.2276-5.72774 39.6066-26.61211 48.9671-10.96015-6.733 2.02497-7.6914 4.81989-7.4246 7.77817 7.1677-3.02236 13.4614-11.22092 23.5113 2.82843-4.2763 7.38015-13.6244 1.62708-18.208 4.77297 15.6427 0.39052 11.8093 7.46365 19.799 6.89429-2.9598 5.51194-5.5585 11.39261-13.0815 7.77818-0.09 4.19355 2.1136 4.44138 3.8008 5.30329-4.7345 8.817-12.8989-0.46735-17.4126 0.70711 19.8267 16.58731 36.2891 2.82171 46.4911 2.10478 6.3163-0.44386 11.5844 5.16149 7.5142 16.45678-1.8449-4.43118-6.7198-8.89771-10.0631-8.60163-7.6858 0.68063-13.588 8.69164-21.1185 11.14328-9.4911 3.08993-22.0555-1.13725-29.5412-13.50181 0.6219 8.76348 3.5386 7.4183 5.4856 10.27745 1.8375 2.69819 2.1139 6.33319-1.4197 8.28411-0.8259-5.77335-6.0894-4.22727-9.4576-6.18719 3.3843 3.07804 8.132 8.58583 3.4472 16.61701-2.7923-3.04698-5.3765-5.55888-6.5408-4.41942 4.452 5.8724-2.8071 10.84394-4.2426 16.26346-8.0421-6.68942-5.0503-11.29132-4.9497-16.44023-2.5694-3.19265-5.1929 0.75947-5.8337 0.7071-0.3611-2.74251-0.5052-8.42085 3.182-16.26345-2.7224-2.20448-6.1969 0.99115-5.6569 9.36916-4.5139 1.32668-1.5009 7.99032-1.6794 9.89949-9.2072-4.25511-9.1914-11.36729-6.8173-16.50815 2.4255-5.25214 3.6541-10.84436-1.226-13.72065 2.4089 11.07909-6.3951 20.77007-14.4957 23.68807 3.2737-5.78134-1.802-5.1382-0.1768-13.08148-3.2998 2.9702-6.5997 5.91263-9.8995 3.35876 3.9305-4.01131 7.2703-8.17033 1.9446-14.49569-9.9225 4.10362-17.5849 11.11313-24.2184 19.44544"/>
     <path fill="none" d="m-2178.2685-642.19896c-10.2403-7.27861-18.5378-7.75715-26.125-5.75"/>
     <path fill="none" d="m-2189.8935-640.19896c-3.5387-6.11349-10.1852-2.38581-15.5-2.875"/>
     <path fill="#005ca1" d="m-2335.3599-576.11205c25.3003 1.18706 26.5595 7.761 44.7245 6.89429-4.8731-4.25863 1.9948-3.46472-0.8839-8.48528 15.596 22.22887 36.9139-3.02832 51.2653 30.58237 3.4786-21.58379-7.3036-30.16128-11.4021-36.59278 6.6382 2.90438 12.9447 4.64787 16.7938-2.20971-1.721-3.04924-3.1423-0.4733-4.2747-1.541-2.4998-2.3571-0.1001-5.65047-8.5416-4.20424 7.1399-2.3057 16.5325-3.26595 17.5008-10.25305-7.2137 2.5998-6.6368-2.3644-13.435-1.06066 4.5787-1.6269 1.8439-8.52559 5.1265-9.54594-4.9301-0.64175-8.9932 1.60679-13.2582 3.18198 4.1816-10.35545-0.1991-13.13652-1.591-18.56155-7.0602 1.33888-9.3434 7.23763-11.3137 13.43503-5.4097-1.35007-5.5075-6.72868-4.0659-9.8995-7.9517-1.72473-7.9492 9.05667-8.3085 13.08148-1.7849-0.02-3.9232 0.70211-3.4471-4.06587-6.0578-0.44184-7.4744 4.73449-9.1924 9.54595-1.2466 1.47733-17.7218 10.26755-13.435 0.17677-7.4795-6.72252-16.8484 2.71522-19.5338 4.5962 1.099-3.51508 1.6488-6.43621-0.9724-11.57887-10.1461-1.70261-16.2106 1.58349-24.3067 2.38648l-38.7353 0.031 18.934 35.32434 32.3524-1.23742"/>
     <path fill="none" d="m-2261.0185-582.07396c-10.7127-15.53733-48.9982-3.50184-73.5-5.25l-38.4013 2.73394"/>
    </g>
   </g>
   <g transform="translate(-980)">
    <g>
     <path stroke-width="1.5" stroke-linejoin="round" stroke-linecap="square" stroke="#000" fill="#f6b801" d="m-1416.3501-547.651c-23.3322-11.06701-31.3486-5.45299-39.2444-24.04163l-12.7279-1.41422-25.4559-37.1231c9.9789-5.90705 18.3035-9.05688 25.4559-10.25305 13.6446-21.68836-22.7427-60.97346 9.5459-85.20637 30.4639-15.21958 51.5635-6.4433 74.9533-3.53553 8.0418 61.41221-28.0935 65.29363-33.9411 87.68124 30.8342 17.74777 29.1705 33.49049 30.052 46.66905l-7.4246 1.06066c2.402 18.76814-8.239 23.70287-21.2132 26.16295z"/>
     <path stroke-width="1.5" stroke-linejoin="round" stroke-linecap="square" stroke="#000" d="m-1502.2713-575.07396c2.0573-11.55415-4.7936-29.33312 8.493-35.15599 13.1693-5.77148 24.5342 25.90789 25.4559 37.1231"/>
     <path d="m-1451.8822-692.07756c-14.3568 23.75612 3.6721 52.79007 7.4246 54.27044 21.2632 4.62721 44.1338 5.1858 60.988-1.06066 12.6257-17.51134 22.5151-41.54912 1.7678-55.68466-17.3072 22.78463-45.4482 12.81988-70.1804 2.47488z"/>
    </g>
    <g stroke="#000" shape-rendering="auto" fill="#f6b801">
     <path style="isolation:auto;mix-blend-mode:normal" image-rendering="auto" color-rendering="auto" color="#000000" d="m-1436.8062-689.04878a4.1530242 4.1530242 0 0 1-4.1147 4.19003 4.1530242 4.1530242 0 0 1-4.191-4.11363 4.1530242 4.1530242 0 0 1 4.1126-4.19205 4.1530242 4.1530242 0 0 1 4.193 4.11159"/>
     <path style="isolation:auto;mix-blend-mode:normal" image-rendering="auto" color-rendering="auto" color="#000000" d="m-1439.8655-687.53258a2.3436852 2.3436852 0 0 1-2.322 2.36457 2.3436852 2.3436852 0 0 1-2.3652-2.32146 2.3436852 2.3436852 0 0 1 2.3209-2.3657 2.3436852 2.3436852 0 0 1 2.3663 2.3203"/>
     <path style="isolation:auto;mix-blend-mode:normal" image-rendering="auto" color-rendering="auto" color="#000000" d="m-1419.1812-684.42378a4.1530242 4.1530242 0 0 1-4.1147 4.19003 4.1530242 4.1530242 0 0 1-4.191-4.11363 4.1530242 4.1530242 0 0 1 4.1126-4.19205 4.1530242 4.1530242 0 0 1 4.193 4.11159"/>
     <path style="isolation:auto;mix-blend-mode:normal" image-rendering="auto" color-rendering="auto" color="#000000" d="m-1422.2405-682.90758a2.3436852 2.3436852 0 0 1-2.322 2.36457 2.3436852 2.3436852 0 0 1-2.3652-2.32146 2.3436852 2.3436852 0 0 1 2.3209-2.3657 2.3436852 2.3436852 0 0 1 2.3663 2.3203"/>
     <path style="isolation:auto;mix-blend-mode:normal" image-rendering="auto" color-rendering="auto" color="#000000" d="m-1403.6812-683.29878a4.1530242 4.1530242 0 0 1-4.1147 4.19003 4.1530242 4.1530242 0 0 1-4.191-4.11363 4.1530242 4.1530242 0 0 1 4.1126-4.19205 4.1530242 4.1530242 0 0 1 4.193 4.11159"/>
     <path style="isolation:auto;mix-blend-mode:normal" image-rendering="auto" color-rendering="auto" color="#000000" d="m-1404.8655-681.78258a2.3436852 2.3436852 0 0 1-2.322 2.36457 2.3436852 2.3436852 0 0 1-2.3652-2.32146 2.3436852 2.3436852 0 0 1 2.3209-2.3657 2.3436852 2.3436852 0 0 1 2.3663 2.3203"/>
     <path style="isolation:auto;mix-blend-mode:normal" image-rendering="auto" color-rendering="auto" color="#000000" d="m-1387.1812-686.54878a4.1530242 4.1530242 0 0 1-4.1147 4.19003 4.1530242 4.1530242 0 0 1-4.191-4.11363 4.1530242 4.1530242 0 0 1 4.1126-4.19205 4.1530242 4.1530242 0 0 1 4.193 4.11159"/>
     <path style="isolation:auto;mix-blend-mode:normal" image-rendering="auto" color-rendering="auto" color="#000000" d="m-1387.6155-685.03258a2.3436852 2.3436852 0 0 1-2.322 2.36457 2.3436852 2.3436852 0 0 1-2.3652-2.32146 2.3436852 2.3436852 0 0 1 2.3209-2.3657 2.3436852 2.3436852 0 0 1 2.3663 2.3203"/>
     <path style="isolation:auto;mix-blend-mode:normal" image-rendering="auto" color-rendering="auto" color="#000000" d="m-1377.9312-694.79878a4.1530242 4.1530242 0 0 1-4.1147 4.19003 4.1530242 4.1530242 0 0 1-4.191-4.11363 4.1530242 4.1530242 0 0 1 4.1126-4.19205 4.1530242 4.1530242 0 0 1 4.193 4.11159"/>
     <path style="isolation:auto;mix-blend-mode:normal" image-rendering="auto" color-rendering="auto" color="#000000" d="m-1378.3655-693.72448a2.3436852 2.3436852 0 0 1-2.322 2.36457 2.3436852 2.3436852 0 0 1-2.3652-2.32145 2.3436852 2.3436852 0 0 1 2.3209-2.36571 2.3436852 2.3436852 0 0 1 2.3663 2.3203"/>
    </g>
    <g stroke-linejoin="round" stroke-linecap="round" stroke="#000" fill="#f6b801">
     <path d="m-1443.6349-689.37166c-17.9989 15.20274-14.8969 45.4906-0.4862 55.10955 2.0843 1.39118 4.3646-0.35084 3.7759-3.91475-7.7486-0.14621-18.3194-29.13345 0-47.90883"/>
     <path d="m-1425.8952-684.82923c-19.2223 18.54624-13.8944 53.05687-2.1221 55.50739 5.2576 1.09442 5.2063-3.82784 5.2149-5.48007-12.4413 5.10049-15.3496-31.64707 0.01-46.57289"/>
     <path d="m-1409.3029-680.70846c10.628 6.62861 17.1163 51.01011-1.5671 44.84589-0.2034 7.33173 5.3901 7.76314 8.3969 5.12652 13.1393-11.52177 7.538-43.23959-2.7856-52.32505"/>
     <path d="m-1382.1432-691.84979c4.9992 1.83402 17.9222 13.10799 5.0376 38.57471 5.1181-2.98293 8.439-9.1228 9.4693-15.93474 1.5126-10.00133-1.294-20.7443-11.8383-26.48585"/>
     <path d="m-1391.9643-683.79828c5.9412 3.97815 11.3238 13.74194 12.401 24.16659 1.2121 11.73002-2.6975 23.8969-11.0658 21.91296-0.9493 3.81479 2.6676 6.26716 6.8059 3.71231 12.2892-7.58697 14.2819-33.98604-4.7186-52.87175"/>
    </g>
    <g stroke="#000" transform="translate(360,80)">
     <g stroke-width="1.5" stroke-linejoin="round" stroke-linecap="round" fill="#f6b801">
      <path d="m-1783.7747-785.94896c12.9214 0 23.167 0.16414 40.8716 5.625 2.4253 0.74806 3.4734-2.0409 0.5-3.125-14.7126-5.36426-28.4526-5.875-41.3716-5.875"/>
      <path d="m-1783.7747-785.94896c-12.9214 0-23.167 0.16414-40.8716 5.625-2.4253 0.74806-3.4734-2.0409-0.5-3.125 14.7126-5.36426 28.4526-5.875 41.3716-5.875"/>
      <path d="m-1783.7747-801.07396c14.9203 0 27.7027 0.72336 45.7466 6.75 2.8703 0.95869 3.649-2.61236 0.75-3.625-16.3675-5.71727-33.0195-6.875-46.4966-6.875"/>
     </g>
     <path style="isolation:auto;mix-blend-mode:normal" shape-rendering="auto" image-rendering="auto" fill="#da251c" color-rendering="auto" color="#000000" d="m1748.5023-789.8225a5.4454246 5.4454246 0 0 1-5.3951 5.49395 5.4454246 5.4454246 0 0 1-5.4953-5.39378 5.4454246 5.4454246 0 0 1 5.3925-5.49658 5.4454246 5.4454246 0 0 1 5.4979 5.39109" transform="scale(-1,1)"/>
     <path style="isolation:auto;mix-blend-mode:normal" shape-rendering="auto" image-rendering="auto" fill="#005ca1" color-rendering="auto" color="#000000" d="m-1731.3312-813.98333c2.3991 1.96625 6.1703 1.45252 8.3848-0.7196 2.2144-2.172 2.4261-6.34665 0.2528-8.56354-2.1753-2.21491-5.9276-0.61342-7.7682 1.95884-1.8407 2.57225-2.6001 5.90589-0.8694 7.3243z"/>
     <g stroke-linejoin="round" stroke-linecap="round" fill="none">
      <path d="m-1716.8647-829.4416-5.8289 6.17513 1.8514-7.85451"/>
      <path d="m-1735.0727-825.55251 4.6109 4.24488-5.9367-2.38873"/>
      <path d="m-1771.6655-833.50746-6.6638 1.5254 6.5754 1.4798"/>
      <path d="m-1782.8024-844.90956c0 0.44194-0.9723 6.24464-0.9723 6.24464"/>
      <path d="m-1748.54-797.40481-2.4533 11.31566"/>
      <path d="m-1751.9066-798.19507-2.1754 11.38322"/>
      <path d="m-1754.6946-798.77242-2.1549 11.4065"/>
      <path d="m-1757.583-799.29577-2.2808 11.42085"/>
     </g>
     <g>
      <path stroke-width="1.5" stroke-linejoin="round" stroke-linecap="round" fill="#f6b801" d="m-1742.5866-782.29844 5-14.1582c-4.1867-10.51277 10.2901-20.13388 13.9336-25.86719 12.1118 1.08631 18.4418-11.66082 7.125-16.25-8.0963-3.28319-15.076 2.66675-13.375 9.5625 1.5133 6.13499-2.3552 2.47716-2-0.9375 1.4177-13.62723-4.3668-5.56753-2.75-3.3125-5.1919-6.8983-9.8825-2.70362-8.8125 3.1875-8.5209 5.18131-8.4832 12.5756-4.668 16.66992 3.0204 3.24151 8.5952 4.18113 12.8555 1.95508-13.1225 14.16531-24.2382 7.1118-19.7344-10.88867 0.027 2e-3 0.053 3e-3 0.08 4e-3 3.1023 0.0291 5.6409-2.46218 5.6699-5.56446 0.029-3.10153-2.461-5.63972-5.5625-5.66992s-5.6409 2.45903-5.6719 5.56055v6e-3c-0.018 2.1293 1.1693 4.0858 3.0665 5.05273-1.8509 5.25463-3.8619 10.43317-7.2637 13.12305-5.9636 4.71548-17.6062 0.29469-16.2715-13.31055 5.9149 12.84575 25.7398 7.44547 18.3125-7.9375 6.1066-2.60619 2.514-11.71282-3.5-7.125 3.6152-6.7811-4.8334-9.03732-4.5625-2.1875 0.5393 4.09396-6.9847 3.7582-1.8125-2.6875 3.4841-4.34195 1.4455-9.94925-4.5625-7.5-2.0699-3.4979-4.2166-5.75-6.6841-5.75s-4.6142 2.2521-6.6841 5.75c-6.008-2.44925-8.0466 3.15805-4.5625 7.5 5.1722 6.4457-2.3518 6.78146-1.8125 2.6875 0.2709-6.84982-8.1777-4.5936-4.5625 2.1875-6.014-4.58782-9.6066 4.51881-3.5 7.125-7.4273 15.38297 12.3976 20.78325 18.3125 7.9375 1.3347 13.60524-10.3079 18.02603-16.2715 13.31055-3.4018-2.68988-5.4128-7.86842-7.2637-13.12305 1.8972-0.96693 3.0846-2.92343 3.0665-5.05273v-6e-3c-0.031-3.10152-2.5704-5.59075-5.6719-5.56055s-5.5916 2.56839-5.5625 5.66992c0.029 3.10228 2.5676 5.59357 5.6699 5.56446 0.027-1e-3 0.053-2e-3 0.08-4e-3 4.5038 18.00047-6.6119 25.05398-19.7344 10.88867 4.2603 2.22605 9.8351 1.28643 12.8555-1.95508 3.8152-4.09432 3.8529-11.48861-4.668-16.66992 1.07-5.89112-3.6206-10.0858-8.8125-3.1875 1.6168-2.25503-4.1677-10.31473-2.75 3.3125 0.3552 3.41466-3.5133 7.07249-2 0.9375 1.701-6.89575-5.2787-12.84569-13.375-9.5625-11.3168 4.58918-4.9868 17.33631 7.125 16.25 3.6435 5.73331 18.1203 15.35442 13.9336 25.86719l5 14.1582c13.7139-1.95462 27.0269-5.78046 41.1881-5.65039 14.1612-0.13007 27.4742 3.69577 41.1881 5.65039z"/>
      <path stroke-width="1.5" stroke-linejoin="round" stroke-linecap="round" fill="#f6b801" d="m-1783.7747-801.07396c14.9203 0 27.7027 0.72336 45.7466 6.75 2.8703 0.95869 3.649-2.61236 0.75-3.625-16.3675-5.71727-33.0195-6.875-46.4966-6.875"/>
      <path style="isolation:auto;mix-blend-mode:normal" shape-rendering="auto" image-rendering="auto" fill="#da251c" color-rendering="auto" color="#000000" d="m1748.5023-789.8225a5.4454246 5.4454246 0 0 1-5.3951 5.49395 5.4454246 5.4454246 0 0 1-5.4953-5.39378 5.4454246 5.4454246 0 0 1 5.3925-5.49658 5.4454246 5.4454246 0 0 1 5.4979 5.39109" transform="scale(-1,1)"/>
      <path style="isolation:auto;mix-blend-mode:normal" shape-rendering="auto" image-rendering="auto" fill="#005ca1" color-rendering="auto" color="#000000" d="m-1731.3312-813.98333c2.3991 1.96625 6.1703 1.45252 8.3848-0.7196 2.2144-2.172 2.4261-6.34665 0.2528-8.56354-2.1753-2.21491-5.9276-0.61342-7.7682 1.95884-1.8407 2.57225-2.6001 5.90589-0.8694 7.3243z"/>
     </g>
     <g stroke-linejoin="round" stroke-linecap="round" fill="none">
      <path d="m-1716.8647-829.4416-5.8289 6.17513 1.8514-7.85451"/>
      <path d="m-1735.0727-825.55251 4.6109 4.24488-5.9367-2.38873"/>
      <path d="m-1771.6655-833.50746-6.6638 1.5254 6.5754 1.4798"/>
      <path d="m-1782.8024-844.90956c0 0.44194-0.9723 6.24464-0.9723 6.24464"/>
      <path d="m-1748.54-797.40481-2.4533 11.31566"/>
      <path d="m-1751.9066-798.19507-2.1754 11.38322"/>
      <path d="m-1754.6946-798.77242-2.1549 11.4065"/>
      <path d="m-1757.583-799.29577-2.2808 11.42085"/>
     </g>
     <path stroke-width="1.5" stroke-linejoin="round" stroke-linecap="round" fill="#f6b801" d="m-1783.7747-801.07396c-14.9203 0-27.7027 0.72336-45.7466 6.75-2.8703 0.95869-3.649-2.61236-0.75-3.625 16.3675-5.71727 33.0195-6.875 46.4966-6.875"/>
     <g shape-rendering="auto">
      <path style="isolation:auto;mix-blend-mode:normal" image-rendering="auto" fill="#da251c" color-rendering="auto" color="#000000" d="m-1819.0471-789.8225a5.4454246 5.4454246 0 0 1-5.3951 5.49395 5.4454246 5.4454246 0 0 1-5.4953-5.39378 5.4454246 5.4454246 0 0 1 5.3924-5.49658 5.4454246 5.4454246 0 0 1 5.4979 5.39109"/>
      <path style="isolation:auto;mix-blend-mode:normal" image-rendering="auto" fill="#005ca1" color-rendering="auto" color="#000000" d="m-1778.3295-795.32378a5.4454246 5.4454246 0 0 1-5.3951 5.49395 5.4454246 5.4454246 0 0 1-5.4952-5.39378 5.4454246 5.4454246 0 0 1 5.3924-5.49658 5.4454246 5.4454246 0 0 1 5.4979 5.39109"/>
      <path style="isolation:auto;mix-blend-mode:normal" image-rendering="auto" fill="#da251c" color-rendering="auto" color="#000000" d="m-1778.3295-832.04189a5.4454246 6.6828613 0 0 1-5.3951 6.74241 5.4454246 6.6828613 0 0 1-5.4952-6.61948 5.4454246 6.6828613 0 0 1 5.3924-6.74564 5.4454246 6.6828613 0 0 1 5.4979 6.61618"/>
      <path style="isolation:auto;mix-blend-mode:normal" image-rendering="auto" fill="#005ca1" color-rendering="auto" color="#000000" d="m-1836.2182-813.98333c-2.3991 1.96625-6.1703 1.45252-8.3848-0.7196-2.2144-2.172-2.4261-6.34665-0.2528-8.56354 2.1753-2.21491 5.9276-0.61342 7.7682 1.95884 1.8407 2.57225 2.6001 5.90589 0.8694 7.3243z"/>
     </g>
     <g stroke-linejoin="round" stroke-linecap="round" fill="none">
      <path d="m-1850.6847-829.4416 5.8289 6.17513-1.8514-7.85451"/>
      <path d="m-1832.4767-825.55251-4.6109 4.24488 5.9367-2.38873"/>
      <path d="m-1795.8839-833.50746 6.6638 1.5254-6.5754 1.4798"/>
      <path d="m-1784.747-844.90956c0 0.44194 0.9723 6.24464 0.9723 6.24464"/>
      <path d="m-1819.0094-797.40481 2.4533 11.31566"/>
      <path d="m-1815.6428-798.19507 2.1754 11.38322"/>
      <path d="m-1812.8548-798.77242 2.1549 11.4065"/>
      <path d="m-1809.9664-799.29577 2.2808 11.42085"/>
     </g>
     <g>
      <path stroke-width="1.5" stroke-linejoin="round" stroke-linecap="round" fill="#f6b801" d="m-1783.7747-801.07396c-14.9203 0-27.7027 0.72336-45.7466 6.75-2.8703 0.95869-3.649-2.61236-0.75-3.625 16.3675-5.71727 33.0195-6.875 46.4966-6.875"/>
      <path style="isolation:auto;mix-blend-mode:normal" shape-rendering="auto" image-rendering="auto" fill="#da251c" color-rendering="auto" color="#000000" d="m-1819.0471-789.8225a5.4454246 5.4454246 0 0 1-5.3951 5.49395 5.4454246 5.4454246 0 0 1-5.4953-5.39378 5.4454246 5.4454246 0 0 1 5.3924-5.49658 5.4454246 5.4454246 0 0 1 5.4979 5.39109"/>
      <path style="isolation:auto;mix-blend-mode:normal" shape-rendering="auto" image-rendering="auto" fill="#005ca1" color-rendering="auto" color="#000000" d="m-1836.2182-813.98333c-2.3991 1.96625-6.1703 1.45252-8.3848-0.7196-2.2144-2.172-2.4261-6.34665-0.2528-8.56354 2.1753-2.21491 5.9276-0.61342 7.7682 1.95884 1.8407 2.57225 2.6001 5.90589 0.8694 7.3243z"/>
     </g>
     <g stroke-linejoin="round" stroke-linecap="round" fill="none">
      <path d="m-1850.6847-829.4416 5.8289 6.17513-1.8514-7.85451"/>
      <path d="m-1832.4767-825.55251-4.6109 4.24488 5.9367-2.38873"/>
      <path d="m-1795.8839-833.50746 6.6638 1.5254-6.5754 1.4798"/>
      <path d="m-1784.747-844.90956c0 0.44194 0.9723 6.24464 0.9723 6.24464"/>
      <path d="m-1819.0094-797.40481 2.4533 11.31566"/>
      <path d="m-1815.6428-798.19507 2.1754 11.38322"/>
      <path d="m-1812.8548-798.77242 2.1549 11.4065"/>
      <path d="m-1809.9664-799.29577 2.2808 11.42085"/>
     </g>
     <path stroke-width="1.5" stroke-linejoin="round" stroke-linecap="round" fill="#f6b801" d="m-1783.7747-785.94896c-12.9214 0-23.167 0.16414-40.8716 5.625-2.4253 0.74806-3.4734-2.0409-0.5-3.125 14.7126-5.36426 28.4526-5.875 41.3716-5.875"/>
     <path stroke-width="1.5" stroke-linejoin="round" stroke-linecap="round" fill="#f6b801" d="m-1783.7747-785.94896c12.9214 0 23.167 0.16414 40.8716 5.625 2.4253 0.74806 3.4734-2.0409 0.5-3.125-14.7126-5.36426-28.4526-5.875-41.3716-5.875"/>
    </g>
    <g transform="translate(-80)">
     <g shape-rendering="auto">
      <g fill="#f6b801">
       <path style="isolation:auto;mix-blend-mode:normal" stroke-width=".69999999" stroke="#000" image-rendering="auto" color-rendering="auto" color="#000000" d="m-1385.3649-614.59625c0.9854-0.34161 1.7367-0.98577 2.0481-1.87435l-3e-4 -2e-3c0.6736-1.93102-0.9847-4.28308-3.7038-5.25372-1.1141-0.39772-2.2335-0.50164-3.2132-0.35315v-2.7e-4c-0.3267 0.0498-0.6371 0.12598-0.9273 0.23005-0.964 0.34576-1.6986 0.98463-2.0054 1.86031-0.6749 1.93054 0.9825 4.28269 3.7019 5.25413 0.9306 0.33253 1.8651 0.46021 2.7188 0.40691m-0.332-1.23488c-0.6154 2e-3 -1.2897-0.11225-1.967-0.35487-2.0485-0.73381-3.3486-2.36333-2.9045-3.6408 0.2063-0.59488 0.7546-1.0078 1.4881-1.20593v3.9e-4c0.8426-0.22752 1.9295-0.17146 3.0247 0.22038 2.0488 0.73316 3.3513 2.36209 2.9082 3.63995l5e-4 2e-3c-0.1881 0.53919-0.6571 0.92931-1.2904 1.14488"/>
       <path style="isolation:auto;mix-blend-mode:normal" image-rendering="auto" color-rendering="auto" color="#000000" d="m-1340.9822-589.49938a3.7034924 5.229126 87.16322 0 0-0.5215 0.0117 3.7034924 5.229126 87.16322 0 0-4.9883 3.99023 3.7034924 5.229126 87.16322 0 0 5.4531 3.40235 3.7034924 5.229126 87.16322 0 0 4.9903-3.98828v-4e-3a3.7034924 5.229126 87.16322 0 0-4.9316-3.41211zm-0.055 1.25391a2.4491332 3.9408472 87.16322 0 1 3.7012 2.23437v2e-3a2.4491332 3.9408472 87.16322 0 1-3.7774 2.66211 2.4491332 3.9408472 87.16322 0 1-4.0918-2.22656 2.4491332 3.9408472 87.16322 0 1 3.7754-2.66211 2.4491332 3.9408472 87.16322 0 1 0.3926-0.01z"/>
       <path style="isolation:auto;mix-blend-mode:normal" image-rendering="auto" color-rendering="auto" color="#000000" d="m-1337.0838-595.55602a3.7034924 5.229126 35.672238 0 0-4.3516 2.64648 3.7034924 5.229126 35.672238 0 0 0.018 6.38672 3.7034924 5.229126 35.672238 0 0 6.0586-2.14844 3.7034924 5.229126 35.672238 0 0-0.016-6.38671v-2e-3a3.7034924 5.229126 35.672238 0 0-1.707-0.49609zm0.082 1.26172a2.4491332 3.9408472 35.672238 0 1 0.8828 0.28711v2e-3a2.4491332 3.9408472 35.672238 0 1-0.2695 4.61328 2.4491332 3.9408472 35.672238 0 1-4.2891 1.81445 2.4491332 3.9408472 35.672238 0 1 0.2676-4.61132 2.4491332 3.9408472 35.672238 0 1 3.4062-2.10547z"/>
       <path style="isolation:auto;mix-blend-mode:normal" image-rendering="auto" color-rendering="auto" color="#000000" d="m-1340.1775-602.05407a5.229126 3.7034924 59.721942 0 0-1.4473 0.38867v2e-3a5.229126 3.7034924 59.721942 0 0-0.5058 6.4082 5.229126 3.7034924 59.721942 0 0 5.8398 2.58594 5.229126 3.7034924 59.721942 0 0 0.5078-6.40625 5.229126 3.7034924 59.721942 0 0-4.3925-2.97852zm0.1875 1.26953a3.9408472 2.4491332 59.721942 0 1 3.1269 2.35157 3.9408472 2.4491332 59.721942 0 1-0.09 4.6582 3.9408472 2.4491332 59.721942 0 1-4.1016-2.125 3.9408472 2.4491332 59.721942 0 1 0.088-4.6582 3.9408472 2.4491332 59.721942 0 1 0.9747-0.22657z"/>
       <path style="isolation:auto;mix-blend-mode:normal" image-rendering="auto" color-rendering="auto" color="#000000" d="m-1344.1775-608.17907a5.229126 3.7034924 59.721942 0 0-1.4473 0.38867v2e-3a5.229126 3.7034924 59.721942 0 0-0.5058 6.4082 5.229126 3.7034924 59.721942 0 0 5.8398 2.58594 5.229126 3.7034924 59.721942 0 0 0.5078-6.40625 5.229126 3.7034924 59.721942 0 0-4.3925-2.97852zm0.1875 1.26953a3.9408472 2.4491332 59.721942 0 1 3.1269 2.35157 3.9408472 2.4491332 59.721942 0 1-0.09 4.6582 3.9408472 2.4491332 59.721942 0 1-4.1016-2.125 3.9408472 2.4491332 59.721942 0 1 0.088-4.6582 3.9408472 2.4491332 59.721942 0 1 0.9747-0.22657z"/>
       <path style="isolation:auto;mix-blend-mode:normal" image-rendering="auto" color-rendering="auto" color="#000000" d="m-1349.6365-589.89977a5.229126 3.7034924 20.429109 0 0-3.795 2.12891 5.229126 3.7034924 20.429109 0 0 3.6641 5.27929 5.229126 3.7034924 20.429109 0 0 6.1582-1.69336v-4e-3a5.229126 3.7034924 20.429109 0 0-3.668-5.27735 5.229126 3.7034924 20.429109 0 0-2.3613-0.43359zm-0.1934 1.24805a3.9408472 2.4491332 20.429109 0 1 2.1289 0.36523 3.9408472 2.4491332 20.429109 0 1 2.8828 3.66016v2e-3a3.9408472 2.4491332 20.429109 0 1-4.5215 0.95312 3.9408472 2.4491332 20.429109 0 1-2.8789-3.6621 3.9408472 2.4491332 20.429109 0 1 2.3906-1.31836z"/>
       <path style="isolation:auto;mix-blend-mode:normal" image-rendering="auto" color-rendering="auto" color="#000000" d="m-1362.4725-598.39391a5.229126 3.7034924 43.147806 0 0-2.5117 0.92773 5.229126 3.7034924 43.147806 0 0 1.3418 6.28516 5.229126 3.7034924 43.147806 0 0 6.3359 0.8164v-2e-3a5.229126 3.7034924 43.147806 0 0-1.3437-6.28711 5.229126 3.7034924 43.147806 0 0-3.8243-1.74023zm-0.1289 1.24414a3.9408472 2.4491332 43.147806 0 1 3.1035 1.41992 3.9408472 2.4491332 43.147806 0 1 1.2442 4.49023v2e-3a3.9408472 2.4491332 43.147806 0 1-4.5371-0.86719 3.9408472 2.4491332 43.147806 0 1-1.2422-4.49023 3.9408472 2.4491332 43.147806 0 1 1.4336-0.55469z"/>
       <path style="isolation:auto;mix-blend-mode:normal" image-rendering="auto" color-rendering="auto" color="#000000" d="m-1372.9725-609.02086a5.229126 3.7034924 43.147806 0 0-2.5117 0.92773 5.229126 3.7034924 43.147806 0 0 1.3418 6.28516 5.229126 3.7034924 43.147806 0 0 6.334 0.81835v-4e-3a5.229126 3.7034924 43.147806 0 0-1.3457-6.28516 5.229126 3.7034924 43.147806 0 0-3.8223-1.74218zm-0.1289 1.24609a3.9408472 2.4491332 43.147806 0 1 3.1035 1.41992 3.9408472 2.4491332 43.147806 0 1 1.2442 4.49023v2e-3a3.9408472 2.4491332 43.147806 0 1-4.5371-0.86719 3.9408472 2.4491332 43.147806 0 1-1.2441-4.49023 3.9408472 2.4491332 43.147806 0 1 1.4355-0.55469z"/>
       <path style="isolation:auto;mix-blend-mode:normal" image-rendering="auto" color-rendering="auto" color="#000000" d="m-1367.9725-603.70641a5.229126 3.7034924 43.147806 0 0-2.5117 0.92773 5.229126 3.7034924 43.147806 0 0 1.3418 6.28516 5.229126 3.7034924 43.147806 0 0 6.3359 0.8164v-2e-3a5.229126 3.7034924 43.147806 0 0-1.3457-6.28711 5.229126 3.7034924 43.147806 0 0-3.8223-1.74023zm-0.1289 1.24414a3.9408472 2.4491332 43.147806 0 1 3.1035 1.41992 3.9408472 2.4491332 43.147806 0 1 1.2442 4.49023v2e-3a3.9408472 2.4491332 43.147806 0 1-4.5371-0.86719 3.9408472 2.4491332 43.147806 0 1-1.2422-4.49023 3.9408472 2.4491332 43.147806 0 1 1.4336-0.55469z"/>
       <path style="isolation:auto;mix-blend-mode:normal" image-rendering="auto" color-rendering="auto" color="#000000" d="m-1356.6971-593.69079a5.229126 3.7034924 28.002121 0 0-3.082 1.66211 5.229126 3.7034924 28.002121 0 0 2.9375 5.7168 5.229126 3.7034924 28.002121 0 0 6.3281-0.86719v-2e-3a5.229126 3.7034924 28.002121 0 0-2.9395-5.7168 5.229126 3.7034924 28.002121 0 0-3.2461-0.79297zm0.2578 1.24219a3.9408472 2.4491332 28.002121 0 1 2.4102 0.66406 3.9408472 2.4491332 28.002121 0 1 2.375 4.00977v2e-3a3.9408472 2.4491332 28.002121 0 1-4.6074 0.34766 3.9408472 2.4491332 28.002121 0 1-2.3711-4.00781 3.9408472 2.4491332 28.002121 0 1 2.1953-1.01563z"/>
       <path style="isolation:auto;mix-blend-mode:normal" image-rendering="auto" color-rendering="auto" color="#000000" d="m-1378.285-614.64391a5.229126 3.7034924 43.147806 0 0-2.5117 0.92578 5.229126 3.7034924 43.147806 0 0 1.3418 6.28711 5.229126 3.7034924 43.147806 0 0 6.334 0.8164v-4e-3a5.229126 3.7034924 43.147806 0 0-1.3457-6.28516 5.229126 3.7034924 43.147806 0 0-3.8223-1.74023zm-0.1289 1.24414a3.9408472 2.4491332 43.147806 0 1 3.1035 1.41992 3.9408472 2.4491332 43.147806 0 1 1.2442 4.49023v2e-3a3.9408472 2.4491332 43.147806 0 1-4.5371-0.86719 3.9408472 2.4491332 43.147806 0 1-1.2441-4.49023 3.9408472 2.4491332 43.147806 0 1 1.4355-0.55469z"/>
       <path style="isolation:auto;mix-blend-mode:normal" image-rendering="auto" color-rendering="auto" color="#000000" d="m-1383.3982-619.0404c-0.3298-0.0212-0.6494-0.0126-0.9551 0.0273-1.0155 0.13257-1.8695 0.6003-2.3555 1.39062-1.0705 1.74254 0.048 4.39368 2.4981 5.92188 2.4498 1.52819 5.3032 1.35513 6.375-0.38672v-2e-3c1.0694-1.74328-0.05-4.39452-2.5-5.92188-1.004-0.62586-2.0754-0.96572-3.0644-1.0293zm-0.504 1.23633c0.8716-0.0429 1.9216 0.24328 2.9082 0.85938 1.8457 1.15263 2.7714 3.02154 2.0665 4.17578v2e-3c-0.7071 1.15288-2.7757 1.15321-4.6211 0-1.8453-1.15322-2.7684-3.02213-2.0625-4.17578 0.3282-0.53728 0.9518-0.82399 1.7109-0.86133z"/>
       <path style="isolation:auto;mix-blend-mode:normal" image-rendering="auto" color-rendering="auto" color="#000000" d="m-1383.3982-619.0404c-0.3298-0.0212-0.6494-0.0126-0.9551 0.0273-1.0155 0.13257-1.8695 0.6003-2.3555 1.39062-1.0705 1.74254 0.048 4.39368 2.4981 5.92188 2.4498 1.52819 5.3032 1.35513 6.375-0.38672v-2e-3c1.0694-1.74328-0.05-4.39452-2.5-5.92188-1.004-0.62586-2.0754-0.96572-3.0644-1.0293zm-0.504 1.23633c0.8716-0.0429 1.9216 0.24328 2.9082 0.85938 1.8457 1.15263 2.7714 3.02154 2.0665 4.17578v2e-3c-0.7071 1.15288-2.7757 1.15321-4.6211 0-1.8453-1.15322-2.7684-3.02213-2.0625-4.17578 0.3282-0.53728 0.9518-0.82399 1.7109-0.86133z"/>
      </g>
      <g stroke-width=".69999999" stroke="#000" fill="none">
       <path style="isolation:auto;mix-blend-mode:normal" image-rendering="auto" color-rendering="auto" color="#000000" d="m-1368.36-603.70589c-0.8677 0.0423-1.6105 0.36419-2.1242 0.92721-1.3783 1.51076-0.7776 4.32443 1.3418 6.28516 1.0488 0.97041 2.2732 1.55016 3.4097 1.70532m1.3476-0.028c0.6184-0.12276 1.1642-0.4072 1.5786-0.8609v-2e-3c1.3781-1.51192 0.7756-4.32694-1.3457-6.28711-0.8856-0.81843-1.9345-1.38633-2.9678-1.62221m-0.082 1.2606c0.7482 0.21055 1.5279 0.65965 2.2039 1.28549 1.5966 1.47875 2.1536 3.489 1.2442 4.49023v2e-3c-0.1487 0.16312-0.3272 0.28926-0.5289 0.37971m-1.4037 0.12983c-0.8415-0.14134-1.781-0.61387-2.6045-1.37673-1.5965-1.47932-2.1526-3.4897-1.2422-4.49023 0.2709-0.29752 0.6536-0.48099 1.1126-0.53667"/>
       <path style="isolation:auto;mix-blend-mode:normal" image-rendering="auto" color-rendering="auto" color="#000000" d="m-1373.6152-608.99946c-0.758 0.0878-1.4064 0.39933-1.869 0.90633-1.3783 1.51076-0.7776 4.32443 1.3418 6.28516 0.9077 0.83985 1.947 1.3871 2.947 1.61971m1.2452 0.12418c0.8488-0.0362 1.6052-0.33922 2.1418-0.92554v-4e-3c1.3767-1.512 0.7743-4.32549-1.3457-6.28516-0.9625-0.89023-2.1183-1.48448-3.2373-1.67792m-0.1799 1.23157c0.8559 0.1512 1.7852 0.64052 2.5734 1.37028 1.5966 1.47875 2.1536 3.489 1.2442 4.49023v2e-3c-0.2834 0.31091-0.6753 0.48748-1.1288 0.53865m-1.3538-0.16442c-0.6871-0.2209-1.4067-0.64133-2.0545-1.24142-1.5966-1.47878-2.1536-3.48904-1.2441-4.49023 0.1577-0.17325 0.3534-0.30782 0.5799-0.40101"/>
       <path style="isolation:auto;mix-blend-mode:normal" image-rendering="auto" color-rendering="auto" color="#000000" d="m-1363.3518-598.33719c-0.6564 0.12055-1.2187 0.4176-1.6324 0.87101-1.3783 1.51076-0.7776 4.32443 1.3418 6.28516 1.1825 1.09408 2.5881 1.69158 3.8394 1.74388m1.3216-0.17342c0.4525-0.15175 0.8533-0.40193 1.1749-0.75406v-2e-3c1.379-1.51129 0.7773-4.32639-1.3437-6.28711-1.0203-0.94289-2.2573-1.5532-3.4374-1.70643m-0.086 1.24339c0.8838 0.12878 1.8562 0.62786 2.6761 1.38692 1.5966 1.47875 2.1536 3.489 1.2442 4.49023v2e-3c-0.1596 0.17507-0.3536 0.30755-0.5736 0.39902m-1.2551 0.12636c-0.8675-0.11858-1.8508-0.59815-2.7084-1.39257-1.5965-1.47932-2.1526-3.4897-1.2422-4.49023 0.1571-0.1725 0.3517-0.30667 0.577-0.39981"/>
       <path style="isolation:auto;mix-blend-mode:normal" image-rendering="auto" color-rendering="auto" color="#000000" d="m-1351.6903-589.50978c-0.8438 0.36404-1.4653 0.96671-1.7412 1.73892-0.6881 1.92567 0.9521 4.28896 3.6641 5.27929 1.9513 0.71207 3.9257 0.51939 5.1367-0.36175m0.8652-0.97833c0.06-0.11293 0.1124-0.23074 0.1563-0.35328v-4e-3c0.6857-1.92614-0.9562-4.28833-3.668-5.27735-0.7736-0.28229-1.5827-0.43085-2.3613-0.43359v1e-4c-0.3166-9.9e-4 -0.6217 0.022-0.9125 0.0674m0.3932 1.20262c0.1064-0.0111 0.2158-0.0185 0.3278-0.0219v-5e-5c0.6812-0.0207 1.4201 0.10608 2.1289 0.36523 2.0432 0.74699 3.3337 2.38536 2.8828 3.66016v2e-3m-0.8189 0.92569c-0.8815 0.50004-2.2874 0.54538-3.7026 0.0274-2.0437-0.74825-3.3326-2.38779-2.8789-3.6621 0.1341-0.37621 0.4108-0.6862 0.7958-0.91107"/>
       <path style="isolation:auto;mix-blend-mode:normal" image-rendering="auto" color-rendering="auto" color="#000000" d="m-1345.969-587.30052c-0.3714 0.5478-0.5633 1.1629-0.523 1.80307 0.1287 2.04124 2.57 3.56446 5.4531 3.40235 2.8831-0.16141 5.1173-1.94694 4.9903-3.98828v-4e-3c-0.03-0.47893-0.1888-0.93091-0.4518-1.33968m-0.7978-0.87218c-0.8988-0.72238-2.2074-1.17869-3.682-1.20025v1.1e-4c-0.1737-2e-3 -0.3477 2e-3 -0.5215 0.0117-1.388 0.0781-2.6253 0.53248-3.5211 1.21055m0.8035 0.95223c0.6859-0.50381 1.675-0.8487 2.7915-0.91076 0.1308-7e-3 0.2619-0.0107 0.3926-0.01v1.9e-4c1.031 7e-3 1.9526 0.26195 2.6188 0.67718m0.8672 0.85714c0.1245 0.21889 0.199 0.4539 0.2152 0.70005v2e-3c0.087 1.35005-1.6041 2.54199-3.7774 2.66211-2.1729 0.12001-4.0047-0.8768-4.0918-2.22656-0.015-0.23598 0.024-0.46713 0.1103-0.68858"/>
       <path style="isolation:auto;mix-blend-mode:normal" image-rendering="auto" color-rendering="auto" color="#000000" d="m-1342.5236-588.1228c0.1924 0.66152 0.5612 1.21989 1.1062 1.59998 1.6774 1.17108 4.3901 0.20912 6.0586-2.14844 1.5073-2.13001 1.6465-4.67029 0.4216-6.00377m-1.1533-0.73777c-0.3081-0.099-0.6411-0.14751-0.9913-0.14326v4e-5c-1.5339 0.018-3.2154 1.04064-4.3516 2.64648-0.8211 1.16076-1.236 2.4432-1.2453 3.58574m1.2486-0.17715c0.047-0.83585 0.3916-1.79815 1.0221-2.68783 0.9398-1.32581 2.2924-2.1619 3.4062-2.10547v-5e-5c0.181 9e-3 0.3517 0.042 0.5098 0.0975m0.9193 0.85347c0.4595 0.98547 0.1726 2.55789-0.8158 3.95145-1.259 1.77423-3.1789 2.58642-4.2891 1.81445-0.258-0.17947-0.4496-0.42876-0.5759-0.728"/>
       <path style="isolation:auto;mix-blend-mode:normal" image-rendering="auto" color-rendering="auto" color="#000000" d="m-1339.9514-592.97318c1.2416 0.77298 2.607 0.9386 3.6606 0.30392 1.7522-1.05442 1.9795-3.92226 0.5078-6.40625-0.7662-1.29326-1.87-2.26178-3.019-2.70741m-1.2817-0.26993c-0.031-8.2e-4 -0.061-1e-3 -0.092-1e-3v-4e-5c-0.5303 8.3e-4 -1.0225 0.13299-1.4473 0.38867v2e-3c-1.7523 1.05515-1.9788 3.92419-0.5058 6.4082 0.3767 0.63506 0.828 1.18343 1.3205 1.63027m0.88-0.88597c-0.4137-0.37189-0.8003-0.84093-1.1246-1.38887-1.1082-1.87246-1.0688-3.95773 0.088-4.6582 0.2197-0.13309 0.4708-0.2092 0.7437-0.22613m1.1843 0.25397c0.8039 0.37206 1.5976 1.1231 2.1736 2.09716 1.1083 1.87323 1.068 3.95882-0.09 4.6582-0.5145 0.31031-1.163 0.29485-1.822 0.0176"/>
       <path style="isolation:auto;mix-blend-mode:normal" image-rendering="auto" color-rendering="auto" color="#000000" d="m-1341.9317-598.40933c0.5856 0.034 1.1474-0.0877 1.6409-0.38493 1.7522-1.05442 1.9795-3.92226 0.5078-6.40625-1.0708-1.80735-2.8008-2.98047-4.3925-2.97852v-4e-5c-0.5303 8.3e-4 -1.0225 0.13299-1.4473 0.38867v2e-3c-1.7523 1.05515-1.9788 3.92419-0.5058 6.4082 0.7725 1.30235 1.8589 2.24013 2.9701 2.68539m0.2578-1.24431c-0.7823-0.36849-1.5682-1.09923-2.152-2.08565-1.1082-1.87246-1.0688-3.95773 0.088-4.6582 0.2804-0.16985 0.6118-0.2469 0.9747-0.22657 1.0897 0.063 2.3212 0.98913 3.1269 2.35157 1.1083 1.87323 1.068 3.95882-0.09 4.6582-0.2378 0.14342-0.5043 0.21726-0.7871 0.22781"/>
       <path style="isolation:auto;mix-blend-mode:normal" image-rendering="auto" color-rendering="auto" color="#000000" d="m-1358.0274-593.45956c-0.7929 0.26996-1.4083 0.76389-1.7517 1.43088-0.9361 1.81851 0.379 4.37793 2.9375 5.7168 1.1909 0.62322 2.4414 0.87217 3.5324 0.77687m1.247-0.28899c0.6812-0.27499 1.2268-0.7307 1.5487-1.35507v-2e-3c0.9355-1.81896-0.3805-4.37843-2.9395-5.7168-1.0454-0.54683-2.1894-0.82629-3.2461-0.79297m0.1224 1.24149c0.046-5.3e-4 0.092-2.7e-4 0.1394 8e-4v-5e-5c0.7733 0.0175 1.6227 0.25157 2.4102 0.66406 1.9281 1.01015 2.9915 2.8055 2.375 4.00977v2e-3c-0.1428 0.27779-0.3627 0.49972-0.6401 0.66432m-1.3071 0.34714c-0.8054 0.0317-1.748-0.18534-2.6602-0.6638-1.9259-1.01071-2.9872-2.80449-2.3711-4.00781 0.1622-0.31679 0.4304-0.56754 0.7799-0.74076"/>
      </g>
      <path style="isolation:auto;mix-blend-mode:normal" stroke="#000" image-rendering="auto" fill="#f6b801" color-rendering="auto" color="#000000" d="m-1205.0836-810.07475a6.6022573 8.0625 0 0 1-6.5412 8.13435 6.6022573 8.0625 0 0 1-6.6627-7.98604 6.6022573 8.0625 0 0 1 6.538-8.13825 6.6022573 8.0625 0 0 1 6.6659 7.98206" transform="rotate(-10.601178)"/>
      <path style="isolation:auto;mix-blend-mode:normal" stroke-width=".69999999" stroke="#000" image-rendering="auto" fill="#006d33" color-rendering="auto" color="#000000" d="m-1206.9668-810.06591a4.7189603 7.0755243 0 0 1-4.6753 7.13857 4.7189603 7.0755243 0 0 1-4.7622-7.00842 4.7189603 7.0755243 0 0 1 4.673-7.142 4.7189603 7.0755243 0 0 1 4.7645 7.00493" transform="rotate(-10.601178)"/>
     </g>
     <path stroke-width=".89999998" stroke-linejoin="round" stroke-linecap="round" stroke="#000" fill="none" d="m-1340.7937-581.23857-0.1898-2.55756c-0.065-0.8773-1.1787-0.70851-1.3128 0.0827"/>
     <g stroke-width=".69999999" stroke="#000" shape-rendering="auto">
      <path style="isolation:auto;mix-blend-mode:normal" image-rendering="auto" fill="none" color-rendering="auto" color="#000000" d="m-1378.8959-614.62631c-0.7715 0.0823-1.4315 0.39482-1.9008 0.90818-1.3798 1.51069-0.779 4.32588 1.3418 6.28711 0.9994 0.92431 2.158 1.494 3.2481 1.67972m1.2138 0.0423c0.7389-0.0838 1.3932-0.38174 1.8721-0.90562v-4e-3c1.3767-1.512 0.7743-4.32549-1.3457-6.28516-0.9343-0.86344-2.0504-1.44802-3.138-1.6581m0.1454 1.31245c0.7313 0.21676 1.4893 0.65908 2.1488 1.26958 1.5966 1.47875 2.1536 3.489 1.2442 4.49023v2e-3c-0.1771 0.19429-0.3966 0.33611-0.647 0.42766m-1.4033 0.0601c-0.8107-0.164-1.7015-0.62745-2.4868-1.35492-1.5966-1.47878-2.1536-3.48904-1.2441-4.49023 0.261-0.28662 0.6257-0.46739 1.0624-0.53004"/>
      <path style="isolation:auto;mix-blend-mode:normal" image-rendering="auto" fill="#f6b801" color-rendering="auto" color="#000000" d="m-1385.3649-614.59625c0.9854-0.34161 1.7367-0.98577 2.0481-1.87435l-3e-4 -2e-3c0.6736-1.93102-0.9847-4.28308-3.7038-5.25372-1.1141-0.39772-2.2335-0.50164-3.2132-0.35315v-2.7e-4c-0.3267 0.0498-0.6371 0.12598-0.9273 0.23005-0.964 0.34576-1.6986 0.98463-2.0054 1.86031-0.6749 1.93054 0.9825 4.28269 3.7019 5.25413 0.9306 0.33253 1.8651 0.46021 2.7188 0.40691m-0.332-1.23488c-0.6154 2e-3 -1.2897-0.11225-1.967-0.35487-2.0485-0.73381-3.3486-2.36333-2.9045-3.6408 0.2063-0.59488 0.7546-1.0078 1.4881-1.20593v3.9e-4c0.8426-0.22752 1.9295-0.17146 3.0247 0.22038 2.0488 0.73316 3.3513 2.36209 2.9082 3.63995l5e-4 2e-3c-0.1881 0.53919-0.6571 0.92931-1.2904 1.14488"/>
      <path style="isolation:auto;mix-blend-mode:normal" image-rendering="auto" fill="none" color-rendering="auto" color="#000000" d="m-1384.8047-618.92941c-0.8153 0.1986-1.492 0.6368-1.9041 1.30693-1.0705 1.74254 0.048 4.39368 2.4981 5.92188 0.8913 0.55598 1.836 0.88678 2.7288 0.99877m1.3126 1e-3c1.0063-0.1358 1.8507-0.60212 2.3336-1.38686v-2e-3c1.0694-1.74328-0.05-4.39452-2.5-5.92188-1.004-0.62586-2.0754-0.96572-3.0644-1.0293v1e-4c-0.1232-8e-3 -0.245-0.0117-0.3652-0.0112m0.3517 1.25667c0.7599 0.0626 1.6101 0.34589 2.4177 0.85024 1.8457 1.15263 2.7714 3.02154 2.0665 4.17578v2e-3c-0.2831 0.46163-0.7846 0.73847-1.4025 0.83045m-1.1513-0.0228c-0.6657-0.11012-1.3819-0.37931-2.0673-0.80761-1.8453-1.15322-2.7684-3.02213-2.0625-4.17578 0.2586-0.42328 0.7005-0.69104 1.2475-0.80387"/>
     </g>
    </g>
    <path fill="#f6b801" d="m-1424.3963-588.94896c1.3157-10.39731 0.699-18.00756 6.632-32.5947l-23.007-0.7803"/>
    <path stroke-linejoin="round" stroke-linecap="square" stroke="#000" fill="none" d="m-1417.7643-621.54366c-5.933 14.58714-5.3163 22.19739-6.632 32.5947"/>
   </g>
  </g>
 </g>
</svg>