<?xml version="1.0" encoding="UTF-8" standalone="no"?>
<svg
   width="169.44003mm"
   height="210.41582mm"
   viewBox="0 0 169.44003 210.41583"
   version="1.1"
   id="svg8"
   inkscape:version="1.1 (ce6663b3b7, 2021-05-25)"
   sodipodi:docname="HUN Kunfehértó COA.svg"
   xmlns:inkscape="http://www.inkscape.org/namespaces/inkscape"
   xmlns:sodipodi="http://sodipodi.sourceforge.net/DTD/sodipodi-0.dtd"
   xmlns="http://www.w3.org/2000/svg"
   xmlns:svg="http://www.w3.org/2000/svg"
   xmlns:rdf="http://www.w3.org/1999/02/22-rdf-syntax-ns#"
   xmlns:cc="http://creativecommons.org/ns#"
   xmlns:dc="http://purl.org/dc/elements/1.1/">
  <defs
     id="defs2">
    <clipPath
       clipPathUnits="userSpaceOnUse"
       id="clipPath2228">
      <path
         style="font-variation-settings:normal;opacity:1;vector-effect:none;fill:none;fill-opacity:1;stroke:#000000;stroke-width:0.500002;stroke-linecap:butt;stroke-linejoin:miter;stroke-miterlimit:4;stroke-dasharray:none;stroke-dashoffset:0;stroke-opacity:1;stop-color:#000000;stop-opacity:1"
         d="m 252.09774,250.16427 h 45.36436 c 8.98689,0 11.66344,-5.7737 11.66344,-13.81587 V 45.970359 H 153.51747 V 236.3484 c 0,8.04217 2.67656,13.81587 11.66346,13.81587 h 45.36436 c 12.35315,0 16.81613,7.85979 20.77622,14.16529 3.9601,-6.3055 8.42308,-14.16529 20.77623,-14.16529 z"
         id="path2230"
         sodipodi:nodetypes="sssccssscs"
         inkscape:transform-center-x="-38.901995"
         inkscape:transform-center-y="-154.95853" />
    </clipPath>
    <clipPath
       clipPathUnits="userSpaceOnUse"
       id="clipPath41284">
      <path
         style="font-variation-settings:normal;opacity:1;fill:none;fill-opacity:1;stroke:#000000;stroke-width:0.800002;stroke-linecap:butt;stroke-linejoin:miter;stroke-miterlimit:4;stroke-dasharray:none;stroke-dashoffset:0;stroke-opacity:1;stop-color:#000000;stop-opacity:1"
         d="m -480.58422,257.66954 c 18.46159,-13.14936 22.34946,-42.83651 2.6488,-62.5947 l 20.49078,-30.12106 c 17.00041,10.36821 40.94414,2.36564 46.21215,-0.71624 5.26802,3.08188 29.21174,11.08445 46.21215,0.71624 l 20.49078,30.12106 c -19.70066,19.75819 -15.81279,49.44534 2.6488,62.5947 -13.98751,61.43606 -60.068,51.47826 -69.35173,68.18778 -9.28373,-16.70952 -55.36422,-6.75172 -69.35173,-68.18778 z"
         id="path41286"
         sodipodi:nodetypes="ccccccccc"
         inkscape:transform-center-x="34.675867"
         inkscape:transform-center-y="-113.7676" />
    </clipPath>
    <clipPath
       clipPathUnits="userSpaceOnUse"
       id="clipPath9085">
      <path
         style="font-variation-settings:normal;opacity:1;vector-effect:none;fill:none;fill-opacity:1;stroke:#000000;stroke-width:0.0999998;stroke-linecap:butt;stroke-linejoin:miter;stroke-miterlimit:4;stroke-dasharray:none;stroke-dashoffset:0;stroke-opacity:1;-inkscape-stroke:none;stop-color:#000000;stop-opacity:1"
         d="m -174.39675,243.37142 c 14.46533,-6.30171 38.96519,-16.77995 52.44502,-58.84143 -11.40343,-11.78848 -26.89706,-30.35552 -11.92588,-54.99303 -7.04522,-4.53054 -13.1059,-10.01673 -15.12054,-19.43034 -16.46515,5.20775 -33.1892,8.28166 -48.43717,8.28166 -15.24796,0 -31.97203,-3.07391 -48.43719,-8.28166 -2.01461,9.41361 -8.07529,14.8998 -15.12051,19.43034 14.97118,24.63751 -0.52245,43.20455 -11.92588,54.99303 13.47983,42.06148 37.97966,52.53972 52.44502,58.84143 9.23078,4.02133 17.86059,7.72237 23.03856,20.38268 5.17795,-12.66031 13.80776,-16.36135 23.03857,-20.38268 z"
         id="path9087"
         sodipodi:nodetypes="scccccccscs"
         inkscape:transform-center-x="-37.741799"
         inkscape:transform-center-y="85.582857" />
    </clipPath>
  </defs>
  <sodipodi:namedview
     id="base"
     pagecolor="#ffffff"
     bordercolor="#666666"
     borderopacity="1.0"
     inkscape:pageopacity="0.0"
     inkscape:pageshadow="2"
     inkscape:zoom="0.49999997"
     inkscape:cx="995.00006"
     inkscape:cy="469.00003"
     inkscape:document-units="mm"
     inkscape:current-layer="layer1"
     inkscape:document-rotation="0"
     showgrid="false"
     showborder="false"
     inkscape:window-width="1870"
     inkscape:window-height="1016"
     inkscape:window-x="0"
     inkscape:window-y="0"
     inkscape:window-maximized="1"
     inkscape:snap-bbox="true"
     inkscape:bbox-paths="true"
     inkscape:bbox-nodes="true"
     inkscape:snap-bbox-edge-midpoints="true"
     inkscape:snap-bbox-midpoints="true"
     inkscape:object-paths="true"
     inkscape:snap-intersection-paths="true"
     inkscape:snap-smooth-nodes="true"
     inkscape:snap-midpoints="false"
     inkscape:snap-object-midpoints="true"
     inkscape:snap-center="true"
     showguides="true"
     inkscape:guide-bbox="true"
     inkscape:snap-global="false"
     fit-margin-top="0"
     fit-margin-left="0"
     fit-margin-right="0"
     fit-margin-bottom="0"
     inkscape:pagecheckerboard="0"
     inkscape:snap-others="true"
     inkscape:lockguides="false"
     inkscape:snap-grids="true" />
  <metadata
     id="metadata5">
    <rdf:RDF>
      <cc:Work
         rdf:about="">
        <dc:format>image/svg+xml</dc:format>
        <dc:type
           rdf:resource="http://purl.org/dc/dcmitype/StillImage" />
      </cc:Work>
    </rdf:RDF>
  </metadata>
  <g
     inkscape:groupmode="layer"
     id="layer2"
     inkscape:label="Raszter"
     transform="translate(632.22735,-104.39591)" />
  <g
     inkscape:label="Réteg 1"
     inkscape:groupmode="layer"
     id="layer1"
     transform="translate(632.22735,-104.39591)">
    <g
       id="g88769">
      <path
         style="font-variation-settings:normal;opacity:1;fill:#f6b801;fill-opacity:1;stroke:#000000;stroke-width:0.4;stroke-linecap:butt;stroke-linejoin:miter;stroke-miterlimit:4;stroke-dasharray:none;stroke-dashoffset:0;stroke-opacity:1;stop-color:#000000;stop-opacity:1"
         d="m -464.27746,251.28415 c -5.64791,-20.76759 -19.45292,-61.57243 -6.44405,-129.52802 -16.31377,-7.73075 -45.87143,-16.31017 -76.78589,-16.00212 -30.91445,-0.30805 -60.47211,8.27137 -76.78588,16.00212 13.00887,67.95559 -0.79614,108.76043 -6.44405,129.52802 23.42389,27.38832 49.94089,47.66822 83.22993,62.05686 33.28905,-14.38864 59.80605,-34.66854 83.22994,-62.05686 z"
         id="path2152"
         sodipodi:nodetypes="ccccccc"
         inkscape:transform-center-x="-41.614972"
         inkscape:transform-center-y="-114.40195" />
      <path
         id="rect8619"
         style="font-variation-settings:normal;opacity:1;fill:#005ca1;fill-opacity:1;fill-rule:evenodd;stroke:#000000;stroke-width:0.4;stroke-linecap:round;stroke-linejoin:miter;stroke-miterlimit:4;stroke-dasharray:none;stroke-dashoffset:0;stroke-opacity:1;stop-color:#000000;stop-opacity:1"
         d="m -544.61328,105.75091 c -0.96307,-0.007 -1.92781,-0.007 -2.89388,0.003 v 109.95194 h 74.67554 c -3.87756,-22.7069 -5.62912,-53.52254 2.10995,-93.94982 -15.80396,-7.48916 -44.03662,-15.77475 -73.89161,-16.00522 z" />
      <path
         id="path2247"
         style="font-variation-settings:normal;opacity:1;fill:#005ca1;fill-opacity:1;stroke:#000000;stroke-width:0.4;stroke-linecap:butt;stroke-linejoin:miter;stroke-miterlimit:4;stroke-dasharray:none;stroke-dashoffset:0;stroke-opacity:1;stop-color:#000000;stop-opacity:1"
         d="m -546.78576,203.35942 -18.57561,6.92257 -17.15037,3.98942 -27.12496,-10.38903 -11.05979,1.72341 c -2.57399,20.56508 -7.27931,35.5245 -10.04073,45.67835 23.42389,27.38832 49.94102,47.66804 83.23006,62.05668 33.28905,-14.38864 59.80565,-34.66836 83.22954,-62.05668 -2.72045,-10.00323 -7.32707,-24.67191 -9.92446,-44.76781 l -12.34446,-2.24121 -12.8943,4.75113 -19.15129,4.98781 z" />
      <path
         style="font-variation-settings:normal;opacity:1;fill:none;fill-opacity:1;stroke:#000000;stroke-width:0.4;stroke-linecap:butt;stroke-linejoin:miter;stroke-miterlimit:4;stroke-dasharray:none;stroke-dashoffset:0;stroke-opacity:1;stop-color:#000000;stop-opacity:1"
         d="m -464.27746,251.28415 c -5.64791,-20.76759 -19.45292,-61.57243 -6.44405,-129.52802 -16.31377,-7.73075 -45.87143,-16.31017 -76.78589,-16.00212 -30.91445,-0.30805 -60.47211,8.27137 -76.78588,16.00212 13.00887,67.95559 -0.79614,108.76043 -6.44405,129.52802 23.42389,27.38832 49.94089,47.66822 83.22993,62.05686 33.28905,-14.38864 59.80605,-34.66854 83.22994,-62.05686 z"
         id="path2174"
         sodipodi:nodetypes="ccccccc"
         inkscape:transform-center-x="-41.614972"
         inkscape:transform-center-y="-114.40195" />
      <path
         style="font-variation-settings:normal;fill:none;fill-opacity:1;stroke:#000000;stroke-width:1.8px;stroke-linecap:butt;stroke-linejoin:miter;stroke-miterlimit:4;stroke-dasharray:none;stroke-dashoffset:0;stroke-opacity:1;stop-color:#000000"
         d="m -588.79645,162.548 v 49.993"
         id="path67541" />
      <path
         style="font-variation-settings:normal;fill:none;fill-opacity:1;stroke:#000000;stroke-width:1.8px;stroke-linecap:butt;stroke-linejoin:miter;stroke-miterlimit:4;stroke-dasharray:none;stroke-dashoffset:0;stroke-opacity:1;stop-color:#000000"
         d="m -576.00845,162.548 v 49.993"
         id="path67543" />
      <path
         style="font-variation-settings:normal;fill:none;fill-opacity:1;stroke:#000000;stroke-width:1.8px;stroke-linecap:butt;stroke-linejoin:miter;stroke-miterlimit:4;stroke-dasharray:none;stroke-dashoffset:0;stroke-opacity:1;stop-color:#000000"
         d="m -563.22045,162.548 v 45.64856"
         id="path67545" />
      <path
         style="font-variation-settings:normal;fill:none;fill-opacity:1;stroke:#000000;stroke-width:1.8px;stroke-linecap:butt;stroke-linejoin:miter;stroke-miterlimit:4;stroke-dasharray:none;stroke-dashoffset:0;stroke-opacity:1;stop-color:#000000"
         d="m -601.58445,162.548 v 43.24251"
         id="path67539" />
      <path
         id="path1813"
         style="font-variation-settings:normal;opacity:1;fill:#d7d7d7;fill-opacity:1;stroke:#000000;stroke-width:0.4;stroke-linecap:butt;stroke-linejoin:miter;stroke-miterlimit:4;stroke-dasharray:none;stroke-dashoffset:0;stroke-opacity:1;stop-color:#000000;stop-opacity:1"
         d="m -484.47587,202.49125 c -0.95475,0.008 -1.9109,0.0762 -2.86494,0.21343 -6.59427,0.84315 -12.3846,4.33966 -18.44073,6.81353 -3.49121,1.44785 -7.30478,2.53696 -11.08098,2.2903 -5.1176,-0.24722 -9.75352,-2.52998 -14.34331,-4.62349 -4.95974,-2.31566 -10.16098,-4.57925 -15.72772,-4.67775 -5.78777,-0.18492 -11.27352,2.06039 -16.42122,4.46433 -4.97236,2.28086 -10.09082,4.85139 -15.69052,4.87309 -5.10346,0.0283 -9.86543,-2.08549 -14.40894,-4.18321 -5.07525,-2.35452 -10.30458,-4.82368 -15.98455,-5.12165 -3.80677,-0.24826 -7.53615,0.57386 -11.1032,1.85311 -0.16987,1.4193 -0.35077,2.80847 -0.54002,4.17546 2.8204,-1.15698 5.7249,-2.08856 8.78551,-2.28616 2.34561,-0.22499 4.72327,0.073 6.99906,0.65267 7.26552,1.92202 13.59947,6.484 21.01525,8.05635 1.972,0.42946 4.00549,0.62182 6.02341,0.55036 2.63515,-0.11413 5.22937,-0.66083 7.72459,-1.50637 6.6698,-2.22671 12.67026,-6.33884 19.67735,-7.55303 2.19166,-0.35373 4.42732,-0.36357 6.62182,-0.015 5.80176,0.96276 10.91946,4.00685 16.31167,6.2513 3.47507,1.45938 7.12121,2.64502 10.91199,2.79207 2.15063,0.16176 4.32155,-0.12622 6.42907,-0.53898 6.80519,-1.51292 12.7119,-5.46131 19.30063,-7.5892 2.70468,-0.83839 5.54943,-1.33209 8.38553,-1.13379 2.78708,0.16803 5.53859,0.98274 8.0977,1.96578 0.2908,0.11478 0.57741,0.24177 0.86661,0.36122 -0.19018,-1.37339 -0.37199,-2.76891 -0.5426,-4.1951 -3.20967,-1.16342 -6.59548,-1.91645 -10.00146,-1.88929 z" />
      <path
         id="path54060"
         style="font-variation-settings:normal;opacity:1;fill:#d7d7d7;fill-opacity:1;stroke:#000000;stroke-width:0.4;stroke-linecap:butt;stroke-linejoin:miter;stroke-miterlimit:4;stroke-dasharray:none;stroke-dashoffset:0;stroke-opacity:1;stop-color:#000000;stop-opacity:1"
         inkscape:transform-center-x="-41.614972"
         inkscape:transform-center-y="-114.40195"
         d="m -550.40144,105.75091 c -29.85498,0.23047 -58.08765,8.51606 -73.89162,16.00522 13.00887,67.95559 -0.79614,108.76042 -6.44405,129.52801 23.42389,27.38832 49.94051,47.66804 83.22955,62.05668 33.28905,-14.38864 59.80617,-34.66836 83.23006,-62.05668 -5.64791,-20.76759 -19.45292,-61.57242 -6.44405,-129.52801 -16.31377,-7.73075 -45.87155,-16.31017 -76.78601,-16.00212 -0.96608,-0.01 -1.93082,-0.0105 -2.89388,-0.003 z m 2.64015,4.76663 c 8.45895,-0.0535 16.92598,0.5042 25.28321,1.62677 8.94048,1.24472 17.75914,3.05281 26.45265,5.47409 6.77813,1.87592 13.44598,4.23295 19.94968,6.96546 -4.56307,25.2023 -6.15898,51.04385 -3.53673,76.55915 1.57672,16.62697 5.486,32.92422 10.05416,48.95257 -4.51293,5.14932 -9.20808,10.14041 -14.11076,14.92105 -18.44901,18.10465 -40.20946,32.71349 -63.83435,43.11417 -5.90601,-2.63428 -11.71372,-5.48961 -17.3793,-8.60826 -23.02727,-12.51787 -43.41251,-29.66095 -60.57563,-49.42696 3.02725,-10.7419 5.85547,-21.55628 7.78351,-32.55563 5.42843,-30.71558 4.27151,-62.33891 -1.25833,-92.95195 4.26751,-1.8517 8.61294,-3.45994 13.05089,-4.88032 18.7311,-6.0121 38.40792,-9.26404 58.121,-9.19014 z" />
      <path
         id="path2967"
         style="font-variation-settings:normal;opacity:1;fill:#d7d7d7;fill-opacity:1;stroke:#000000;stroke-width:0.4;stroke-linecap:butt;stroke-linejoin:miter;stroke-miterlimit:4;stroke-dasharray:none;stroke-dashoffset:0;stroke-opacity:1;stop-color:#000000;stop-opacity:1"
         inkscape:transform-center-x="-46.199942"
         inkscape:transform-center-y="-54.835127"
         d="m -627.03977,237.84723 c -1.36184,5.16937 -2.6665,9.64607 -3.69745,13.43691 23.42389,27.38832 49.94102,47.66804 83.23006,62.05668 33.28905,-14.38864 59.80565,-34.66836 83.22954,-62.05668 -1.03095,-3.79084 -2.33561,-8.26754 -3.69745,-13.43691 -8.26987,12.8426 -28.93919,38.24457 -46.34187,47.54129 -10.2306,5.46531 -22.34826,-0.11009 -13.42295,-10.75645 -5.77206,3.37433 -12.68916,5.73564 -19.76727,5.41362 -7.0781,0.32202 -13.99573,-2.03929 -19.76779,-5.41362 8.92531,10.64636 -3.19235,16.22176 -13.42295,10.75645 -17.40268,-9.29672 -38.072,-34.69869 -46.34187,-47.54129 z" />
      <g
         id="g54064"
         transform="translate(-359.8335)">
        <path
           style="font-variation-settings:normal;opacity:1;fill:none;fill-opacity:1;stroke:#000000;stroke-width:2.7;stroke-linecap:butt;stroke-linejoin:miter;stroke-miterlimit:4;stroke-dasharray:none;stroke-dashoffset:0;stroke-opacity:1;stop-color:#000000;stop-opacity:1"
           d="m -104.4439,251.28415 c -5.64791,-20.76759 -19.45292,-61.57243 -6.44405,-129.52802 -16.31377,-7.73075 -45.87143,-16.31017 -76.78589,-16.00212 -30.91445,-0.30805 -60.47211,8.27137 -76.78588,16.00212 13.00887,67.95559 -0.79614,108.76043 -6.44405,129.52802 23.42389,27.38832 49.94089,47.66822 83.22993,62.05686 33.28905,-14.38864 59.80605,-34.66854 83.22994,-62.05686 z"
           id="path42038"
           sodipodi:nodetypes="ccccccc"
           inkscape:transform-center-x="-41.614972"
           inkscape:transform-center-y="-114.40195" />
        <path
           style="font-variation-settings:normal;opacity:1;fill:none;fill-opacity:1;stroke:#d7d7d7;stroke-width:1.7;stroke-linecap:butt;stroke-linejoin:miter;stroke-miterlimit:4;stroke-dasharray:none;stroke-dashoffset:0;stroke-opacity:1;stop-color:#000000;stop-opacity:1"
           d="m -104.4439,251.28415 c -5.64791,-20.76759 -19.45292,-61.57243 -6.44405,-129.52802 -16.31377,-7.73075 -45.87143,-16.31017 -76.78589,-16.00212 -30.91445,-0.30805 -60.47211,8.27137 -76.78588,16.00212 13.00887,67.95559 -0.79614,108.76043 -6.44405,129.52802 23.42389,27.38832 49.94089,47.66822 83.22993,62.05686 33.28905,-14.38864 59.80605,-34.66854 83.22994,-62.05686 z"
           id="path42040"
           sodipodi:nodetypes="ccccccc"
           inkscape:transform-center-x="-41.614972"
           inkscape:transform-center-y="-114.40195" />
      </g>
      <circle
         style="font-variation-settings:normal;opacity:1;fill:#000000;fill-opacity:1;fill-rule:evenodd;stroke:#000000;stroke-width:0.4;stroke-linecap:round;stroke-linejoin:miter;stroke-miterlimit:4;stroke-dasharray:none;stroke-dashoffset:0;stroke-opacity:1;stop-color:#000000;stop-opacity:1"
         id="path61291"
         cx="-547.50714"
         cy="283.73386"
         r="2.3989372" />
      <circle
         style="font-variation-settings:normal;opacity:1;fill:#000000;fill-opacity:1;fill-rule:evenodd;stroke:#000000;stroke-width:0.4;stroke-linecap:round;stroke-linejoin:miter;stroke-miterlimit:4;stroke-dasharray:none;stroke-dashoffset:0;stroke-opacity:1;stop-color:#000000;stop-opacity:1"
         id="circle61373"
         cx="-559.81055"
         cy="282.14633"
         r="2.3989372"
         inkscape:transform-center-x="12.30332"
         inkscape:transform-center-y="-40.176836" />
      <circle
         style="font-variation-settings:normal;opacity:1;fill:#000000;fill-opacity:1;fill-rule:evenodd;stroke:#000000;stroke-width:0.4;stroke-linecap:round;stroke-linejoin:miter;stroke-miterlimit:4;stroke-dasharray:none;stroke-dashoffset:0;stroke-opacity:1;stop-color:#000000;stop-opacity:1"
         id="circle61375"
         cx="-625.03094"
         cy="248.80853"
         r="2.3989372"
         inkscape:transform-center-x="77.523386"
         inkscape:transform-center-y="-73.514622" />
      <path
         style="font-variation-settings:normal;opacity:1;fill:#d7d7d7;fill-opacity:1;stroke:#000000;stroke-width:0.4;stroke-linecap:butt;stroke-linejoin:miter;stroke-miterlimit:4;stroke-dasharray:none;stroke-dashoffset:0;stroke-opacity:1;stop-color:#000000;stop-opacity:1"
         d="m -573.2604,279.70807 3.36723,1.32778 c 1.74704,0.6889 3.63953,-0.68143 2.59741,-2.80857 -2.82136,-5.75884 -7.08335,-5.81236 -8.3217,-4.34405 -1.34221,1.59145 -0.31871,4.76971 2.35706,5.82484 z"
         id="path61429"
         sodipodi:nodetypes="sssss"
         inkscape:transform-center-x="24.09461"
         inkscape:transform-center-y="-45.176945" />
      <circle
         style="font-variation-settings:normal;opacity:1;fill:#000000;fill-opacity:1;fill-rule:evenodd;stroke:#000000;stroke-width:0.4;stroke-linecap:round;stroke-linejoin:miter;stroke-miterlimit:4;stroke-dasharray:none;stroke-dashoffset:0;stroke-opacity:1;stop-color:#000000;stop-opacity:1"
         id="circle62404"
         cx="535.20374"
         cy="282.14633"
         r="2.3989372"
         inkscape:transform-center-x="-12.30331"
         inkscape:transform-center-y="-40.176836"
         transform="scale(-1,1)" />
      <circle
         style="font-variation-settings:normal;opacity:1;fill:#000000;fill-opacity:1;fill-rule:evenodd;stroke:#000000;stroke-width:0.4;stroke-linecap:round;stroke-linejoin:miter;stroke-miterlimit:4;stroke-dasharray:none;stroke-dashoffset:0;stroke-opacity:1;stop-color:#000000;stop-opacity:1"
         id="circle62406"
         cx="469.98355"
         cy="248.80853"
         r="2.3989372"
         inkscape:transform-center-x="-77.523376"
         inkscape:transform-center-y="-73.514622"
         transform="scale(-1,1)" />
      <path
         style="font-variation-settings:normal;opacity:1;fill:#d7d7d7;fill-opacity:1;stroke:#000000;stroke-width:0.4;stroke-linecap:butt;stroke-linejoin:miter;stroke-miterlimit:4;stroke-dasharray:none;stroke-dashoffset:0;stroke-opacity:1;stop-color:#000000;stop-opacity:1"
         d="m -521.75439,279.70807 -3.36723,1.32778 c -1.74704,0.6889 -3.63953,-0.68143 -2.59741,-2.80857 2.82136,-5.75884 7.08335,-5.81236 8.3217,-4.34405 1.34221,1.59145 0.31871,4.76971 -2.35706,5.82484 z"
         id="path62408"
         sodipodi:nodetypes="sssss"
         inkscape:transform-center-x="-24.09461"
         inkscape:transform-center-y="-45.176945" />
      <rect
         style="font-variation-settings:normal;opacity:1;vector-effect:none;fill:#000000;fill-opacity:1;fill-rule:evenodd;stroke:#000000;stroke-width:0.1;stroke-linecap:round;stroke-linejoin:miter;stroke-miterlimit:4;stroke-dasharray:none;stroke-dashoffset:0;stroke-opacity:1;-inkscape-stroke:none;stop-color:#000000;stop-opacity:1"
         id="rect67253"
         width="4.4725957"
         height="30.157593"
         x="-603.82092"
         y="136.0966"
         ry="1.7058392" />
      <rect
         style="font-variation-settings:normal;opacity:1;vector-effect:none;fill:#000000;fill-opacity:1;fill-rule:evenodd;stroke:#000000;stroke-width:0.1;stroke-linecap:round;stroke-linejoin:miter;stroke-miterlimit:4;stroke-dasharray:none;stroke-dashoffset:0;stroke-opacity:1;-inkscape-stroke:none;stop-color:#000000;stop-opacity:1"
         id="rect67429"
         width="4.4725957"
         height="30.157593"
         x="-565.45612"
         y="136.0966"
         ry="1.7058392" />
      <rect
         style="font-variation-settings:normal;opacity:1;vector-effect:none;fill:#000000;fill-opacity:1;fill-rule:evenodd;stroke:#000000;stroke-width:0.1;stroke-linecap:round;stroke-linejoin:miter;stroke-miterlimit:4;stroke-dasharray:none;stroke-dashoffset:0;stroke-opacity:1;-inkscape-stroke:none;stop-color:#000000;stop-opacity:1"
         id="rect67875"
         width="4.4725957"
         height="30.157593"
         x="-590.92224"
         y="136.0966"
         ry="1.7058392" />
      <rect
         style="font-variation-settings:normal;opacity:1;vector-effect:none;fill:#000000;fill-opacity:1;fill-rule:evenodd;stroke:#000000;stroke-width:0.1;stroke-linecap:round;stroke-linejoin:miter;stroke-miterlimit:4;stroke-dasharray:none;stroke-dashoffset:0;stroke-opacity:1;-inkscape-stroke:none;stop-color:#000000;stop-opacity:1"
         id="rect67877"
         width="4.4725957"
         height="30.157593"
         x="-578.15582"
         y="136.0966"
         ry="1.7058392" />
      <path
         style="font-variation-settings:normal;opacity:1;fill:none;fill-opacity:1;stroke:#000000;stroke-width:0.4;stroke-linecap:butt;stroke-linejoin:miter;stroke-miterlimit:4;stroke-dasharray:none;stroke-dashoffset:0;stroke-opacity:1;stop-color:#000000;stop-opacity:1"
         d="m -555.51298,204.26376 c 2.28318,6.61216 7.48424,8.74656 10.7189,7.11786 3.25164,-1.63725 4.93497,-8.28412 -1.46779,-17.36271 -3.67461,-5.2103 -5.84996,-9.95355 -6.31835,-14.09614 -1.05379,-9.32014 8.32138,-20.71254 11.78107,-14.72019 1.02753,1.77973 -0.89469,4.95648 -5.00301,8.06079 -1.97426,1.49178 -6.28235,1.28782 -7.86797,-1.20253 -2.60936,-4.09824 -0.0688,-11.52706 5.47196,-28.26471 4.29704,-12.98046 7.68231,-18.05992 -1.18753,-17.91364"
         id="path68248"
         sodipodi:nodetypes="csssssssc" />
      <path
         style="fill:#d7d7d7;fill-opacity:1;stroke:#000000;stroke-width:0.4;stroke-miterlimit:4;stroke-dasharray:none"
         d="m -521.66705,198.97014 c -9.7e-4,-0.22829 -0.33292,-1.88075 -0.71858,-3.57717 -0.79208,-3.48411 -0.91172,-4.25522 -0.91302,-5.88433 -0.002,-2.42755 0.62879,-4.57863 1.93018,-6.58283 0.26458,-0.40746 0.50913,-0.74083 0.54345,-0.74083 0.0343,0 0.10979,-0.10402 0.16771,-0.23114 0.0956,-0.20991 0.0848,-0.24878 -0.11813,-0.42333 -0.29373,-0.25266 -0.80019,-0.25426 -1.24557,-0.004 -0.26333,0.148 -0.43278,0.36104 -0.79251,0.99638 -0.76026,1.34271 -1.40112,2.9444 -1.72744,4.31733 -0.45409,1.91053 -0.30856,3.75231 0.7126,9.01837 0.25284,1.30387 0.48568,2.52307 0.51743,2.70933 0.0317,0.18627 0.074,0.36725 0.0939,0.40217 0.0199,0.0349 0.37686,0.0635 0.79321,0.0635 0.41635,0 0.75688,-0.0286 0.75673,-0.0635 z m 26.26308,-7.37762 c 0.30684,-0.34342 0.328,-0.82871 0.0474,-1.08603 -0.10477,-0.0961 -0.87359,-0.50323 -1.70848,-0.9048 -0.83489,-0.40157 -1.53112,-0.74326 -1.54716,-0.7593 -0.016,-0.0161 -0.008,-0.084 0.0176,-0.15099 0.0353,-0.0921 0.22902,-0.12437 0.79292,-0.13225 1.23744,-0.0173 1.74803,-0.24623 1.6895,-0.75752 l -0.0275,-0.24032 -0.97366,0.0303 c -1.62606,0.0506 -2.81545,-0.24415 -3.90304,-0.96718 -0.81784,-0.5437 -0.82123,-0.55218 -0.3545,-0.88736 0.53458,-0.38391 1.02016,-0.89486 1.21689,-1.28049 0.289,-0.56648 0.26394,-0.59493 -0.75718,-0.86 -1.80443,-0.4684 -2.84823,-1.07305 -3.47647,-2.01386 -0.29498,-0.44174 -0.33396,-0.54642 -0.23882,-0.64156 0.0895,-0.0895 0.17185,-0.0934 0.38683,-0.0185 0.4175,0.14554 1.42829,0.0571 1.88717,-0.16523 0.40278,-0.1951 1.15873,-0.86228 1.52047,-1.34193 l 0.20498,-0.27179 0.7885,0.6331 c 0.43367,0.3482 1.02422,0.75408 1.31233,0.90195 0.92094,0.47268 1.82354,0.34226 2.17489,-0.31424 0.0902,-0.16863 0.0674,-0.26252 -0.17437,-0.7161 -0.56192,-1.05426 -2.02887,-2.11977 -3.77352,-2.74086 l -0.6035,-0.21484 -0.5395,0.31589 c -0.29672,0.17374 -1.09213,0.7168 -1.76756,1.2068 -1.25077,0.90737 -2.3297,1.59937 -2.49192,1.59827 -0.0495,-3.4e-4 -0.37162,-0.31467 -0.7158,-0.6985 -0.34418,-0.38384 -1.46819,-1.59324 -2.4978,-2.68756 -1.02961,-1.09431 -2.16921,-2.32005 -2.53243,-2.72386 l -0.66041,-0.73419 0.48144,-0.0601 c 0.52548,-0.0657 1.34245,-0.008 1.82087,0.12957 0.16713,0.0479 0.61131,0.27379 0.98705,0.50201 0.37575,0.22822 0.76859,0.44205 0.873,0.47519 0.41197,0.13075 1.94284,0.0355 3.46774,-0.21584 2.25706,-0.37196 2.86077,-0.42218 3.39857,-0.28268 0.92132,0.23899 1.76675,0.11463 2.15935,-0.31764 0.5983,-0.65875 0.29336,-2.0148 -0.58359,-2.59514 -0.29741,-0.19681 -0.43746,-0.23093 -0.94782,-0.23093 -0.56604,0 -0.63365,0.0217 -1.23385,0.39572 -0.68363,0.42604 -1.4341,0.74794 -2.24367,0.9624 -0.60825,0.16112 -2.32688,0.25529 -3.11633,0.17075 -0.479,-0.0513 -0.56667,-0.0856 -0.56667,-0.22156 0,-0.10272 0.12369,-0.22398 0.34218,-0.33544 0.44572,-0.22739 0.97703,-0.76266 1.02951,-1.03719 0.056,-0.29288 -0.10702,-0.64018 -0.45661,-0.97286 l -0.29022,-0.27618 -1.18026,0.82117 c -1.87129,1.30195 -2.94353,1.79869 -4.18597,1.93925 l -0.52285,0.0592 -0.67618,-0.66795 c -0.37189,-0.36737 -1.32982,-1.34874 -2.12874,-2.18082 l -1.45257,-1.51289 0.5222,-0.49083 c 0.78753,-0.74022 2.03716,-1.35717 3.16899,-1.56455 0.30535,-0.0559 0.30949,-0.0528 0.51732,0.39571 0.53905,1.16325 1.76201,1.92973 3.0838,1.93277 0.41208,9.5e-4 0.44865,-0.0169 0.62727,-0.30591 0.25396,-0.41091 0.30873,-1.02236 0.12365,-1.38027 -0.0785,-0.15174 -0.12647,-0.29209 -0.10667,-0.31189 0.0392,-0.0392 3.53228,0.27382 3.56934,0.31988 0.0125,0.0155 0.12024,0.24456 0.23947,0.509 0.14902,0.33051 0.29749,0.52255 0.47494,0.61431 0.24242,0.12536 1.31303,0.38655 1.58447,0.38655 0.15001,0 0.59952,-0.68914 0.70963,-1.08792 0.11891,-0.43066 -0.0582,-0.69396 -0.69045,-1.02672 -0.29402,-0.15473 -0.54977,-0.294 -0.56833,-0.30948 -0.0186,-0.0155 0.0698,-0.17753 0.19631,-0.36011 0.2712,-0.39134 0.47244,-1.01053 0.47244,-1.45364 0,-0.46731 -0.3161,-1.41676 -0.50541,-1.51808 -0.2601,-0.1392 -0.76862,-0.0992 -1.16239,0.0914 -0.52892,0.25605 -0.80234,0.75762 -0.85429,1.56716 l -0.0402,0.62605 -0.77203,-0.003 c -0.42462,-0.001 -1.30544,-0.0577 -1.95737,-0.12524 -0.65193,-0.0675 -1.4437,-0.12353 -1.75949,-0.1245 -0.66074,-0.002 -0.77694,-0.11446 -0.49228,-0.47635 0.40134,-0.51021 0.0738,-1.0494 -0.63741,-1.0494 -0.76937,0 -1.72376,0.55014 -2.36688,1.36434 -0.27786,0.35177 -0.40781,0.44115 -0.79761,0.54853 -1.19631,0.32959 -2.14042,0.77741 -3.12183,1.48077 l -0.70883,0.50801 -0.7305,-0.74681 c -0.40178,-0.41075 -0.85702,-0.96155 -1.01166,-1.224 -1.2494,-2.12046 -1.06495,-4.95006 0.4784,-7.33919 0.31953,-0.49462 1.12505,-1.85182 1.79006,-3.01599 0.66501,-1.16416 1.49956,-2.56529 1.85457,-3.11361 0.73878,-1.14107 0.64771,-1.10736 1.66146,-0.61491 0.77015,0.37412 1.34389,0.92903 1.66082,1.60628 0.20824,0.445 0.25069,0.64496 0.25356,1.19441 0.003,0.55337 -0.0215,0.67377 -0.15114,0.74567 -0.33226,0.18432 -1.13216,1.02579 -1.29513,1.36245 -0.55123,1.13868 0.33959,2.33676 1.73322,2.33105 0.36136,-0.001 0.95657,-0.23194 1.10737,-0.42875 0.0503,-0.0656 0.13528,-0.65265 0.18894,-1.30459 0.11602,-1.40957 0.24774,-1.95381 0.71207,-2.94216 0.43331,-0.92234 0.61939,-0.98993 0.6993,-0.254 0.15939,1.4678 0.47464,2.22826 1.20807,2.91417 0.5857,0.54774 1.01921,0.61629 1.69895,0.26866 0.64838,-0.33159 0.87602,-0.73252 0.86933,-1.53105 -0.003,-0.31476 -0.061,-0.78006 -0.12979,-1.03401 -0.0687,-0.25395 -0.11182,-0.47491 -0.0957,-0.49101 0.0245,-0.0245 2.48129,0.55331 3.53772,0.83207 l 0.31357,0.0827 -0.61674,0.61163 c -0.73258,0.72651 -0.91451,1.16736 -0.73457,1.77993 0.13293,0.45255 0.95867,1.27694 1.62652,1.62387 0.28683,0.149 0.53769,0.35214 0.62526,0.50633 0.0804,0.14163 0.32208,0.44009 0.53698,0.66326 0.50301,0.52235 1.06827,0.71196 1.71131,0.57405 0.48788,-0.10463 1.2029,-0.43567 1.56546,-0.72476 0.2426,-0.19344 0.24662,-0.21033 0.24526,-1.03019 -10e-4,-0.78436 -0.023,-0.88754 -0.36841,-1.74922 -0.20187,-0.50364 -0.35297,-0.92977 -0.33576,-0.94698 0.0583,-0.0583 1.32199,0.52942 1.69218,0.78702 0.20242,0.14086 0.53318,0.42618 0.73503,0.63405 l 0.367,0.37794 -0.17425,0.34156 c -0.26377,0.51702 -0.30998,0.97274 -0.14298,1.41002 0.0784,0.20519 0.20191,0.4224 0.27456,0.48269 0.11218,0.0931 0.17057,0.0665 0.38771,-0.17651 0.2473,-0.27678 0.25412,-0.30636 0.20874,-0.90635 -0.0297,-0.39227 -0.0142,-0.64046 0.0421,-0.67523 0.0489,-0.0302 0.26504,0.13824 0.48023,0.37442 0.50132,0.55021 1.0539,0.95628 1.569,1.15299 0.49174,0.1878 0.55561,0.13017 0.55477,-0.50059 -10e-4,-0.84665 -0.46836,-1.41201 -1.28171,-1.55085 -0.23048,-0.0393 -0.37415,-0.11151 -0.39045,-0.19612 -0.0206,-0.10674 0.0874,-0.14545 0.53274,-0.19108 0.30719,-0.0315 0.77566,-0.13757 1.04105,-0.23578 0.44925,-0.16624 1.31854,-0.67761 1.41374,-0.83165 0.0644,-0.10427 -0.5394,-0.5976 -0.95826,-0.78288 -0.73566,-0.32542 -1.71417,-0.15491 -2.55761,0.44568 l -0.24783,0.17647 -1.08142,-0.61823 c -1.30543,-0.74629 -1.38339,-0.88266 -0.63035,-1.10266 0.63472,-0.18543 1.24786,-0.72076 1.56324,-1.36486 0.33504,-0.68423 0.31347,-0.79333 -0.17282,-0.87427 -0.64824,-0.10789 -1.33,-0.0563 -1.75799,0.13302 -0.21765,0.0963 -0.61739,0.4023 -0.89174,0.68267 -0.6843,0.69935 -0.84014,0.6276 -0.45367,-0.20885 0.40787,-0.88278 0.55054,-1.58908 0.54873,-2.71656 -10e-4,-0.86382 -0.0238,-1.00618 -0.21913,-1.39163 -0.38148,-0.75282 -0.53179,-0.6877 -1.10243,0.47761 -0.50143,1.02397 -1.19643,1.89602 -1.99249,2.50009 -0.93561,0.70995 -1.28639,0.86437 -1.83487,0.80776 -0.83719,-0.0864 -4.00157,-0.5983 -4.00157,-0.64732 0,-0.0267 0.34255,-0.48609 0.76123,-1.02088 0.85008,-1.08582 1.09575,-1.63118 0.90969,-2.01938 -0.22412,-0.46759 -0.98219,-0.44963 -1.81494,0.043 -0.2809,0.16618 -1.04868,0.76816 -1.70617,1.33773 l -1.19543,1.0356 -0.53036,-0.072 c -0.66181,-0.0899 -1.6268,-0.35131 -2.34887,-0.63634 -0.67356,-0.26588 -1.94915,-0.96151 -1.94915,-1.06295 0,-0.0405 0.26037,-0.38579 0.57861,-0.7672 0.51994,-0.62313 7.39824,-9.05354 7.41718,-9.09088 0.004,-0.008 0.69303,0.0919 1.53051,0.22312 0.83748,0.1312 1.85492,0.28478 2.26098,0.3413 l 0.73827,0.10277 -0.18266,0.35145 c -0.27833,0.53552 -0.26032,1.20743 0.0431,1.60548 0.12995,0.17052 0.31279,0.35098 0.40631,0.40103 0.41569,0.22247 1.24636,-0.41626 1.43046,-1.09993 0.0682,-0.25334 0.13606,-0.34346 0.25855,-0.34346 0.12051,0 0.16607,0.0578 0.16607,0.21075 0,0.34586 0.30528,1.04339 0.63016,1.43987 0.37502,0.45766 1.47045,1.15605 1.84019,1.17321 0.21818,0.0101 0.30664,-0.0421 0.46582,-0.27519 0.26484,-0.38775 0.25143,-0.80722 -0.0446,-1.39407 -0.33233,-0.65884 -0.23184,-0.72979 0.62571,-0.44177 1.37033,0.46025 2.52099,0.4767 3.48596,0.0498 l 0.38992,-0.17248 -0.20408,-0.21848 c -0.52543,-0.56247 -1.50803,-0.87556 -2.7562,-0.87822 -0.54133,-0.001 -0.70017,-0.0294 -0.7394,-0.13168 -0.0275,-0.0716 -0.003,-0.1453 0.0544,-0.16375 2.10819,-0.67739 2.94028,-1.06392 3.41029,-1.58416 0.25899,-0.28668 0.29802,-0.38335 0.27589,-0.68346 -0.0236,-0.32049 -0.0504,-0.35604 -0.32211,-0.42743 -0.48459,-0.12734 -2.08176,-0.0147 -2.75167,0.19412 -0.76496,0.2384 -1.71144,0.74652 -2.40326,1.2902 l -0.54867,0.43119 -0.55603,-0.14639 c -1.34276,-0.35351 -1.69904,-0.48723 -1.69904,-0.6377 0,-0.1156 0.17964,-0.19503 0.8255,-0.36502 1.11091,-0.2924 1.71205,-0.52669 2.1321,-0.83097 0.40251,-0.29158 0.54721,-0.59381 0.47318,-0.98838 -0.0482,-0.25715 -0.075,-0.27604 -0.39156,-0.27604 -1.3701,0 -3.1054,0.61423 -4.73255,1.67514 l -0.71967,0.46923 -1.05833,-0.14962 c -0.58208,-0.0823 -1.10006,-0.17425 -1.15105,-0.20436 -0.0548,-0.0323 0.69559,-0.98583 1.83252,-2.32873 1.05889,-1.2507 1.98448,-2.33323 2.05687,-2.40562 0.11904,-0.11905 0.16366,-0.10266 0.46715,0.17151 0.42704,0.38581 0.57758,0.4643 1.10915,0.5783 0.53781,0.11534 1.17258,-0.016 1.43684,-0.29729 0.15178,-0.16157 0.18165,-0.29806 0.18449,-0.84322 0.004,-0.85676 -0.23222,-1.29847 -0.85422,-1.59409 l -0.42222,-0.20067 0.62485,-0.62068 c 0.35256,-0.3502 0.66554,-0.59552 0.71823,-0.56296 0.0527,0.0326 0.0934,0.29915 0.0934,0.61142 0,1.00333 0.37391,1.40295 1.16811,1.24844 0.70905,-0.13794 0.99543,-0.88174 0.75396,-1.95818 -0.0962,-0.42884 -0.10388,-0.58892 -0.0305,-0.63562 0.15625,-0.0994 0.16847,-0.0854 0.46062,0.52719 0.3728,0.78176 0.67771,0.97782 1.50013,0.96464 0.83829,-0.0134 1.22887,-0.16847 1.36247,-0.54083 0.0585,-0.16299 0.10922,-0.48972 0.11276,-0.72608 0.007,-0.44494 -0.15262,-0.69409 -0.52898,-0.82738 -0.0878,-0.0311 -0.14226,-0.1179 -0.12622,-0.20115 0.0207,-0.10756 0.7788,-0.43071 2.85491,-1.21697 3.03511,-1.14945 3.04666,-1.15607 3.05306,-1.75291 0.003,-0.24322 -0.0375,-0.29642 -0.30921,-0.40994 -0.52458,-0.21918 -1.05333,-0.0859 -3.57228,0.90015 -1.92828,0.75486 -2.35868,0.89622 -2.45351,0.80584 -0.0965,-0.0919 -0.0852,-0.14992 0.0698,-0.35959 0.3021,-0.40861 0.31677,-0.86264 0.0441,-1.36366 -0.12801,-0.23521 -0.31641,-0.50624 -0.41866,-0.6023 l -0.18591,-0.17466 -0.50149,0.32441 c -0.89829,0.58108 -1.36914,1.22497 -1.5133,2.0694 -0.0718,0.42042 -0.27678,0.42042 -0.34245,0 -0.18731,-1.19904 -0.53286,-1.62983 -1.30734,-1.62983 -0.30588,0 -0.36559,0.0362 -0.57005,0.34511 -0.18945,0.28628 -0.23461,0.46371 -0.2649,1.04082 -0.0321,0.6124 -0.009,0.76574 0.19745,1.28052 0.1686,0.42145 0.20486,0.59452 0.12981,0.61954 -0.25223,0.0841 -1.37046,0.89662 -1.93178,1.40369 -0.3516,0.31762 -0.66349,0.53532 -0.73024,0.50971 -0.0801,-0.0307 -0.1284,-0.24999 -0.15456,-0.70192 -0.0464,-0.80147 -0.29983,-1.38998 -0.68417,-1.58873 -0.31443,-0.16259 -0.34631,-0.13086 -0.77792,0.77426 -0.4718,0.98938 -0.57972,1.88759 -0.34587,2.87867 0.11046,0.4681 0.10799,0.52129 -0.0314,0.67733 -0.0832,0.0931 -1.26908,1.46473 -2.63533,3.048 -3.40529,3.94617 -3.62513,4.19348 -3.66632,4.12448 -0.1007,-0.16868 -0.47815,-1.49463 -0.47815,-1.67971 0,-0.11743 0.15475,-0.99625 0.34389,-1.95295 0.18914,-0.9567 0.32369,-1.79211 0.29899,-1.85647 -0.10274,-0.26774 -0.83724,-0.023 -1.59055,0.52997 -0.32767,0.24053 -0.43991,0.28457 -0.51844,0.20339 -0.0779,-0.0805 -0.0342,-0.15317 0.19611,-0.32608 0.98653,-0.74062 1.35603,-1.3893 1.41992,-2.4928 l 0.0429,-0.74083 h -0.27571 c -0.20812,0 -0.35757,0.0819 -0.60969,0.33398 -0.33212,0.33213 -0.65298,0.39252 -0.52913,0.0996 0.46098,-1.09026 0.58557,-1.80284 0.45702,-2.61374 -0.11159,-0.70391 -0.45496,-1.49936 -0.60928,-1.41144 -0.26758,0.15245 -0.41128,0.34077 -0.49375,0.64703 -0.13567,0.50383 -0.33942,0.3983 -0.52846,-0.27372 -0.24393,-0.86712 -0.15903,-2.90803 0.17957,-4.31703 0.35355,-1.47119 0.39448,-1.85575 0.23752,-2.23141 -0.1096,-0.26232 -0.16889,-0.30859 -0.39536,-0.30859 -0.60704,0 -1.05473,0.65077 -1.38445,2.0125 -0.11367,0.46943 -0.23321,1.06591 -0.26564,1.3255 -0.0473,0.37876 -0.0895,0.472 -0.21336,0.472 -0.11999,0 -0.16671,-0.0896 -0.20965,-0.40217 -0.17364,-1.26377 -0.48963,-1.52537 -0.97112,-0.80397 -0.16347,0.24492 -0.21106,0.42393 -0.209,0.78613 0.003,0.56308 0.24119,1.01663 0.91872,1.75086 l 0.45169,0.48948 -0.0801,0.635 c -0.12184,0.9658 -0.0254,2.96654 0.17937,3.72262 0.13071,0.4825 0.14709,0.64818 0.0691,0.69939 -0.0645,0.0424 -0.16453,-0.019 -0.27147,-0.16662 -0.0931,-0.12855 -0.32624,-0.39565 -0.51802,-0.59356 -0.44623,-0.46048 -0.80908,-0.49037 -1.2503,-0.10297 -0.25636,0.22509 -0.28389,0.28704 -0.22258,0.50082 0.16422,0.5726 0.55569,1.29757 0.83138,1.53962 0.27866,0.24467 0.32877,0.25809 0.81291,0.21777 0.28377,-0.0236 0.59478,-0.0684 0.69113,-0.0996 0.16438,-0.0531 0.20043,0.0434 0.58509,1.56572 0.46503,1.84044 0.45071,1.95613 -0.18232,1.47293 -0.49714,-0.37948 -0.92821,-0.49298 -1.34373,-0.3538 -0.49875,0.16706 -0.52286,0.28986 -0.17383,0.8854 0.39751,0.67824 0.97113,1.24511 1.44189,1.42489 0.37287,0.1424 1.27349,0.1415 1.82795,-0.002 l 0.21356,-0.0552 0.25615,1.82113 0.25615,1.82113 -2.45189,2.77822 c -1.34854,1.52802 -2.48447,2.79114 -2.52431,2.80692 -0.0398,0.0158 -0.15731,-0.15567 -0.26106,-0.381 -0.1506,-0.32708 -0.18873,-0.56336 -0.18907,-1.1717 -3.4e-4,-0.66922 0.0503,-0.93092 0.41643,-2.14939 0.39915,-1.32844 0.41021,-1.39225 0.26046,-1.50176 -0.2146,-0.15691 -0.66207,-0.23083 -1.00638,-0.16624 -0.3983,0.0747 -0.94945,0.58963 -1.44556,1.3505 l -0.41996,0.64407 -0.24983,-0.40092 c -0.42953,-0.6893 -0.99634,-1.93299 -1.03676,-2.27487 -0.0378,-0.32001 -0.0136,-0.3541 1.07466,-1.51272 1.12438,-1.19706 1.46656,-1.71775 1.41571,-2.15427 -0.0203,-0.17462 -0.0771,-0.22143 -0.29413,-0.24246 -0.39055,-0.0379 -0.80274,0.20923 -1.8054,1.08224 -0.48895,0.42572 -0.95096,0.80873 -1.02668,0.85112 -0.11701,0.0655 -0.17811,-0.0505 -0.40719,-0.77311 -0.14823,-0.46761 -0.28891,-0.90074 -0.31261,-0.96251 -0.0238,-0.0621 0.24292,-0.42685 0.59681,-0.81602 0.44237,-0.48646 0.68182,-0.82985 0.77564,-1.11233 0.25856,-0.77844 0.052,-0.82713 -1.1681,-0.27533 -0.46334,0.20955 -0.85341,0.381 -0.86681,0.381 -0.0134,0 -0.0684,-0.21907 -0.12212,-0.48683 -0.2572,-1.28088 -1.24031,-2.12166 -2.25766,-1.93081 -0.67319,0.1263 -1.39195,1.13423 -1.39195,1.95198 0,0.91222 0.83308,1.92462 2.20001,2.67359 0.37583,0.20592 0.74456,0.41574 0.81939,0.46627 0.0992,0.067 0.15455,0.30761 0.20438,0.889 0.10632,1.24033 0.46818,2.25058 1.18603,3.31116 l 0.32626,0.48202 -0.17157,0.38785 c -0.21085,0.47667 -0.22542,1.11318 -0.0347,1.51513 0.0788,0.16605 0.42787,0.55663 0.77571,0.86795 0.67404,0.60327 0.69001,0.70622 0.10991,0.70873 -0.66432,0.003 -1.31708,0.54395 -1.5217,1.26134 -0.083,0.29104 -0.0722,0.31964 0.21662,0.57431 0.60557,0.53392 1.78054,0.96217 3.08631,1.12487 1.33586,0.16646 1.24075,0.0789 0.85709,0.78918 -0.18179,0.33656 -1.2935,2.44073 -2.47046,4.67593 -1.17697,2.2352 -2.26273,4.28672 -2.41281,4.55893 l -0.27287,0.49494 -1.03282,-0.91827 c -0.56806,-0.50505 -1.24859,-1.09973 -1.51231,-1.32151 -0.26372,-0.22179 -0.48857,-0.43134 -0.49966,-0.46567 -0.0111,-0.0343 0.2729,-0.21482 0.63111,-0.40109 1.30277,-0.67744 2.62398,-1.83696 3.39537,-2.97985 0.28514,-0.42246 0.35402,-0.59849 0.35402,-0.90466 0,-0.46499 -0.12346,-0.81449 -0.28774,-0.81449 -0.22528,0 -0.63729,0.43013 -0.91703,0.95734 -0.52688,0.99301 -1.83435,2.13472 -3.4424,3.00599 l -0.62551,0.33891 -0.77149,-0.89512 c -0.42432,-0.49231 -1.06677,-1.23751 -1.42766,-1.65601 -0.36089,-0.41849 -0.65617,-0.79003 -0.65617,-0.82563 0,-0.0916 0.96991,-1.0117 1.61535,-1.53246 0.82042,-0.66192 1.94371,-1.36524 2.60681,-1.63218 0.66017,-0.26577 0.805,-0.46116 0.75777,-1.02237 -0.0576,-0.68424 -0.91161,-0.88009 -1.88819,-0.433 -0.53889,0.24671 -1.89311,1.15591 -2.5414,1.70626 -0.42873,0.36395 -1.28628,1.2271 -1.68098,1.69194 l -0.21568,0.254 -0.80996,-0.80634 -0.80997,-0.80633 0.44596,-0.33072 c 0.24528,-0.1819 0.8792,-0.69534 1.40873,-1.141 0.52952,-0.44565 1.44392,-1.20624 2.032,-1.6902 1.24077,-1.02108 1.46001,-1.28898 1.51294,-1.8488 0.0331,-0.35045 0.01,-0.43065 -0.17774,-0.60559 -0.18429,-0.17208 -0.27795,-0.19568 -0.63906,-0.16098 -0.35686,0.0343 -0.51325,0.11346 -0.99868,0.50553 -1.76876,1.42859 -4.70514,3.70943 -4.77558,3.70943 -0.0887,0 -0.82541,-0.71841 -1.43255,-1.39704 -0.20832,-0.23285 -0.51212,-0.5291 -0.6751,-0.65834 -0.27006,-0.21415 -0.28275,-0.24292 -0.14308,-0.32452 0.33766,-0.19728 0.75544,-0.62831 0.92701,-0.95642 0.14141,-0.27041 0.18084,-0.49356 0.17923,-1.01427 -0.002,-0.75162 -0.0988,-0.89874 -0.58957,-0.89874 -0.36243,0 -0.70216,0.39173 -1.01953,1.17558 -0.13368,0.33018 -0.26358,0.6008 -0.28867,0.60137 -0.0251,6e-4 -0.17749,-0.21803 -0.33867,-0.48579 -0.61121,-1.01537 -1.74761,-1.93388 -2.91844,-2.35887 l -0.54961,-0.1995 v 0.1949 c 0,0.1072 0.0614,0.40185 0.13652,0.65477 0.32375,1.09056 1.18696,2.44491 2.77359,4.35166 0.30867,0.37095 0.56122,0.69842 0.56122,0.7277 0,0.0293 -0.68005,0.38092 -1.51122,0.7814 -1.61601,0.77865 -1.7728,0.90659 -1.85414,1.51306 -0.0567,0.42259 0.11651,0.62265 0.68528,0.79156 0.84651,0.25139 1.38706,0.17506 2.97641,-0.42028 l 1.43934,-0.53914 0.46566,0.47929 c 0.7452,0.76699 2.27501,2.50345 2.28702,2.59595 0.0124,0.0955 -0.71183,0.3034 -4.69977,1.3491 -3.07646,0.8067 -3.10064,0.81776 -3.52081,1.6098 -0.36386,0.68587 -0.008,1.0516 1.20639,1.24007 0.77442,0.12019 1.37824,0.0592 2.57493,-0.26019 1.6684,-0.44526 3.36038,-1.16727 4.93609,-2.10638 l 0.87884,-0.52378 0.47582,0.35873 c 0.53815,0.40572 1.9332,1.72739 2.04623,1.93859 0.0627,0.1172 -0.0113,0.16007 -0.47291,0.27399 -1.3044,0.32189 -2.38779,0.95752 -3.44296,2.02 -0.70377,0.70865 -0.9142,1.14708 -0.9142,1.90477 0,0.5415 0.20073,0.7043 0.86839,0.7043 0.80395,0 1.00932,-0.0944 1.71783,-0.78921 0.35545,-0.3486 0.94447,-0.84852 1.30893,-1.11093 0.73217,-0.52717 2.21892,-1.31719 2.47884,-1.31719 0.45713,0 2.49336,1.83743 3.3864,3.05579 0.40878,0.5577 0.52943,0.82108 0.91139,1.98966 0.24212,0.74079 0.54998,1.5905 0.68412,1.88826 0.32086,0.71224 0.26483,0.78245 -0.49603,0.6215 -0.67749,-0.1433 -2.05057,-0.0942 -2.67144,0.0956 -0.28713,0.0877 -0.57335,0.28244 -0.98212,0.66806 -0.94269,0.88928 -1.80181,1.28831 -3.68137,1.70986 l -0.99798,0.22383 -1.9481,1.66824 c -1.54669,1.32449 -2.10105,1.74676 -2.69033,2.04925 -0.95716,0.49134 -1.5009,0.91777 -2.52194,1.97784 -1.35086,1.40252 -1.81177,2.07749 -2.20577,3.23021 -0.40175,1.17537 -0.54423,2.74121 -0.36326,3.99207 0.20085,1.38824 0.90341,1.78046 2.06127,1.15076 0.61671,-0.33539 0.8286,-0.58224 1.26449,-1.4731 0.66306,-1.35514 1.06182,-2.66037 1.41697,-4.63809 0.0955,-0.53202 0.17371,-0.97688 0.17371,-0.98858 0,-0.0117 0.47827,-0.3544 1.06281,-0.76157 1.20822,-0.8416 2.18972,-1.77234 2.77997,-2.63621 l 0.40453,-0.59205 1.41118,-0.52991 c 2.45961,-0.92362 3.9262,-1.72667 5.15375,-2.82199 0.4769,-0.42553 0.57053,-0.4724 1.13339,-0.56733 0.95121,-0.16045 1.80369,-0.0796 2.45419,0.23268 0.29911,0.1436 0.65815,0.35773 0.79785,0.47584 l 0.254,0.21474 -0.21097,0.15284 c -0.11604,0.0841 -1.13208,0.7815 -2.25787,1.54985 l -2.0469,1.397 -1.30403,1.48167 c -1.60031,1.81829 -3.06673,3.29118 -4.33509,4.35421 -0.79354,0.66507 -1.023,0.9125 -1.31338,1.41615 -0.89973,1.56056 -1.27372,2.94569 -1.14593,4.24419 0.0567,0.57657 0.0806,0.63085 0.42198,0.96025 0.49492,0.47755 1.04075,0.68202 1.47407,0.5522 0.4837,-0.14492 0.96041,-0.70978 1.19486,-1.41582 0.10706,-0.3224 0.56438,-1.46248 1.01627,-2.53352 0.4519,-1.07103 0.91108,-2.22536 1.02042,-2.56516 l 0.19881,-0.61783 0.93454,-0.48284 c 0.7628,-0.3941 1.06008,-0.60731 1.6176,-1.16017 0.4578,-0.45398 0.75563,-0.83376 0.90317,-1.1517 0.19406,-0.41821 0.30587,-0.53143 0.9444,-0.95629 1.34594,-0.89556 3.0274,-2.41771 3.96152,-3.58617 0.2534,-0.31697 0.46275,-0.50646 0.52158,-0.47209 0.45905,0.26813 1.20911,0.82707 1.75274,1.30611 0.6359,0.56034 2.75714,2.84944 2.69467,2.90791 -0.0171,0.016 -0.79313,0.25754 -1.72446,0.5367 l -1.69334,0.50758 -0.24278,-0.47736 c -0.32792,-0.64475 -0.74741,-1.14539 -1.09985,-1.31264 -0.16678,-0.0791 -0.50363,-0.13832 -0.78683,-0.13823 -0.4911,1.7e-4 -0.49705,0.003 -0.71799,0.35983 -0.50435,0.81426 -0.53458,1.54903 -0.0929,2.25947 l 0.25937,0.41725 -0.44925,0.42488 c -0.63767,0.60309 -1.13851,0.89662 -2.04523,1.19869 -0.92181,0.30711 -1.22912,0.56239 -2.00515,1.66567 -0.54992,0.78184 -1.08317,1.34482 -1.63041,1.72133 -0.45262,0.31142 -0.61905,0.76837 -0.46596,1.27934 0.0958,0.31978 0.43635,0.66406 0.65686,0.66406 0.066,0 0.40375,-0.26858 0.75056,-0.59684 0.63337,-0.59948 0.99825,-0.80794 2.44922,-1.39925 0.69754,-0.28427 1.0615,-0.59469 1.78769,-1.52467 0.2955,-0.37843 0.73844,-0.84083 0.98431,-1.02756 0.42857,-0.32546 1.17285,-0.78568 1.27063,-0.78568 0.0257,0 0.0414,0.25717 0.0349,0.5715 -0.0141,0.68088 0.12119,0.91484 0.71932,1.24431 0.54091,0.29796 0.68058,0.27668 1.03673,-0.15796 0.73468,-0.89658 1.00371,-1.99587 0.70384,-2.87594 -0.11811,-0.34663 -0.1171,-0.38279 0.0121,-0.43516 0.0775,-0.0314 0.80411,-0.28304 1.61471,-0.55917 l 1.47382,-0.50206 0.38885,0.3278 c 0.38804,0.32712 1.78598,1.91657 1.7857,2.03032 -9e-5,0.033 -0.16478,0.16402 -0.366,0.29114 -0.57126,0.36088 -1.29909,1.11732 -2.43528,2.53101 -1.66319,2.0694 -2.2278,2.61264 -2.89768,2.78801 -0.6019,0.15757 -0.93814,0.43786 -1.22987,1.02522 -0.33742,0.67934 -1.19902,3.01271 -1.19902,3.24716 0,0.41386 0.35399,0.4779 1.15196,0.20843 0.47509,-0.16044 0.62336,-0.28764 2.32049,-1.99071 0.99714,-1.00063 1.85248,-1.80565 1.90076,-1.78894 0.0517,0.0179 0.0764,0.23663 0.0601,0.53166 -0.0337,0.61056 0.1624,0.92605 0.63023,1.01381 0.26162,0.0491 0.33508,0.021 0.58921,-0.22532 0.494,-0.47881 0.64005,-1.01958 0.71859,-2.66078 0.0385,-0.80352 0.12767,-1.66374 0.20195,-1.94733 0.16002,-0.61095 0.72343,-1.76866 1.0252,-2.10661 l 0.21782,-0.24394 1.66668,1.64826 c 0.91667,0.90654 1.96793,1.87315 2.33613,2.14803 l 0.66945,0.49977 -0.28845,0.0774 c -0.64307,0.17254 -2.08244,0.67022 -2.40244,0.83067 -0.55971,0.28064 -1.20508,0.80413 -1.46531,1.18858 -0.37674,0.55656 -0.533,1.04126 -0.66214,2.05385 -0.0653,0.51223 -0.15283,1.12183 -0.19446,1.35466 -0.16572,0.92697 0.22954,1.19985 1.30323,0.89972 2.53592,-0.70887 2.60207,-0.7593 3.41365,-2.60272 0.48426,-1.09994 0.85633,-1.66856 1.32643,-2.02711 0.47533,-0.36256 0.52061,-0.21934 0.28692,0.90754 -0.1587,0.76527 -0.19926,1.22599 -0.20003,2.27224 -10e-4,1.76288 0.053,1.92337 0.57111,1.68731 0.30378,-0.13841 0.423,-0.4006 0.46797,-1.02912 0.0226,-0.31544 0.0688,-0.57353 0.10283,-0.57353 0.1567,0 0.94817,0.90063 1.52152,1.73136 1.18579,1.71812 1.53564,1.98405 3.34693,2.54411 0.5588,0.17278 1.26365,0.44548 1.56633,0.606 0.46545,0.24684 0.61486,0.28634 0.96864,0.25608 0.33777,-0.0289 0.4641,-0.087 0.65617,-0.302 z"
         id="path70745"
         sodipodi:nodetypes="sssssssssssssssscssscsscsssssssssscssssscsssssscccsssssssssssssscsscsscsssssssssssssssssssccssssssscssssssscsscsssssscssscssssssscsssscsssssssscssssssscssssssscssssssssscssssssscsssssssssssscscscssssscssssssscssssssscscssssssssscssscsssssscsssssscssssssssssssssssscssssssssssssssscscssssssssscsssssscccsssssssscssssssssssssscsssssscssscsssssscssssssssscssssssssscccsssscssssssscssssscscsssssscssssssscsssssssssssssssscssssssssssscssssscsscssssssssscssssssssscssscscssssssssssssssssscsssssssssssssssscsscssssssssscssssssscc" />
      <g
         id="g85389"
         transform="translate(-148.1667)">
        <path
           style="font-variation-settings:normal;opacity:1;fill:#006d33;fill-opacity:1;stroke:#000000;stroke-width:0.4;stroke-linecap:butt;stroke-linejoin:miter;stroke-miterlimit:4;stroke-dasharray:none;stroke-dashoffset:0;stroke-opacity:1;stop-color:#000000;stop-opacity:1"
           d="m -394.33538,241.23024 8.47828,-1.4534 c 2.55171,-1.98562 2.47469,-4.78489 2.05852,-7.08655 -1.50664,-8.33256 6.44345,-11.22197 8.1732,-4.19812 1.97143,8.00519 5.9798,4.47187 7.22128,3.72161 3.04172,-1.8382 5.60295,-3.4562 7.06025,-0.71628 4.32629,-0.85651 4.2648,1.08113 3.24057,3.21767 -0.66401,1.00774 -3.43703,2.96852 -2.93225,6.37233 0.26047,1.75637 -0.2825,2.76098 -2.17838,2.68941 -1.27528,-0.0481 -3.4132,0.0644 -3.46623,0.83593 -0.0719,1.04635 2.02887,2.10486 2.69408,2.50066 1.88007,1.11865 2.81302,2.69948 2.47921,5.77269 -0.88652,2.37201 -2.60167,3.62151 -6.22137,2.28583 -0.82174,0.90975 -2.72116,2.58664 -4.39963,-1.06353 -1.05646,-2.29748 -2.29933,-3.49479 -4.64297,-2.60041 -2.02098,0.77124 -2.17655,1.34999 -1.46287,3.20534 0.79881,2.07669 0.66709,4.52743 -2.45956,5.59933 -1.62763,0.55799 -2.37001,1.50394 -3.65773,2.93346 -1.25295,-1.93687 -3.0905,-3.02875 -6.37972,-2.02235 -0.0658,-2.44512 -0.41756,-4.7449 -1.35056,-6.74921 l -6.33862,0.3589 c 4.31709,-2.51704 8.27845,-5.44973 8.95656,-12.21864 l -5.52214,0.81546"
           id="path73842"
           sodipodi:nodetypes="ccsssccssssccsssscccccc" />
        <path
           style="font-variation-settings:normal;opacity:1;fill:none;fill-opacity:1;stroke:#000000;stroke-width:0.4;stroke-linecap:butt;stroke-linejoin:miter;stroke-miterlimit:4;stroke-dasharray:none;stroke-dashoffset:0;stroke-opacity:1;stop-color:#000000;stop-opacity:1"
           d="m -388.24137,241.60089 c 6.02245,-0.51811 13.36864,3.86373 19.1111,-2.76816 1.72934,-1.99719 4.26461,-3.27154 6.67133,-3.5956"
           id="path78000"
           sodipodi:nodetypes="csc" />
        <path
           style="font-variation-settings:normal;opacity:1;fill:none;fill-opacity:1;stroke:#000000;stroke-width:0.4;stroke-linecap:butt;stroke-linejoin:miter;stroke-miterlimit:4;stroke-dasharray:none;stroke-dashoffset:0;stroke-opacity:1;stop-color:#000000;stop-opacity:1"
           d="m -364.29147,249.74308 c -13.32943,1.49769 -9.77098,-7.30612 -17.32478,-7.57647 3.20387,-0.82312 0.41426,-4.55018 3.23759,-11.55883"
           id="path78510"
           sodipodi:nodetypes="ccc" />
        <path
           style="font-variation-settings:normal;opacity:1;fill:none;fill-opacity:1;stroke:#000000;stroke-width:0.4;stroke-linecap:butt;stroke-linejoin:miter;stroke-miterlimit:4;stroke-dasharray:none;stroke-dashoffset:0;stroke-opacity:1;stop-color:#000000;stop-opacity:1"
           d="m -384.10405,259.55318 c -0.71443,-4.7563 0.65459,-7.09573 1.97428,-9.3042 1.01267,-1.69468 2.25292,-5.35337 -0.54572,-8.2411"
           id="path78512"
           sodipodi:nodetypes="csc" />
        <path
           style="font-variation-settings:normal;opacity:1;fill:none;fill-opacity:1;stroke:#000000;stroke-width:0.4;stroke-linecap:butt;stroke-linejoin:miter;stroke-miterlimit:4;stroke-dasharray:none;stroke-dashoffset:0;stroke-opacity:1;stop-color:#000000;stop-opacity:1"
           d="m -389.92973,251.47675 c 2.05056,-3.21038 8.75613,-6.8061 6.15016,-9.631"
           id="path78514"
           sodipodi:nodetypes="cc" />
      </g>
      <g
         id="g88585"
         transform="translate(-185.20839,10.583333)">
        <circle
           style="font-variation-settings:normal;opacity:1;fill:#f6b801;fill-opacity:1;fill-rule:evenodd;stroke:#000000;stroke-width:0.4;stroke-linecap:round;stroke-linejoin:miter;stroke-miterlimit:4;stroke-dasharray:none;stroke-dashoffset:0;stroke-opacity:1;stop-color:#000000;stop-opacity:1"
           id="path85413"
           cx="-356.80502"
           cy="221.26465"
           r="8.1258278" />
        <circle
           style="font-variation-settings:normal;opacity:1;fill:#f6b801;fill-opacity:1;fill-rule:evenodd;stroke:#000000;stroke-width:0.4;stroke-linecap:round;stroke-linejoin:miter;stroke-miterlimit:4;stroke-dasharray:none;stroke-dashoffset:0;stroke-opacity:1;stop-color:#000000;stop-opacity:1"
           id="circle85495"
           cx="-394.24359"
           cy="249.57501"
           r="8.1258278" />
        <circle
           style="font-variation-settings:normal;opacity:1;fill:#f6b801;fill-opacity:1;fill-rule:evenodd;stroke:#000000;stroke-width:0.4;stroke-linecap:round;stroke-linejoin:miter;stroke-miterlimit:4;stroke-dasharray:none;stroke-dashoffset:0;stroke-opacity:1;stop-color:#000000;stop-opacity:1"
           id="circle85497"
           cx="-383.79257"
           cy="246.26767"
           r="8.1258278" />
        <circle
           style="font-variation-settings:normal;opacity:1;fill:#f6b801;fill-opacity:1;fill-rule:evenodd;stroke:#000000;stroke-width:0.4;stroke-linecap:round;stroke-linejoin:miter;stroke-miterlimit:4;stroke-dasharray:none;stroke-dashoffset:0;stroke-opacity:1;stop-color:#000000;stop-opacity:1"
           id="circle85499"
           cx="-373.07678"
           cy="242.56354"
           r="8.1258278" />
        <circle
           style="font-variation-settings:normal;opacity:1;fill:#f6b801;fill-opacity:1;fill-rule:evenodd;stroke:#000000;stroke-width:0.4;stroke-linecap:round;stroke-linejoin:miter;stroke-miterlimit:4;stroke-dasharray:none;stroke-dashoffset:0;stroke-opacity:1;stop-color:#000000;stop-opacity:1"
           id="circle85501"
           cx="-394.77267"
           cy="240.57918"
           r="8.1258278" />
        <circle
           style="font-variation-settings:normal;opacity:1;fill:#f6b801;fill-opacity:1;fill-rule:evenodd;stroke:#000000;stroke-width:0.4;stroke-linecap:round;stroke-linejoin:miter;stroke-miterlimit:4;stroke-dasharray:none;stroke-dashoffset:0;stroke-opacity:1;stop-color:#000000;stop-opacity:1"
           id="circle85503"
           cx="-370.03412"
           cy="217.9574"
           r="8.1258278" />
        <circle
           style="font-variation-settings:normal;opacity:1;fill:#f6b801;fill-opacity:1;fill-rule:evenodd;stroke:#000000;stroke-width:0.4;stroke-linecap:round;stroke-linejoin:miter;stroke-miterlimit:4;stroke-dasharray:none;stroke-dashoffset:0;stroke-opacity:1;stop-color:#000000;stop-opacity:1"
           id="circle85505"
           cx="-361.83209"
           cy="234.62608"
           r="8.1258278" />
        <circle
           style="font-variation-settings:normal;opacity:1;fill:#f6b801;fill-opacity:1;fill-rule:evenodd;stroke:#000000;stroke-width:0.4;stroke-linecap:round;stroke-linejoin:miter;stroke-miterlimit:4;stroke-dasharray:none;stroke-dashoffset:0;stroke-opacity:1;stop-color:#000000;stop-opacity:1"
           id="circle85507"
           cx="-383.13101"
           cy="221.66158"
           r="8.1258278" />
        <circle
           style="font-variation-settings:normal;opacity:1;fill:#f6b801;fill-opacity:1;fill-rule:evenodd;stroke:#000000;stroke-width:0.4;stroke-linecap:round;stroke-linejoin:miter;stroke-miterlimit:4;stroke-dasharray:none;stroke-dashoffset:0;stroke-opacity:1;stop-color:#000000;stop-opacity:1"
           id="circle85509"
           cx="-384.45395"
           cy="232.37721"
           r="8.1258278" />
        <circle
           style="font-variation-settings:normal;opacity:1;fill:#f6b801;fill-opacity:1;fill-rule:evenodd;stroke:#000000;stroke-width:0.4;stroke-linecap:round;stroke-linejoin:miter;stroke-miterlimit:4;stroke-dasharray:none;stroke-dashoffset:0;stroke-opacity:1;stop-color:#000000;stop-opacity:1"
           id="circle85511"
           cx="-370.2988"
           cy="229.86371"
           r="8.1258278" />
      </g>
    </g>
  </g>
</svg>
