<?xml version="1.0" encoding="UTF-8" standalone="no"?>
<!-- Created with Inkscape (http://www.inkscape.org/) -->

<svg
   inkscape:version="1.1.1 (eb90963e84, 2021-10-02)"
   sodipodi:docname="HUN_Tass_COA.svg"
   viewBox="0 0 639.9862 610.74924"
   height="610.74927"
   width="639.98621"
   id="svg81460"
   version="1.1"
   xmlns:inkscape="http://www.inkscape.org/namespaces/inkscape"
   xmlns:sodipodi="http://sodipodi.sourceforge.net/DTD/sodipodi-0.dtd"
   xmlns="http://www.w3.org/2000/svg"
   xmlns:svg="http://www.w3.org/2000/svg">
  <defs
     id="defs81464">
    <clipPath
       clipPathUnits="userSpaceOnUse"
       id="clipPath70302">
      <path
         id="path70304"
         style="font-variation-settings:normal;opacity:1;fill:#da251c;fill-opacity:1;fill-rule:evenodd;stroke:#000000;stroke-width:1.88976;stroke-linecap:round;stroke-linejoin:miter;stroke-miterlimit:4;stroke-dasharray:none;stroke-dashoffset:0;stroke-opacity:1;stop-color:#000000;stop-opacity:1"
         d="m -1839.3535,1313.8867 v 165.4805 c 0,62.3931 59.2381,120.9059 124.5039,103.418 79.3667,-21.2662 169.658,-21.6843 195.461,38.2226 25.8029,-59.9069 116.0942,-59.4888 195.4609,-38.2226 65.2658,17.4879 124.5039,-41.0249 124.5039,-103.418 v -165.4805 z" />
    </clipPath>
  </defs>
  <sodipodi:namedview
     id="namedview81462"
     pagecolor="#ffffff"
     bordercolor="#666666"
     borderopacity="1.0"
     inkscape:pageshadow="2"
     inkscape:pageopacity="0.0"
     inkscape:pagecheckerboard="0"
     showgrid="false"
     showborder="false"
     inkscape:zoom="0.493046"
     inkscape:cx="421.86733"
     inkscape:cy="104.45273"
     inkscape:window-width="1870"
     inkscape:window-height="1016"
     inkscape:window-x="0"
     inkscape:window-y="0"
     inkscape:window-maximized="1"
     inkscape:current-layer="layer1"
     inkscape:snap-bbox="true"
     inkscape:bbox-paths="true"
     inkscape:bbox-nodes="true"
     inkscape:snap-bbox-edge-midpoints="true"
     inkscape:snap-bbox-midpoints="true"
     inkscape:object-paths="true"
     inkscape:snap-intersection-paths="true"
     inkscape:snap-smooth-nodes="true"
     inkscape:snap-midpoints="true"
     inkscape:snap-object-midpoints="true"
     inkscape:snap-center="true"
     inkscape:snap-text-baseline="true"
     inkscape:snap-page="true"
     showguides="true"
     inkscape:guide-bbox="true"
     inkscape:snap-global="true"
     fit-margin-top="0"
     fit-margin-left="0"
     fit-margin-right="0"
     fit-margin-bottom="0" />
  <g
     inkscape:groupmode="layer"
     id="layer1"
     inkscape:label="RASZTER"
     transform="translate(10321.962,190.59355)" />
  <g
     inkscape:groupmode="layer"
     inkscape:label="Image"
     id="g81466"
     transform="translate(10321.962,190.59355)">
    <g
       id="g11567"
       inkscape:transform-center-x="203.21971"
       inkscape:transform-center-y="11.607525"
       transform="translate(-640,360)">
      <path
         style="font-variation-settings:normal;opacity:1;fill:#006d33;fill-opacity:1;stroke:#000000;stroke-width:1.51181;stroke-linecap:butt;stroke-linejoin:miter;stroke-miterlimit:4;stroke-dasharray:none;stroke-dashoffset:0;stroke-opacity:1;stop-color:#000000;stop-opacity:1"
         d="m -9472.336,-394.50248 c -17.602,7.01807 -24.2532,-0.6965 -33.3926,-12.52067 -12.7067,-16.4394 -20.4837,-16.72456 -29.6647,-15.05801 -18.3394,3.32898 -17.7628,-17.22892 -2.806,-8.87658 6.5064,-21.16705 -11.311,-36.75214 -27.5888,-22.85101 -11.853,-15.14262 -40.4634,-13.29865 -38.9103,6.84223 9.5332,-9.24949 23.1928,-3.11814 20.1348,10.32879 -2.0079,8.82915 -3.2912,13.91005 4.489,18.57813 -4.251,2.17154 -15.0522,6.97795 -12.0346,18.35687 -11.7781,-0.46418 -22.5898,6.94361 -35.3534,20.43291 -7.8208,8.26545 -16.0051,6.71963 -17.3329,-1.58667 -0.9708,-6.0732 7.0177,-9.87276 16.5935,-5.44501 -4.5713,-25.69701 -31.2235,-19.93223 -42.0399,2.04101 -9.8367,19.98331 3.4198,47.62261 34.1132,38.35183 -0.103,11.14165 1.1698,21.51722 13.5549,25.70503 -1.4547,-16.17737 13.1945,-18.82045 18.7559,-15.78659 5.8461,3.18923 6.9399,17.68527 -10.7225,17.63567 -12.7331,-1.08503 -27.1046,17.20869 -17.524,36.34633 -7.6041,0.61061 -19.3248,7.82975 -11.7879,22.13599 -9.5334,1.172 -16.8629,8.46113 -12.2177,27.86073 1.1857,4.9519 0.2063,13.27835 -7.2734,11.83226 -6.4379,-1.24466 -5.8277,-14.75464 2.6088,-16.21113 -15.8786,-4.35033 -22.9083,9.89365 -19.7131,22.51344 3.0279,11.95858 15.0848,22.69601 29.8433,15.08955 0.199,24.03735 42.4209,34.9197 48.2165,-1.5498 -10.7332,8.5601 -18.4883,-12.64837 -1.3032,-14.52577 25.5808,-2.79459 31.8663,37.08087 1.1259,34.4444 7.3756,6.53796 10.487,8.12281 20.441,7.14209 11.0101,-1.08478 22.3708,-0.1996 21.9839,16.35545 -0.077,3.30665 -4.5882,14.17896 -14.0243,11.65056 -4.1871,-1.12195 -8.183,-10.79214 2.1424,-13.84696 -29.7984,-6.11899 -32.9892,34.80408 -0.5624,34.73775 13.7272,-0.0281 40.3813,-5.32793 48.3904,-50.95992 3.578,-20.38568 -8.7542,-52.03223 -24.6482,-59.09184 11.5624,-3.02039 19.2268,-10.32611 25.8309,-18.79763 -7.1217,-4.11309 -12.6032,-9.31913 -23.9593,-10.61046 8.9714,-11.87729 17.698,-23.97537 12.5239,-48.61065 -9.3106,23.09848 -31.2766,23.9954 -33.0368,13.06508 -2.7486,-17.06773 24.2927,-33.7678 42.2885,-34.96158 l 76.0202,0.29628"
         id="path87800"
         sodipodi:nodetypes="csscccsccsscsccscccsscsccscssscssccccscc" />
      <path
         style="font-variation-settings:normal;opacity:1;fill:none;fill-opacity:1;stroke:#000000;stroke-width:1.51181;stroke-linecap:butt;stroke-linejoin:miter;stroke-miterlimit:4;stroke-dasharray:none;stroke-dashoffset:0;stroke-opacity:1;stop-color:#000000;stop-opacity:1"
         d="m -9592.1092,-399.70273 c 48.0014,0.0721 94.536,28.61587 106.064,33.32976"
         id="path6409"
         sodipodi:nodetypes="cc" />
      <path
         style="font-variation-settings:normal;opacity:1;fill:none;fill-opacity:1;stroke:#000000;stroke-width:1.51181;stroke-linecap:butt;stroke-linejoin:miter;stroke-miterlimit:4;stroke-dasharray:none;stroke-dashoffset:0;stroke-opacity:1;stop-color:#000000;stop-opacity:1"
         d="m -9644.7955,-380.85649 c -0.5241,25.8153 29.3501,33.52036 68.2115,14.5456 22.8817,-11.1724 48.0584,-16.94187 70.4598,-6.37174"
         id="path6411"
         sodipodi:nodetypes="csc" />
      <path
         style="font-variation-settings:normal;opacity:1;fill:none;fill-opacity:1;stroke:#000000;stroke-width:1.51181;stroke-linecap:butt;stroke-linejoin:miter;stroke-miterlimit:4;stroke-dasharray:none;stroke-dashoffset:0;stroke-opacity:1;stop-color:#000000;stop-opacity:1"
         d="m -9650.6044,-198.78738 c 31.1135,-19.97272 30.8666,-72.53953 77.4393,-135.74728"
         id="path6413"
         sodipodi:nodetypes="cc" />
      <path
         style="font-variation-settings:normal;opacity:1;fill:none;fill-opacity:1;stroke:#000000;stroke-width:1.51181;stroke-linecap:butt;stroke-linejoin:miter;stroke-miterlimit:4;stroke-dasharray:none;stroke-dashoffset:0;stroke-opacity:1;stop-color:#000000;stop-opacity:1"
         d="m -9587.2765,-313.53997 c -17.3986,39.70519 1.8153,58.24704 23.8752,110.66579 16.1637,38.40843 26.0975,71.56628 -1.5296,77.90129"
         id="path7341"
         sodipodi:nodetypes="csc" />
    </g>
    <g
       id="g11579"
       inkscape:transform-center-x="-203.22018"
       inkscape:transform-center-y="11.607525"
       transform="matrix(-1,0,0,1,-19363.937,360)">
      <path
         style="font-variation-settings:normal;opacity:1;fill:#006d33;fill-opacity:1;stroke:#000000;stroke-width:1.51181;stroke-linecap:butt;stroke-linejoin:miter;stroke-miterlimit:4;stroke-dasharray:none;stroke-dashoffset:0;stroke-opacity:1;stop-color:#000000;stop-opacity:1"
         d="m -9472.336,-394.50248 c -17.602,7.01807 -24.2532,-0.6965 -33.3926,-12.52067 -12.7067,-16.4394 -20.4837,-16.72456 -29.6647,-15.05801 -18.3394,3.32898 -17.7628,-17.22892 -2.806,-8.87658 6.5064,-21.16705 -11.311,-36.75214 -27.5888,-22.85101 -11.853,-15.14262 -40.4634,-13.29865 -38.9103,6.84223 9.5332,-9.24949 23.1928,-3.11814 20.1348,10.32879 -2.0079,8.82915 -3.2912,13.91005 4.489,18.57813 -4.251,2.17154 -15.0522,6.97795 -12.0346,18.35687 -11.7781,-0.46418 -22.5898,6.94361 -35.3534,20.43291 -7.8208,8.26545 -16.0051,6.71963 -17.3329,-1.58667 -0.9708,-6.0732 7.0177,-9.87276 16.5935,-5.44501 -4.5713,-25.69701 -31.2235,-19.93223 -42.0399,2.04101 -9.8367,19.98331 3.4198,47.62261 34.1132,38.35183 -0.103,11.14165 1.1698,21.51722 13.5549,25.70503 -1.4547,-16.17737 13.1945,-18.82045 18.7559,-15.78659 5.8461,3.18923 6.9399,17.68527 -10.7225,17.63567 -12.7331,-1.08503 -27.1046,17.20869 -17.524,36.34633 -7.6041,0.61061 -19.3248,7.82975 -11.7879,22.13599 -9.5334,1.172 -16.8629,8.46113 -12.2177,27.86073 1.1857,4.9519 0.2063,13.27835 -7.2734,11.83226 -6.4379,-1.24466 -5.8277,-14.75464 2.6088,-16.21113 -15.8786,-4.35033 -22.9083,9.89365 -19.7131,22.51344 3.0279,11.95858 15.0848,22.69601 29.8433,15.08955 0.199,24.03735 42.4209,34.9197 48.2165,-1.5498 -10.7332,8.5601 -18.4883,-12.64837 -1.3032,-14.52577 25.5808,-2.79459 31.8663,37.08087 1.1259,34.4444 7.3756,6.53796 10.487,8.12281 20.441,7.14209 11.0101,-1.08478 22.3708,-0.1996 21.9839,16.35545 -0.077,3.30665 -4.5882,14.17896 -14.0243,11.65056 -4.1871,-1.12195 -8.183,-10.79214 2.1424,-13.84696 -29.7984,-6.11899 -32.9892,34.80408 -0.5624,34.73775 13.7272,-0.0281 40.3813,-5.32793 48.3904,-50.95992 3.578,-20.38568 -8.7542,-52.03223 -24.6482,-59.09184 11.5624,-3.02039 19.2268,-10.32611 25.8309,-18.79763 -7.1217,-4.11309 -12.6032,-9.31913 -23.9593,-10.61046 8.9714,-11.87729 17.698,-23.97537 12.5239,-48.61065 -9.3106,23.09848 -31.2766,23.9954 -33.0368,13.06508 -2.7486,-17.06773 24.2927,-33.7678 42.2885,-34.96158 l 76.0202,0.29628"
         id="path11569"
         sodipodi:nodetypes="csscccsccsscsccscccsscsccscssscssccccscc" />
      <path
         style="font-variation-settings:normal;opacity:1;fill:none;fill-opacity:1;stroke:#000000;stroke-width:1.51181;stroke-linecap:butt;stroke-linejoin:miter;stroke-miterlimit:4;stroke-dasharray:none;stroke-dashoffset:0;stroke-opacity:1;stop-color:#000000;stop-opacity:1"
         d="m -9592.1092,-399.70273 c 48.0014,0.0721 94.536,28.61587 106.064,33.32976"
         id="path11571"
         sodipodi:nodetypes="cc" />
      <path
         style="font-variation-settings:normal;opacity:1;fill:none;fill-opacity:1;stroke:#000000;stroke-width:1.51181;stroke-linecap:butt;stroke-linejoin:miter;stroke-miterlimit:4;stroke-dasharray:none;stroke-dashoffset:0;stroke-opacity:1;stop-color:#000000;stop-opacity:1"
         d="m -9644.7955,-380.85649 c -0.5241,25.8153 29.3501,33.52036 68.2115,14.5456 22.8817,-11.1724 48.0584,-16.94187 70.4598,-6.37174"
         id="path11573"
         sodipodi:nodetypes="csc" />
      <path
         style="font-variation-settings:normal;opacity:1;fill:none;fill-opacity:1;stroke:#000000;stroke-width:1.51181;stroke-linecap:butt;stroke-linejoin:miter;stroke-miterlimit:4;stroke-dasharray:none;stroke-dashoffset:0;stroke-opacity:1;stop-color:#000000;stop-opacity:1"
         d="m -9650.6044,-198.78738 c 31.1135,-19.97272 30.8666,-72.53953 77.4393,-135.74728"
         id="path11575"
         sodipodi:nodetypes="cc" />
      <path
         style="font-variation-settings:normal;opacity:1;fill:none;fill-opacity:1;stroke:#000000;stroke-width:1.51181;stroke-linecap:butt;stroke-linejoin:miter;stroke-miterlimit:4;stroke-dasharray:none;stroke-dashoffset:0;stroke-opacity:1;stop-color:#000000;stop-opacity:1"
         d="m -9587.2765,-313.53997 c -17.3986,39.70519 1.8153,58.24704 23.8752,110.66579 16.1637,38.40843 26.0975,71.56628 -1.5296,77.90129"
         id="path11577"
         sodipodi:nodetypes="csc" />
    </g>
    <path
       style="font-variation-settings:normal;opacity:1;fill:#da251c;fill-opacity:1;stroke:#000000;stroke-width:1.13386;stroke-linecap:butt;stroke-linejoin:miter;stroke-miterlimit:4;stroke-dasharray:none;stroke-dashoffset:0;stroke-opacity:1;stop-color:#000000;stop-opacity:1"
       d="m -10094.15,13.08416 c -49.377,-38.83049 -87.547,-43.59497 -108.349,-5.34189 -5.405,9.9391 -10.384,16.33461 -18.285,21.10903 11.035,-0.27126 22.149,-0.3585 27.811,-13.117 0.02,10.907 14.837,11.53593 20.962,2.88089 -8.528,-1.08599 -5.667,-10.95077 0.584,-11.11256 l 9.114,5.24383"
       id="path83526"
       sodipodi:nodetypes="csccccc"
       inkscape:transform-center-x="155.49836"
       inkscape:transform-center-y="196.94622" />
    <path
       style="font-variation-settings:normal;opacity:1;fill:#da251c;fill-opacity:1;stroke:#000000;stroke-width:1.13386;stroke-linecap:butt;stroke-linejoin:miter;stroke-miterlimit:4;stroke-dasharray:none;stroke-dashoffset:0;stroke-opacity:1;stop-color:#000000;stop-opacity:1"
       d="m -10192.973,15.7343 c 3.787,7.93896 16.732,6.89547 20.962,2.88089"
       id="path84416"
       sodipodi:nodetypes="cc"
       inkscape:transform-center-x="180.52316"
       inkscape:transform-center-y="210.53831" />
    <path
       style="font-variation-settings:normal;opacity:1;fill:#da251c;fill-opacity:1;stroke:#000000;stroke-width:1.13386;stroke-linecap:butt;stroke-linejoin:miter;stroke-miterlimit:4;stroke-dasharray:none;stroke-dashoffset:0;stroke-opacity:1;stop-color:#000000;stop-opacity:1"
       d="m -9909.7871,13.08416 c 49.3766,-38.83049 87.5467,-43.59497 108.3488,-5.34189 5.4049,9.9391 10.3838,16.33461 18.2846,21.10903 -11.0349,-0.27126 -22.1489,-0.3585 -27.8107,-13.117 -0.018,10.907 -14.8368,11.53593 -20.9624,2.88089 8.5284,-1.08599 5.6674,-10.95077 -0.5833,-11.11256 l -9.1141,5.24383"
       id="path87707"
       sodipodi:nodetypes="csccccc"
       inkscape:transform-center-x="-155.49834"
       inkscape:transform-center-y="196.94622" />
    <path
       style="font-variation-settings:normal;opacity:1;fill:#da251c;fill-opacity:1;stroke:#000000;stroke-width:1.13386;stroke-linecap:butt;stroke-linejoin:miter;stroke-miterlimit:4;stroke-dasharray:none;stroke-dashoffset:0;stroke-opacity:1;stop-color:#000000;stop-opacity:1"
       d="m -9810.9644,15.7343 c -3.7866,7.93896 -16.7325,6.89547 -20.9624,2.88089"
       id="path87709"
       sodipodi:nodetypes="cc"
       inkscape:transform-center-x="-180.52314"
       inkscape:transform-center-y="210.53831" />
    <path
       style="font-variation-settings:normal;fill:#da251c;fill-opacity:1;stroke:#000000;stroke-width:1.51181;stroke-linecap:butt;stroke-linejoin:miter;stroke-miterlimit:4;stroke-dasharray:none;stroke-dashoffset:0;stroke-opacity:1;stop-color:#000000"
       d="m -10090.337,16.61867 c -26.676,-10.57951 -28.811,-29.62295 -30.05,-46.09897 -1.241,-16.48859 -5.299,-29.22971 -24.76,-20.87845 13.56,-15.25664 28.188,-19.31849 43.617,-4.76047 6.371,-20.1209 20.848,-0.84891 24.56,-31.96656 12.9,-1.4958 23.666,19.57039 7.093,30.17545 12.403,12.39158 -1.5,24.31736 -12.153,19.90379 4.698,-26.96665 -33.351,-11.66207 -18.258,18.11077 -0.142,-11.26466 7.548,-15.35696 10.45,-17.31012 -0.799,20.46073 13.941,25.6647 22.737,16.98852 9.666,-9.53467 23.557,-58.28759 15.231,-127.25052 l 49.901,-6.42828 49.9014,6.42828 c -8.3263,68.96293 5.5654,117.71585 15.2312,127.25052 8.7955,8.67618 23.5361,3.47221 22.7364,-16.98852 2.9028,1.95316 10.5927,6.04546 10.4501,17.31012 15.0929,-29.77284 -22.9554,-45.07742 -18.2573,-18.11077 -10.6531,4.41357 -24.556,-7.51221 -12.1535,-19.90379 -16.573,-10.60506 -5.8068,-31.67125 7.0937,-30.17545 3.7114,31.11765 18.1886,11.84566 24.5599,31.96656 15.4286,-14.55802 30.0564,-10.49617 43.6164,4.76047 -19.4609,-8.35126 -23.5192,4.38986 -24.7595,20.87845 -1.2394,16.47602 -3.3743,35.51946 -30.0506,46.09897"
       id="path47032"
       sodipodi:nodetypes="cscccccccscccscccccccsc"
       inkscape:transform-center-x="71.589011"
       inkscape:transform-center-y="157.5228" />
    <path
       style="font-variation-settings:normal;fill:none;fill-opacity:1;stroke:#000000;stroke-width:1.51181;stroke-linecap:butt;stroke-linejoin:miter;stroke-miterlimit:4;stroke-dasharray:none;stroke-dashoffset:0;stroke-opacity:1;stop-color:#000000"
       d="m -10076.97,-87.08578 c 7.949,1.50507 17.087,14.28691 7.093,30.17545"
       id="path49750"
       sodipodi:nodetypes="cc"
       inkscape:transform-center-x="69.262693"
       inkscape:transform-center-y="153.66349" />
    <path
       style="font-variation-settings:normal;fill:none;fill-opacity:1;stroke:#000000;stroke-width:1.51181;stroke-linecap:butt;stroke-linejoin:miter;stroke-miterlimit:4;stroke-dasharray:none;stroke-dashoffset:0;stroke-opacity:1;stop-color:#000000"
       d="m -9926.967,-87.08578 c -7.9492,1.50507 -17.0879,14.28691 -7.0937,30.17545"
       id="path50089"
       sodipodi:nodetypes="cc"
       inkscape:transform-center-x="-69.262671"
       inkscape:transform-center-y="153.66349" />
    <g
       id="g22070" />
    <g
       id="g22106"
       transform="matrix(1,0,0,0.95604311,-56.260136,76.475571)"
       style="stroke-width:1.02273" />
    <g
       id="g23108"
       transform="translate(27.63629,-14.0776)" />
    <g
       id="g23130"
       transform="translate(54.975462,-27.651306)" />
    <g
       id="g23152"
       transform="matrix(1,0,0,1.0228329,82.564568,-66.762578)"
       style="stroke-width:0.988775" />
    <path
       style="fill:#000000;fill-opacity:1;stroke:#000000;stroke-width:0.00999999;stroke-linecap:round;stroke-linejoin:round;stroke-miterlimit:4;stroke-dasharray:none;stroke-opacity:1"
       d=""
       id="path45117"
       transform="translate(-5980.1666,215.28438)" />
    <path
       style="font-variation-settings:normal;opacity:1;fill:#005ca1;fill-opacity:1;stroke:#000000;stroke-width:1.51181;stroke-linecap:butt;stroke-linejoin:miter;stroke-miterlimit:4;stroke-dasharray:none;stroke-dashoffset:0;stroke-opacity:1;stop-color:#000000;stop-opacity:1"
       d="M -10171.004,185.0332 V 6.9020205 h 169.035 169.0356 V 185.0332 c 0,143.67417 -80.6497,184.23951 -169.0356,234.25399 -88.385,-50.01448 -169.035,-90.57982 -169.035,-234.25399 z"
       id="path134208"
       sodipodi:nodetypes="scccscs"
       inkscape:transform-center-x="84.517661"
       inkscape:transform-center-y="465.71085" />
    <path
       id="path135591"
       style="font-variation-settings:normal;opacity:1;fill:#d7d7d7;fill-opacity:1;stroke:#000000;stroke-width:1.51181;stroke-linecap:butt;stroke-linejoin:miter;stroke-miterlimit:4;stroke-dasharray:none;stroke-dashoffset:0;stroke-opacity:1;stop-color:#000000;stop-opacity:1"
       inkscape:transform-center-x="-92.498449"
       inkscape:transform-center-y="-43.843336"
       d="m -10001.97,157.39835 c -18.296,0 -29.57,3.80132 -45.607,11.88281 -45.156,22.75581 -80.866,7.01213 -123.428,0.004 v 15.74805 c 0,16.1925 1.075,31.01183 3.02,44.74609 41.247,7.22114 76.319,21.71983 120.408,-0.49805 16.037,-8.08149 27.311,-11.88281 45.607,-11.88281 18.2968,0 29.5731,3.80132 45.6098,11.88281 44.0894,22.21819 79.1603,7.71909 120.4082,0.49805 1.9444,-13.73426 3.0195,-28.55359 3.0195,-44.74609 v -15.74805 c -42.5622,7.0081 -78.271,22.75215 -123.4277,-0.004 -16.0367,-8.08149 -27.313,-11.88281 -45.6098,-11.88281 z" />
    <path
       id="path136354"
       style="font-variation-settings:normal;opacity:1;fill:#d7d7d7;fill-opacity:1;stroke:#000000;stroke-width:1.51181;stroke-linecap:butt;stroke-linejoin:miter;stroke-miterlimit:4;stroke-dasharray:none;stroke-dashoffset:0;stroke-opacity:1;stop-color:#000000;stop-opacity:1"
       inkscape:transform-center-x="-47.401039"
       inkscape:transform-center-y="-60.613317"
       d="m -10033.169,347.89054 c -2.014,2.07289 -3.854,4.61411 -4.644,9.96484 -1.505,-2.43699 -2.167,-4.47306 -5.635,-7.84179 -2.281,1.54497 -4.609,3.47591 -7.346,8.71875 -1.69,-2.69257 -3.54,-5.31894 -7.314,-7.15235 -4.319,7.47078 -12.926,15.98296 -21.692,20.52149 23.753,17.05602 50.413,31.67084 77.83,47.18554 27.4172,-15.51422 54.0787,-30.12824 77.8305,-47.18359 -8.7654,-4.53842 -17.3704,-13.05242 -21.6895,-20.52344 -3.7745,1.83341 -5.6243,4.45978 -7.3144,7.15235 -2.7364,-5.24284 -5.0666,-7.17378 -7.3477,-8.71875 -3.4681,3.36873 -4.1282,5.4048 -5.6328,7.84179 -0.7905,-5.35073 -2.6305,-7.89195 -4.6445,-9.96484 -5.3036,6.7259 -9.8425,9.83722 -14.4063,13.06836 l -16.7953,3.57617 -16.795,-3.57617 c -4.563,-3.23114 -9.1,-6.34246 -14.404,-13.06836 z" />
    <text
       xml:space="preserve"
       style="font-style:normal;font-weight:normal;font-size:40px;line-height:1.25;font-family:sans-serif;fill:#000000;fill-opacity:1;stroke:none"
       x="-9671.8154"
       y="363.60074"
       id="text137295"><tspan
         sodipodi:role="line"
         id="tspan137293"
         x="-9671.8154"
         y="363.60074" /></text>
    <path
       style="font-variation-settings:normal;opacity:1;fill:#006d33;fill-opacity:1;stroke:#000000;stroke-width:1.51181;stroke-linecap:butt;stroke-linejoin:miter;stroke-miterlimit:4;stroke-dasharray:none;stroke-dashoffset:0;stroke-opacity:1;stop-color:#000000;stop-opacity:1"
       d="m -10004.455,310.85637 c -32.548,23.17228 -49.942,13.1775 -45.026,2.72547 -17.132,14.05147 -27.289,10.20475 -32.529,2.3171 -5.968,-8.98371 -5.051,-23.47419 8.166,-27.41135 -5.919,-15.922 6.057,-28.51329 21.541,-25.17483 -2.278,-20.72668 24.003,-25.26859 30.44,-10.38439 -1.601,-23.22804 41.2315,-23.72608 39.3166,-0.006 11.6766,-16.42155 31.8786,-7.77201 30.9668,10.60214 18.8562,-4.26367 26.1539,13.7859 21.4696,24.97033 12.645,4.08638 14.2621,17.0262 7.4573,28.01987 -5.7523,9.29324 -16.3161,10.40794 -31.964,-3.00964 4.2369,15.45551 -20.1871,14.33014 -40.875,-0.3704"
       id="path32549"
       sodipodi:nodetypes="ccsccccccscc" />
    <path
       style="font-variation-settings:normal;opacity:1;fill:#926b4c;fill-opacity:1;stroke:#000000;stroke-width:1.51181;stroke-linecap:butt;stroke-linejoin:miter;stroke-miterlimit:4;stroke-dasharray:none;stroke-dashoffset:0;stroke-opacity:1;stop-color:#000000;stop-opacity:1"
       d="m -10023.841,299.35981 c 4.366,0.75356 6.866,0.97018 9.121,2.21549 3.338,1.84393 4.606,4.76228 6.112,5.4269 -0.171,-2.87126 -0.672,-5.28326 0.12,-9.50109 -2.229,0.30955 -6.259,-0.0596 -8.55,-1.89214 -2.677,-1.35981 -4.615,0.45561 -6.618,3.8261 -0.374,0.63007 -0.751,1.31448 -1.135,2.04265 -2,3.79095 -4.203,8.76793 -7.349,13.43744 4.42,-7.61552 4.318,-20.8989 13.403,-22.57822 -6.458,-8.94661 -3.676,-11.8531 -11.821,-19.67733 6.436,3.49928 8.507,8.00731 11.308,12.70979 3.252,5.46016 6.226,8.96338 11.618,7.94828 3.055,-9.3866 -0.528,-13.34118 0.615,-18.51493 0.83,-3.75779 5.696,-6.81028 6.129,-11.83095 0.31,-3.5933 -6.256,-6.78788 -4.255,-10.30359 0.798,3.59193 6.984,5.50449 7.2939,9.11597 0.4406,5.13536 -5.2739,9.80337 -6.4869,15.50989 -0.85,4.00469 0.282,7.41424 0.4,11.40003 0.215,7.23645 0.521,14.69965 3.884,19.22393 1.5418,-6.0979 3.607,-12.47918 4.4913,-17.69749 0.8674,-5.11893 0.2485,-8.16602 -5.4573,-11.01512 2.178,0.2389 4.3272,0.37094 7.291,3.53218 3.6318,-15.18672 10.3468,-13.13983 15.6487,-22.7764 -0.1839,6.73942 -6.6099,8.1587 -7.1491,13.87207 4.8097,-3.7367 10.5685,-4.85065 14.4431,-8.0724 -2.5949,4.20472 -9.2471,6.43844 -13.9405,10.1168 -6.6326,5.1982 -9.4699,14.48725 -9.558,30.52411 1.4478,-1.32267 3.2624,-3.3973 5.85,-4.82648 2.2547,-1.24532 4.8438,-1.46191 9.2103,-2.21549 3.9305,-0.67832 14.4959,-2.10446 5.7205,-11.11238 -1.7526,-1.79906 -2.0833,-2.80333 -1.0508,-3.52891 1.9425,-1.36496 4.7174,-0.11924 8.0117,-3.17284 -1.0067,-2.67512 -4.7916,-2.1291 -7.903,-2.4142 4.4651,0.0102 10.135,-1.24691 12.6639,2.11191 3.0063,-4.51875 12.0876,-3.40612 18.1752,-3.08587 -8.9862,0.95251 -12.8399,1.40073 -15.1309,3.50569 -1.8314,1.68263 -3.6406,3.48122 -8.0267,2.12584 -2.2697,1.06253 -5.5519,1.71119 -4.9081,2.71874 3.5815,5.60432 8.5121,5.35959 10.6288,5.8467 1.2716,0.0443 3.2495,1.53824 5.1207,3.50771 5.7381,6.0394 18.6931,9.37313 26.6507,2.26097 -7.9261,8.64336 -21.6112,6.1125 -27.9496,-0.52879 -2.4521,-2.56931 -5.2854,-3.20078 -9.9525,-4.67243 0.5221,5.70389 -2.9126,8.28907 -10.713,8.4282 -4.7247,0.0843 -8.9518,1.96692 -10.6788,5.87572 -3.979,9.00611 0.4622,34.42453 3.3935,48.36801 3.1308,6.3431 16.6707,11.84835 25.5289,11.24972 6.7077,-0.4533 11.5822,-3.92588 13.0645,-3.5451 3.7094,0.95293 5.1443,5.08717 8.9407,6.81026 -5.082,1.17141 -7.6038,-3.77048 -9.4488,-3.48952 -3.5595,0.54204 -5.9831,5.98036 -12.5852,6.68528 6.3456,2.47073 6.4538,7.87038 5.4469,10.93137 -1.4363,-4.67428 -7.6993,-7.26757 -10.1826,-10.2579 -3.2746,2.45319 -3.0112,7.81035 -2.519,11.84512 0.6504,5.33131 1.376,9.0483 -8.3312,7.55854 6.0553,-0.49905 6.9689,-3.9426 6.0203,-10.30099 -1.0709,-7.17832 -3.5142,-11.60302 -9.478,-11.44977 -5.0319,0.65603 -8.4736,-0.15048 -11.9304,-1.50903 -2.0427,3.22495 -7.8712,2.29486 -7.0055,6.01919 1.2499,5.3765 5.2492,8.28602 9.541,8.77908 3.1993,0.36756 3.2469,0.6463 4.9549,1.50146 4.9471,2.47683 0.7032,5.70262 9.9995,4.83212 -4.6428,3.2636 -9.7104,0.39441 -14.3153,-2.19146 -3.7158,-2.08657 -6.6071,-4.15366 -9.3889,-0.84458 1.5623,7.67577 7.7864,7.92446 11.8509,11.61369 -5.2391,-2.52887 -14.8581,0.0985 -15.6828,-7.62773 -6.717,3.16211 -1.692,11.03467 -7.879,14.48463 2.105,-8.22462 -1.301,-10.82309 -0.5,-13.34343 1.215,-3.82189 7.668,-4.63898 7.733,-8.59736 0.06,-3.3615 -4.698,-4.68178 -6.471,-7.32635 -1.67,-2.49241 0.929,-5.6608 -3.311,-8.20716 -4.31,1.88257 -8.059,3.20499 -14.104,2.41693 -5.964,-0.15325 -8.407,4.27145 -9.478,11.44977 -0.949,6.35839 -0.04,9.80194 6.02,10.30099 -9.707,1.48976 -8.981,-2.22723 -8.331,-7.55854 0.492,-4.03477 0.756,-9.39193 -2.519,-11.84512 -2.483,2.99033 -8.746,5.58362 -10.183,10.2579 -1.007,-3.06099 -0.898,-8.46064 5.447,-10.93137 -6.602,-0.70492 -9.025,-6.14324 -12.585,-6.68528 -1.845,-0.28096 -4.367,4.66093 -9.449,3.48952 3.797,-1.72309 5.232,-5.85733 8.941,-6.81026 1.482,-0.38078 6.357,3.0918 13.064,3.5451 8.859,0.59863 22.399,-4.90662 25.529,-11.24972 2.932,-13.94348 7.373,-39.3619 3.394,-48.36801 -1.727,-3.9088 -4.972,-5.66469 -9.697,-5.74896 m -2.193,-0.17006 c -6.945,-0.38064 -9.996,-2.98541 -9.502,-8.38493 -4.667,1.47165 -7.5,2.10312 -9.952,4.67243 -6.339,6.64129 -20.024,9.17215 -27.95,0.52879 7.958,7.11216 20.913,3.77843 26.651,-2.26097 1.871,-1.96947 3.849,-3.46341 5.12,-3.50771 2.117,-0.48711 7.048,-0.24238 10.629,-5.8467 0.644,-1.00755 -2.638,-1.65621 -4.908,-2.71874 -4.386,1.35538 -6.195,-0.44321 -8.027,-2.12584 -2.291,-2.10496 -6.144,-2.55318 -15.131,-3.50569 6.088,-0.32025 15.169,-1.43288 18.176,3.08587 2.529,-3.35882 8.198,-2.10171 12.664,-2.11191 -3.112,0.2851 -6.897,-0.26092 -7.903,2.4142 3.294,3.0536 6.069,1.80788 8.011,3.17284 1.033,0.72558 0.702,1.72986 -1.051,3.52891 -7.814,8.02122 -0.292,10.03066 4.225,10.85358"
       id="path957"
       sodipodi:nodetypes="cscccsscccscsscssscscccccscssssccccscscscscsscsscscccscsccssscsccccsssccscscccscsscscccscscscsccccssc"
       inkscape:transform-center-x="39.668661"
       inkscape:transform-center-y="-8.552546" />
    <path
       style="font-variation-settings:normal;opacity:1;fill:none;fill-opacity:1;stroke:#000000;stroke-width:1.51181;stroke-linecap:butt;stroke-linejoin:miter;stroke-miterlimit:4;stroke-dasharray:none;stroke-dashoffset:0;stroke-opacity:1;stop-color:#000000;stop-opacity:1"
       d="m -10064.055,376.82773 6.811,-6.61339 3.114,10.17078"
       id="path39639" />
    <path
       style="font-variation-settings:normal;opacity:1;fill:none;fill-opacity:1;stroke:#000000;stroke-width:1.51181;stroke-linecap:butt;stroke-linejoin:miter;stroke-miterlimit:4;stroke-dasharray:none;stroke-dashoffset:0;stroke-opacity:1;stop-color:#000000;stop-opacity:1"
       d="m -10021.37,394.85801 8.558,-16.72953 4.347,5.21704"
       id="path39641" />
    <path
       style="font-variation-settings:normal;opacity:1;fill:none;fill-opacity:1;stroke:#000000;stroke-width:1.51181;stroke-linecap:butt;stroke-linejoin:miter;stroke-miterlimit:4;stroke-dasharray:none;stroke-dashoffset:0;stroke-opacity:1;stop-color:#000000;stop-opacity:1"
       d="m -10027.804,390.7292 4.789,-11.12979 6.2,6.61828"
       id="path39643" />
    <path
       style="font-variation-settings:normal;opacity:1;fill:none;fill-opacity:1;stroke:#000000;stroke-width:1.51181;stroke-linecap:butt;stroke-linejoin:miter;stroke-miterlimit:4;stroke-dasharray:none;stroke-dashoffset:0;stroke-opacity:1;stop-color:#000000;stop-opacity:1"
       d="m -10002.4,409.00424 2.6048,-7.60427 10.2705,5.41906"
       id="path39645" />
    <path
       id="rect40133"
       style="opacity:1;fill:#f6b801;fill-opacity:1;fill-rule:evenodd;stroke:#000000;stroke-width:1.51181;stroke-linecap:round;stroke-miterlimit:4;stroke-dasharray:none;stop-color:#000000;stop-opacity:1"
       d="m -10056.806,30.00382 v 19.57031 c 0,30.37956 24.459,54.83594 54.838,54.83594 30.3798,0 54.8363,-24.45638 54.8363,-54.83594 V 30.00382 Z" />
    <rect
       style="font-variation-settings:normal;opacity:1;fill:#f6b801;fill-opacity:1;fill-rule:evenodd;stroke:#000000;stroke-width:1.51181;stroke-linecap:round;stroke-linejoin:miter;stroke-miterlimit:4;stroke-dasharray:none;stroke-dashoffset:0;stroke-opacity:1;stop-color:#000000;stop-opacity:1"
       id="rect40581"
       width="43.604313"
       height="10.137002"
       x="-10023.77"
       y="100.24235"
       ry="5.068501" />
    <rect
       style="font-variation-settings:normal;opacity:1;fill:#f6b801;fill-opacity:1;fill-rule:evenodd;stroke:#000000;stroke-width:1.51181;stroke-linecap:round;stroke-linejoin:miter;stroke-miterlimit:4;stroke-dasharray:none;stroke-dashoffset:0;stroke-opacity:1;stop-color:#000000;stop-opacity:1"
       id="rect40762"
       width="50.05814"
       height="11.637369"
       x="-10026.998"
       y="110.37935"
       ry="5.8186846" />
    <path
       style="font-variation-settings:normal;opacity:1;fill:#f6b801;fill-opacity:1;stroke:#000000;stroke-width:1.51181;stroke-linecap:butt;stroke-linejoin:miter;stroke-miterlimit:4;stroke-dasharray:none;stroke-dashoffset:0;stroke-opacity:1;stop-color:#000000;stop-opacity:1"
       d="m -10001.969,122.01672 h 18.7008 c 5.9306,0 12.5601,6.98155 12.7265,16.57199 h -62.8543 c 0.167,-9.59044 6.796,-16.57199 12.727,-16.57199 h 18.7"
       id="path41278"
       sodipodi:nodetypes="csccsc"
       inkscape:transform-center-x="-15.713489"
       inkscape:transform-center-y="-35.97792" />
    <path
       style="font-variation-settings:normal;opacity:1;fill:#f6b801;fill-opacity:1;stroke:#000000;stroke-width:1.51181;stroke-linecap:butt;stroke-linejoin:miter;stroke-miterlimit:4;stroke-dasharray:none;stroke-dashoffset:0;stroke-opacity:1;stop-color:#000000;stop-opacity:1"
       d="m -9947.1317,39.78898 h -109.6743"
       id="path41445" />
    <path
       style="font-variation-settings:normal;fill:#d7d7d7;fill-opacity:1;stroke:#000000;stroke-width:1.51181;stroke-linecap:butt;stroke-linejoin:miter;stroke-miterlimit:4;stroke-dasharray:none;stroke-dashoffset:0;stroke-opacity:1;stop-color:#000000"
       d="m -10066.539,7.58681 c 30.298,-24.51771 29.205,-54.91241 27.029,-81.43435 11.441,14.06571 23.888,23.84856 37.541,28.50385 13.6533,-4.65529 26.1008,-14.43814 37.5412,-28.50385 -2.1759,26.52194 -3.2684,56.91664 27.0292,81.43435 -26.8485,-0.18793 -51.3409,-0.69467 -64.5704,8.32872 -13.229,-9.02339 -37.721,-8.51665 -64.57,-8.32872 z"
       id="path46096"
       sodipodi:nodetypes="ccccccc"
       inkscape:transform-center-x="32.285061"
       inkscape:transform-center-y="196.69554" />
    <circle
       style="font-variation-settings:normal;fill:none;fill-opacity:1;fill-rule:evenodd;stroke:#000000;stroke-width:1.51181;stroke-linecap:round;stroke-linejoin:miter;stroke-miterlimit:4;stroke-dasharray:none;stroke-dashoffset:0;stroke-opacity:1;stop-color:#000000"
       id="path46405"
       cx="-10001.862"
       cy="-8.6934204"
       r="9.4847212" />
    <path
       style="font-variation-settings:normal;fill:none;fill-opacity:1;stroke:#000000;stroke-width:1.51181;stroke-linecap:butt;stroke-linejoin:miter;stroke-miterlimit:4;stroke-dasharray:none;stroke-dashoffset:0;stroke-opacity:1;stop-color:#000000"
       d="m -10039.269,-41.51642 c 13.073,9.76723 25.567,11.6606 37.3,11.6606"
       id="path46520"
       sodipodi:nodetypes="cc"
       inkscape:transform-center-x="18.650161"
       inkscape:transform-center-y="189.97543" />
    <path
       style="font-variation-settings:normal;fill:none;fill-opacity:1;stroke:#000000;stroke-width:1.51181;stroke-linecap:butt;stroke-linejoin:miter;stroke-miterlimit:4;stroke-dasharray:none;stroke-dashoffset:0;stroke-opacity:1;stop-color:#000000"
       d="m -10041.026,-31.62298 c 8.993,10.02727 27.909,13.44543 39.057,13.44543"
       id="path46522"
       sodipodi:nodetypes="cc"
       inkscape:transform-center-x="19.528711"
       inkscape:transform-center-y="200.76128" />
    <path
       style="font-variation-settings:normal;fill:none;fill-opacity:1;stroke:#000000;stroke-width:1.51181;stroke-linecap:butt;stroke-linejoin:miter;stroke-miterlimit:4;stroke-dasharray:none;stroke-dashoffset:0;stroke-opacity:1;stop-color:#000000"
       d="m -9964.6684,-41.51642 c -13.0728,9.76723 -25.5666,11.6606 -37.3006,11.6606"
       id="path50083"
       sodipodi:nodetypes="cc"
       inkscape:transform-center-x="-18.650139"
       inkscape:transform-center-y="189.97543" />
    <path
       style="font-variation-settings:normal;fill:none;fill-opacity:1;stroke:#000000;stroke-width:1.51181;stroke-linecap:butt;stroke-linejoin:miter;stroke-miterlimit:4;stroke-dasharray:none;stroke-dashoffset:0;stroke-opacity:1;stop-color:#000000"
       d="m -9962.9114,-31.62298 c -8.9926,10.02727 -27.9088,13.44543 -39.0576,13.44543"
       id="path50085"
       sodipodi:nodetypes="cc"
       inkscape:transform-center-x="-19.528689"
       inkscape:transform-center-y="200.76128" />
    <path
       style="font-variation-settings:normal;opacity:1;fill:#f8b800;fill-opacity:1;stroke:#000000;stroke-width:1.32283;stroke-linecap:butt;stroke-linejoin:miter;stroke-miterlimit:4;stroke-dasharray:none;stroke-dashoffset:0;stroke-opacity:1;stop-color:#000000;stop-opacity:1"
       d="m -9952.0676,-146.46789 c 3.5064,-9.89939 8.4444,-19.47056 23.4137,-26.7418 -4.9706,-0.70184 -9.6854,-0.19367 -13.9841,2.28322 -8.2922,-6.44483 -19.4861,2.43369 -9.5538,8.79096 -5.6389,9.82149 -17.265,7.65558 -18.4435,0.0872 7.9703,0.74766 7.348,-10.08481 0.7576,-10.83477 4.9248,-10.65416 -12.1553,-12.46802 -10.0712,-0.88883 -6.6364,-3.27151 -9.7314,8.56257 -0.9269,11.24775 -3.9801,6.12672 -15.402,3.50613 -14.7875,-5.26067 3.9283,0.3964 9.8544,-8.70631 1.0114,-11.96375 1.4958,-6.82563 -4.0995,-10.06759 -7.3171,-10.18313 -3.217,0.11554 -8.812,3.3575 -7.317,10.18313 -8.843,3.25744 -2.917,12.36015 1.012,11.96375 0.614,8.7668 -10.808,11.38739 -14.788,5.26067 8.805,-2.68518 5.71,-14.51926 -0.927,-11.24775 2.084,-11.57919 -14.996,-9.76533 -10.071,0.88883 -6.59,0.74996 -7.213,11.58243 0.758,10.83477 -1.179,7.56838 -12.805,9.73429 -18.444,-0.0872 9.933,-6.35727 -1.261,-15.23579 -9.554,-8.79096 -4.298,-2.47689 -9.013,-2.98506 -13.984,-2.28322 14.97,7.27124 19.908,16.84241 23.414,26.7418 z"
       id="path63362"
       sodipodi:nodetypes="cccccccccccccccccccccc"
       inkscape:transform-center-x="-36.657389"
       inkscape:transform-center-y="-31.128305" />
    <circle
       style="font-variation-settings:normal;opacity:1;fill:#da251c;fill-opacity:1;fill-rule:evenodd;stroke:#000000;stroke-width:1.32283;stroke-linecap:round;stroke-linejoin:miter;stroke-miterlimit:4;stroke-dasharray:none;stroke-dashoffset:0;stroke-opacity:1;stop-color:#000000;stop-opacity:1"
       id="path63198"
       cx="-10001.969"
       cy="-154.80162"
       r="3.7861059" />
    <circle
       style="font-variation-settings:normal;opacity:1;fill:#da251c;fill-opacity:1;fill-rule:evenodd;stroke:#000000;stroke-width:1.32283;stroke-linecap:round;stroke-linejoin:miter;stroke-miterlimit:4;stroke-dasharray:none;stroke-dashoffset:0;stroke-opacity:1;stop-color:#000000;stop-opacity:1"
       id="circle63280"
       cx="-10026.73"
       cy="-154.80162"
       r="3.7861059"
       inkscape:transform-center-x="24.76173"
       inkscape:transform-center-y="-17.730125" />
    <circle
       style="font-variation-settings:normal;opacity:1;fill:#da251c;fill-opacity:1;fill-rule:evenodd;stroke:#000000;stroke-width:1.32283;stroke-linecap:round;stroke-linejoin:miter;stroke-miterlimit:4;stroke-dasharray:none;stroke-dashoffset:0;stroke-opacity:1;stop-color:#000000;stop-opacity:1"
       id="circle63364"
       cx="9977.207"
       cy="-154.80162"
       r="3.7861059"
       inkscape:transform-center-x="-24.761708"
       inkscape:transform-center-y="-17.730125"
       transform="scale(-1,1)" />
    <g
       id="g83491"
       transform="translate(-640,160)">
      <path
         style="font-variation-settings:normal;opacity:1;fill:#d7d7d7;fill-opacity:1;stroke:#000000;stroke-width:1.13386;stroke-linecap:butt;stroke-linejoin:miter;stroke-miterlimit:4;stroke-dasharray:none;stroke-dashoffset:0;stroke-opacity:1;stop-color:#000000;stop-opacity:1"
         d="m -9322.1697,-230.94952 h 9.4956 c -1.0852,-9.07317 -1.7837,-19.14249 -1.9209,-30.08236 0.395,-32.49025 -35.4875,-40.25305 -47.3738,-40.25305 -11.8862,0 -47.7687,7.7628 -47.3737,40.25305 -0.1372,10.93987 -0.8357,21.00919 -1.9209,30.08236 h 9.4956 c 12.3996,18.11129 24.7795,27.25467 39.799,32.78544 15.0196,-5.53077 27.3995,-14.67415 39.7991,-32.78544 z"
         id="path75595"
         sodipodi:nodetypes="ccccccccc"
         inkscape:transform-center-x="-24.647289"
         inkscape:transform-center-y="90.720606" />
      <path
         style="font-variation-settings:normal;opacity:1;fill:none;fill-opacity:1;stroke:#000000;stroke-width:1.13386;stroke-linecap:butt;stroke-linejoin:miter;stroke-miterlimit:4;stroke-dasharray:none;stroke-dashoffset:0;stroke-opacity:1;stop-color:#000000;stop-opacity:1"
         d="m -9409.3425,-261.03188 47.3738,-30.71113"
         id="path75110"
         inkscape:transform-center-x="23.686861"
         inkscape:transform-center-y="64.057666" />
      <path
         style="font-variation-settings:normal;opacity:1;fill:#da251c;fill-opacity:1;stroke:#000000;stroke-width:1.13386;stroke-linecap:butt;stroke-linejoin:miter;stroke-miterlimit:4;stroke-dasharray:none;stroke-dashoffset:0;stroke-opacity:1;stop-color:#000000;stop-opacity:1"
         d="m -9380.1252,-264.5633 h 14.3087 c -3.44,9.84509 -5.5184,25.95169 -1.2546,46.28107 -6.2984,-7.03455 -15.6115,-20.94506 -13.0541,-46.28107 z"
         id="path75112"
         sodipodi:nodetypes="cccc"
         inkscape:transform-center-x="11.219122"
         inkscape:transform-center-y="99.022346" />
      <path
         style="font-variation-settings:normal;opacity:1;fill:#da251c;fill-opacity:1;stroke:#000000;stroke-width:1.13386;stroke-linecap:butt;stroke-linejoin:miter;stroke-miterlimit:4;stroke-dasharray:none;stroke-dashoffset:0;stroke-opacity:1;stop-color:#000000;stop-opacity:1"
         d="m -9398.4657,-259.05355 h 12.2429 c -2.3665,11.39974 -2.4524,23.48249 1.9051,36.89601 -10.2241,-7.81099 -16.4457,-18.88292 -14.148,-36.89601 z"
         id="path75114"
         sodipodi:nodetypes="cccc"
         inkscape:transform-center-x="29.661208"
         inkscape:transform-center-y="99.839566" />
      <path
         style="font-variation-settings:normal;opacity:1;fill:none;fill-opacity:1;stroke:#000000;stroke-width:1.13386;stroke-linecap:butt;stroke-linejoin:miter;stroke-miterlimit:4;stroke-dasharray:none;stroke-dashoffset:0;stroke-opacity:1;stop-color:#000000;stop-opacity:1"
         d="m -9314.595,-261.03188 -47.3738,-30.71113"
         id="path75597"
         inkscape:transform-center-x="-23.686839"
         inkscape:transform-center-y="64.057666"
         sodipodi:nodetypes="cc" />
      <path
         style="font-variation-settings:normal;opacity:1;fill:#da251c;fill-opacity:1;stroke:#000000;stroke-width:1.13386;stroke-linecap:butt;stroke-linejoin:miter;stroke-miterlimit:4;stroke-dasharray:none;stroke-dashoffset:0;stroke-opacity:1;stop-color:#000000;stop-opacity:1"
         d="m -9343.8123,-264.5633 h -14.3087 c 3.44,9.84509 5.5184,25.95169 1.2546,46.28107 6.2984,-7.03455 15.6115,-20.94506 13.0541,-46.28107 z"
         id="path75599"
         sodipodi:nodetypes="cccc"
         inkscape:transform-center-x="-11.2191"
         inkscape:transform-center-y="99.022346" />
      <path
         style="font-variation-settings:normal;opacity:1;fill:#da251c;fill-opacity:1;stroke:#000000;stroke-width:1.13386;stroke-linecap:butt;stroke-linejoin:miter;stroke-miterlimit:4;stroke-dasharray:none;stroke-dashoffset:0;stroke-opacity:1;stop-color:#000000;stop-opacity:1"
         d="m -9325.4718,-259.05355 h -12.2429 c 2.3665,11.39974 2.4524,23.48249 -1.9051,36.89601 10.2241,-7.81099 16.4457,-18.88292 14.148,-36.89601 z"
         id="path75601"
         sodipodi:nodetypes="cccc"
         inkscape:transform-center-x="-29.661186"
         inkscape:transform-center-y="99.839566" />
    </g>
  </g>
</svg>
